<svg width="679" height="300" viewBox="0 0 679 300" fill="none" xmlns="http://www.w3.org/2000/svg">
<path d="M101.42 195.6C87.4203 195.6 74.7536 192.533 63.4203 186.4C52.2203 180.133 43.4203 171.6 37.0203 160.8C30.6203 149.867 27.4203 137.6 27.4203 124C27.4203 110.4 30.6203 98.2 37.0203 87.4C43.4203 76.4667 52.287 67.9333 63.6203 61.8C74.9536 55.5333 87.6203 52.4 101.62 52.4C112.554 52.4 122.554 54.2667 131.62 58C140.687 61.6 148.42 67 154.82 74.2L141.82 86.8C131.287 75.7333 118.154 70.2 102.42 70.2C92.0203 70.2 82.6203 72.5333 74.2203 77.2C65.8203 81.8667 59.2203 88.3333 54.4203 96.6C49.7536 104.733 47.4203 113.867 47.4203 124C47.4203 134.133 49.7536 143.333 54.4203 151.6C59.2203 159.733 65.8203 166.133 74.2203 170.8C82.6203 175.467 92.0203 177.8 102.42 177.8C118.02 177.8 131.154 172.2 141.82 161L154.82 173.6C148.42 180.8 140.62 186.267 131.42 190C122.354 193.733 112.354 195.6 101.42 195.6ZM221.459 195.2C210.926 195.2 201.459 192.867 193.059 188.2C184.659 183.533 178.059 177.133 173.259 169C168.593 160.733 166.259 151.4 166.259 141C166.259 130.6 168.593 121.333 173.259 113.2C178.059 104.933 184.659 98.5333 193.059 94C201.459 89.3333 210.926 87 221.459 87C231.993 87 241.393 89.3333 249.659 94C258.059 98.5333 264.593 104.933 269.259 113.2C274.059 121.333 276.459 130.6 276.459 141C276.459 151.4 274.059 160.733 269.259 169C264.593 177.133 258.059 183.533 249.659 188.2C241.393 192.867 231.993 195.2 221.459 195.2ZM221.459 178.4C228.259 178.4 234.326 176.867 239.659 173.8C245.126 170.6 249.393 166.2 252.459 160.6C255.526 154.867 257.059 148.333 257.059 141C257.059 133.667 255.526 127.2 252.459 121.6C249.393 115.867 245.126 111.467 239.659 108.4C234.326 105.333 228.259 103.8 221.459 103.8C214.659 103.8 208.526 105.333 203.059 108.4C197.726 111.467 193.459 115.867 190.259 121.6C187.193 127.2 185.659 133.667 185.659 141C185.659 148.333 187.193 154.867 190.259 160.6C193.459 166.2 197.726 170.6 203.059 173.8C208.526 176.867 214.659 178.4 221.459 178.4ZM403.013 45.6V194H384.613V177.2C380.346 183.067 374.946 187.533 368.413 190.6C361.879 193.667 354.679 195.2 346.813 195.2C336.546 195.2 327.346 192.933 319.213 188.4C311.079 183.867 304.679 177.533 300.013 169.4C295.479 161.133 293.213 151.667 293.213 141C293.213 130.333 295.479 120.933 300.013 112.8C304.679 104.667 311.079 98.3333 319.213 93.8C327.346 89.2667 336.546 87 346.813 87C354.413 87 361.413 88.4667 367.813 91.4C374.213 94.2 379.546 98.4 383.813 104V45.6H403.013ZM348.413 178.4C355.079 178.4 361.146 176.867 366.613 173.8C372.079 170.6 376.346 166.2 379.413 160.6C382.479 154.867 384.013 148.333 384.013 141C384.013 133.667 382.479 127.2 379.413 121.6C376.346 115.867 372.079 111.467 366.613 108.4C361.146 105.333 355.079 103.8 348.413 103.8C341.613 103.8 335.479 105.333 330.013 108.4C324.679 111.467 320.413 115.867 317.213 121.6C314.146 127.2 312.613 133.667 312.613 141C312.613 148.333 314.146 154.867 317.213 160.6C320.413 166.2 324.679 170.6 330.013 173.8C335.479 176.867 341.613 178.4 348.413 178.4ZM439.341 88H458.541V194H439.341V88ZM448.941 67.6C445.207 67.6 442.074 66.4 439.541 64C437.141 61.6 435.941 58.6667 435.941 55.2C435.941 51.7333 437.141 48.8 439.541 46.4C442.074 43.8667 445.207 42.6 448.941 42.6C452.674 42.6 455.741 43.8 458.141 46.2C460.674 48.4667 461.941 51.3333 461.941 54.8C461.941 58.4 460.674 61.4667 458.141 64C455.741 66.4 452.674 67.6 448.941 67.6ZM534 60.2C522.533 60.2 516.8 66.4 516.8 78.8V88H547.6V103.8H517.2V194H498V103.8H480V88H498V78.6C498 68.0667 501.067 59.7333 507.2 53.6C513.333 47.4667 521.933 44.4 533 44.4C537.267 44.4 541.267 44.9333 545 46C548.733 47.0667 551.933 48.6 554.6 50.6L548.8 65.2C544.4 61.8667 539.467 60.2 534 60.2ZM661.461 88L610.061 204.6C605.528 215.4 600.194 223 594.061 227.4C588.061 231.8 580.794 234 572.261 234C567.061 234 561.994 233.133 557.061 231.4C552.261 229.8 548.261 227.4 545.061 224.2L553.261 209.8C558.728 215 565.061 217.6 572.261 217.6C576.928 217.6 580.794 216.333 583.861 213.8C587.061 211.4 589.928 207.2 592.461 201.2L595.861 193.8L549.061 88H569.061L606.061 172.8L642.661 88H661.461Z" fill="black"/>
<path d="M572.778 159.695C578.038 160.461 581.238 163.29 581.388 167.264C581.538 171.238 574.998 186.188 574.998 186.188C582.238 192.395 587.198 196.501 590.728 198.876C593.518 200.769 601.098 209.417 600.878 211.177C600.658 212.937 597.588 209.36 595.618 207.524C593.648 205.689 589.828 205.348 585.558 203.371C581.288 201.393 567.158 194.704 565.318 192.291C563.478 189.878 572.778 159.695 572.778 159.695Z" fill="#FFA8A7"/>
<path d="M572.288 159.6C573.852 159.661 575.39 160.005 576.818 160.613C577.979 161.104 579.006 161.839 579.822 162.762C580.638 163.685 581.222 164.772 581.528 165.94C581.908 168.125 580.998 171.768 579.388 175.733C578.188 178.574 576.83 181.354 575.318 184.059L572.318 181.76L572.288 159.6Z" fill="#37474F"/>
<path d="M606.218 270.55C606.218 270.55 607.568 279.245 610.218 282.471C612.648 285.386 614.388 289.095 617.218 292.132C617.848 292.794 619.218 294.024 619.778 294.554C619.9 294.658 619.996 294.786 620.059 294.93C620.122 295.073 620.151 295.228 620.142 295.384C620.133 295.539 620.088 295.69 620.009 295.827C619.931 295.963 619.821 296.081 619.688 296.172C618.458 297.326 613.158 297.686 610.138 295.623C607.118 293.561 604.138 289.596 602.318 287.921C601.418 287.089 600.568 286.294 599.948 285.698C599.652 285.422 599.437 285.078 599.324 284.7C599.212 284.321 599.206 283.922 599.308 283.541C599.358 283.323 599.428 283.068 599.498 282.765C599.878 281.128 597.498 274.514 597.498 274.514L606.218 270.55Z" fill="#FFA8A7"/>
<path d="M599.818 287.458C599.815 287.991 599.913 288.519 600.108 289.019C600.862 289.883 601.826 290.562 602.918 290.997C604.3 291.615 605.399 292.688 606.008 294.015C607.132 296.12 608.975 297.804 611.238 298.793C614.222 299.938 617.504 300.198 620.648 299.541C624.568 298.803 624.838 296.598 624.838 296.598C624.838 296.598 625.008 294.535 624.018 294.233C623.028 293.93 599.818 287.458 599.818 287.458Z" fill="#263238"/>
<path d="M598.808 278.384C599.148 280.147 599.236 281.945 599.068 283.73C598.988 284.809 598.958 286.512 599.818 287.458C601.008 288.953 603.498 289.398 605.128 291.441C606.758 293.485 609.128 297.194 614.318 298.065C619.508 298.935 623.318 297.317 624.318 295.917C625.318 294.516 624.318 293.22 621.008 291.593C617.478 289.871 612.758 284.629 612.758 284.629C611.352 283.066 610.227 281.295 609.428 279.387L608.168 275.602C607.898 274.864 602.348 276.454 601.758 277.495L602.428 280.844L600.998 277.674C600.205 277.676 599.435 277.925 598.808 278.384Z" fill="#455A64"/>
<path d="M610.958 296.967C611.001 295.84 611.368 294.746 612.02 293.802C612.672 292.858 613.584 292.101 614.658 291.612C618.498 289.663 620.888 290.826 622.088 291.612C623.518 292.558 625.588 294.526 624.388 296.002C623.188 297.478 620.988 298.396 617.028 298.509C614.878 298.669 612.735 298.124 610.958 296.967Z" fill="#FAFAFA"/>
<path d="M605.408 285.689C605.477 285.686 605.545 285.668 605.605 285.637C605.666 285.606 605.718 285.562 605.758 285.509C606.188 284.922 608.968 282.67 611.708 283.361C611.838 283.068 611.608 282.765 611.038 282.415C609.899 282.421 608.775 282.657 607.74 283.107C606.705 283.558 605.784 284.212 605.038 285.026C605.005 285.07 604.982 285.119 604.97 285.171C604.958 285.224 604.958 285.278 604.969 285.33C604.98 285.383 605.003 285.432 605.036 285.476C605.068 285.52 605.11 285.557 605.158 285.585C605.228 285.642 605.316 285.679 605.408 285.689Z" fill="#FAFAFA"/>
<path d="M613.308 285.263C613.259 285.067 613.162 284.886 613.025 284.733C612.888 284.58 612.714 284.46 612.518 284.383C611.436 284.444 610.377 284.709 609.404 285.16C608.431 285.612 607.562 286.242 606.848 287.013C606.817 287.058 606.795 287.108 606.785 287.16C606.775 287.212 606.776 287.266 606.788 287.318C606.8 287.371 606.823 287.42 606.856 287.463C606.888 287.507 606.93 287.543 606.978 287.571C607.06 287.616 607.153 287.639 607.248 287.638C607.317 287.635 607.384 287.618 607.445 287.586C607.506 287.555 607.558 287.511 607.598 287.458C608.008 286.881 610.648 284.742 613.308 285.263Z" fill="#FAFAFA"/>
<path d="M610.478 281.592C610.521 281.492 610.541 281.384 610.536 281.275C610.53 281.167 610.5 281.062 610.446 280.966C610.393 280.87 610.318 280.787 610.226 280.722C610.135 280.656 610.03 280.611 609.918 280.589C606.788 279.945 603.738 282.33 603.178 283.106C603.145 283.149 603.123 283.198 603.112 283.25C603.101 283.302 603.101 283.356 603.114 283.407C603.126 283.459 603.15 283.508 603.183 283.55C603.216 283.593 603.259 283.628 603.308 283.654C603.382 283.707 603.475 283.731 603.568 283.721C603.637 283.72 603.706 283.704 603.767 283.672C603.828 283.641 603.88 283.596 603.918 283.541C604.378 282.907 607.558 280.39 610.478 281.592Z" fill="#FAFAFA"/>
<path d="M617.678 289.369C617.406 288.891 616.968 288.517 616.438 288.31C615.313 288.329 614.206 288.572 613.188 289.024C612.169 289.475 611.263 290.125 610.528 290.931C610.495 290.975 610.473 291.024 610.462 291.077C610.45 291.13 610.451 291.184 610.463 291.237C610.475 291.289 610.499 291.339 610.533 291.382C610.566 291.425 610.609 291.462 610.658 291.489C610.736 291.534 610.826 291.557 610.918 291.555C610.988 291.551 611.055 291.531 611.116 291.499C611.177 291.466 611.229 291.42 611.268 291.366C611.728 290.751 614.798 288.31 617.678 289.369Z" fill="#FAFAFA"/>
<path d="M609.088 289.596C609.156 289.59 609.222 289.571 609.282 289.54C609.342 289.509 609.395 289.467 609.438 289.416C609.858 288.83 612.578 286.654 615.288 287.25C615.223 287.034 615.104 286.836 614.943 286.671C614.781 286.507 614.581 286.381 614.358 286.303C613.276 286.364 612.217 286.628 611.244 287.079C610.27 287.531 609.401 288.161 608.688 288.934C608.655 288.978 608.633 289.028 608.622 289.081C608.611 289.133 608.611 289.188 608.623 289.24C608.636 289.293 608.659 289.342 608.693 289.385C608.726 289.429 608.769 289.465 608.818 289.492C608.895 289.551 608.989 289.588 609.088 289.596Z" fill="#FAFAFA"/>
<path d="M546.268 201.336C545.268 206.815 544.918 209.909 546.958 215.444C548.998 220.979 555.758 225.445 563.958 229.769C570.718 233.355 580.688 238.521 582.708 239.335C584.728 240.149 584.958 241.284 584.708 244.899C584.458 248.513 585.918 254.408 590.298 261.731C594.928 269.48 597.958 275.697 597.958 275.697C600.785 274.158 603.869 273.089 607.078 272.537C607.078 272.537 598.608 236.667 596.818 231.974C595.028 227.281 575.978 212.331 575.978 212.331C575.978 212.331 577.848 204.818 579.228 199.349L546.268 201.336Z" fill="#37474F"/>
<path d="M625.298 260.993C625.298 260.993 627.778 268.241 629.758 271.628C631.702 275.086 634.05 278.327 636.758 281.289C637.388 281.951 638.808 283.181 639.318 283.711C639.44 283.815 639.536 283.943 639.599 284.087C639.662 284.23 639.69 284.385 639.682 284.54C639.673 284.696 639.628 284.847 639.549 284.983C639.471 285.12 639.361 285.238 639.228 285.329C637.998 286.483 632.698 286.843 629.678 284.78C626.658 282.718 623.678 278.753 621.858 277.088L619.558 274.864C619.263 274.586 619.049 274.24 618.937 273.86C618.825 273.481 618.818 273.08 618.918 272.697C618.978 272.48 619.038 272.224 619.108 271.922C619.488 270.294 617.108 263.671 617.108 263.671L625.298 260.993Z" fill="#FFA8A7"/>
<path d="M565.778 190.484C564.778 195.962 564.428 199.056 566.468 204.591C568.508 210.126 573.248 218.907 581.418 223.24C588.188 226.827 598.418 230.479 600.418 231.321C601.968 231.974 602.488 233.563 603.148 237.528C603.748 241.114 605.578 245.022 609.958 252.355C614.558 260.142 617.478 264.873 617.478 264.873C620.019 263.265 622.93 262.256 625.968 261.93C625.968 261.93 616.258 227.659 614.478 222.966C612.698 218.273 599.758 211.375 594.208 208.348C588.658 205.32 585.558 203.437 579.208 199.378L565.778 190.484Z" fill="#37474F"/>
<path d="M619.258 276.567C619.259 277.097 619.361 277.623 619.558 278.119C620.309 278.988 621.274 279.67 622.368 280.106C623.752 280.719 624.849 281.794 625.448 283.124C626.584 285.213 628.429 286.88 630.688 287.855C633.672 289.001 636.954 289.262 640.098 288.603C644.018 287.865 644.288 285.67 644.288 285.67C644.288 285.67 644.448 283.598 643.468 283.295C642.488 282.992 619.258 276.567 619.258 276.567Z" fill="#263238"/>
<path d="M618.238 267.493C618.58 269.256 618.671 271.054 618.508 272.839C618.418 273.918 618.398 275.621 619.258 276.567C620.438 278.062 622.938 278.516 624.558 280.56C626.178 282.604 628.558 286.303 633.748 287.183C638.938 288.063 642.748 286.436 643.748 285.036C644.748 283.635 643.748 282.339 640.448 280.721C636.908 278.999 632.188 273.748 632.188 273.748C630.791 272.182 629.666 270.416 628.858 268.515L627.858 264.948C627.578 264.21 621.938 265.582 621.348 266.632L622.038 269.887L620.488 266.831L618.238 267.493Z" fill="#455A64"/>
<path d="M630.398 286.077C630.44 284.95 630.808 283.855 631.46 282.911C632.112 281.967 633.024 281.21 634.098 280.721C637.938 278.772 640.318 279.936 641.518 280.721C642.958 281.667 645.018 283.635 643.818 285.121C642.618 286.606 640.418 287.505 636.468 287.628C634.317 287.782 632.175 287.234 630.398 286.077Z" fill="#FAFAFA"/>
<path d="M624.848 274.789C624.917 274.786 624.985 274.768 625.045 274.737C625.106 274.706 625.158 274.662 625.198 274.609C625.618 274.022 628.398 271.77 631.138 272.47C631.278 272.168 631.038 271.865 630.478 271.524C629.339 271.53 628.215 271.766 627.18 272.217C626.145 272.667 625.224 273.321 624.478 274.136C624.446 274.18 624.423 274.23 624.412 274.282C624.401 274.335 624.401 274.389 624.413 274.442C624.426 274.494 624.449 274.544 624.483 274.587C624.516 274.631 624.559 274.667 624.608 274.694C624.673 274.752 624.759 274.785 624.848 274.789Z" fill="#FAFAFA"/>
<path d="M632.748 274.382C632.699 274.185 632.602 274.002 632.465 273.848C632.328 273.693 632.154 273.571 631.958 273.492C630.876 273.553 629.817 273.817 628.843 274.268C627.87 274.72 627.001 275.35 626.288 276.123C626.245 276.186 626.222 276.259 626.221 276.334C626.219 276.409 626.24 276.483 626.28 276.548C626.321 276.613 626.379 276.665 626.45 276.701C626.52 276.736 626.599 276.752 626.678 276.747C626.747 276.747 626.816 276.73 626.877 276.699C626.938 276.668 626.99 276.622 627.028 276.567C627.448 276 630.088 273.89 632.748 274.382Z" fill="#FAFAFA"/>
<path d="M629.908 270.701C629.952 270.602 629.972 270.494 629.967 270.387C629.962 270.279 629.932 270.174 629.88 270.078C629.828 269.983 629.754 269.899 629.664 269.833C629.573 269.768 629.469 269.722 629.358 269.698C626.218 269.055 623.168 271.439 622.608 272.215C622.577 272.259 622.556 272.309 622.545 272.362C622.535 272.414 622.536 272.468 622.548 272.52C622.56 272.572 622.583 272.621 622.616 272.665C622.649 272.708 622.69 272.745 622.738 272.773C622.82 272.818 622.913 272.841 623.008 272.839C623.077 272.835 623.143 272.816 623.204 272.785C623.264 272.754 623.317 272.711 623.358 272.66C623.818 272.026 626.988 269.499 629.908 270.701Z" fill="#FAFAFA"/>
<path d="M637.108 278.479C636.842 277.997 636.402 277.621 635.868 277.419C634.747 277.439 633.642 277.68 632.624 278.126C631.607 278.572 630.699 279.214 629.958 280.011C629.927 280.056 629.906 280.106 629.895 280.158C629.885 280.211 629.886 280.265 629.898 280.317C629.91 280.369 629.933 280.418 629.966 280.462C629.999 280.505 630.04 280.542 630.088 280.57C630.17 280.615 630.264 280.638 630.358 280.636C630.427 280.631 630.493 280.613 630.554 280.582C630.614 280.551 630.667 280.508 630.708 280.456C631.158 279.86 634.228 277.419 637.108 278.479Z" fill="#FAFAFA"/>
<path d="M628.558 278.706C628.627 278.703 628.695 278.686 628.755 278.655C628.816 278.623 628.868 278.579 628.908 278.526C629.338 277.939 632.058 275.763 634.768 276.359C634.699 276.144 634.578 275.946 634.415 275.782C634.252 275.618 634.051 275.492 633.828 275.413C632.747 275.473 631.69 275.737 630.718 276.189C629.746 276.64 628.879 277.271 628.168 278.043C628.135 278.087 628.112 278.136 628.1 278.189C628.088 278.241 628.088 278.295 628.099 278.347C628.11 278.4 628.133 278.449 628.165 278.493C628.198 278.537 628.24 278.574 628.288 278.602C628.366 278.659 628.46 278.695 628.558 278.706Z" fill="#FAFAFA"/>
<path d="M580.078 207.43C578.837 209.154 577.467 210.792 575.978 212.331L577.138 213.277C578.542 211.546 579.544 209.553 580.078 207.43Z" fill="#37474F"/>
<path d="M558.198 160.064C555.904 160.17 553.627 160.487 551.398 161.01C551.398 161.01 555.458 165.561 552.848 173.641C550.998 179.319 549.518 179.612 546.048 180.7C548.438 190.417 545.858 203.635 545.858 203.635C545.858 203.635 552.488 208.698 566.618 207.486C579.028 206.417 579.228 199.33 579.228 199.33L574.898 194.732L575.498 185.79C575.498 185.79 580.098 182.715 579.858 175.657C579.578 167.52 572.618 159.572 572.618 159.572C571.168 159.374 569.7 159.32 568.238 159.411L558.198 160.064Z" fill="#FAFAFA"/>
<path d="M576.278 204.317C569.868 205.367 560.718 204.08 557.548 200.986C554.378 197.892 552.638 190.578 554.108 186.292C555.578 182.006 555.308 173.992 554.378 169.261L553.828 169.081C553.66 170.66 553.325 172.22 552.828 173.736C550.978 179.413 549.498 179.707 546.028 180.795C548.208 190.257 545.838 203.73 545.838 203.73C545.838 203.73 552.468 208.792 566.598 207.581C570.598 207.231 573.988 206.2 576.258 204.355L576.278 204.317Z" fill="#F0F0F0"/>
<path d="M570.048 125.206C565.518 124.519 560.885 125.563 557.168 128.107C553.451 130.652 550.955 134.489 550.228 138.775C549.928 140.549 550.001 142.361 550.442 144.108C550.883 145.855 551.684 147.503 552.798 148.957C553.913 150.411 555.319 151.644 556.937 152.583C558.555 153.523 560.353 154.152 562.228 154.434L567.878 155.286C575.758 156.487 581.418 149.154 583.378 141.84C585.638 133.287 579.488 126.635 570.048 125.206Z" fill="#263238"/>
<path d="M540.098 159.6C543.143 159.59 546.059 158.438 548.208 156.396C550.356 154.355 551.561 151.591 551.558 148.71V134.668C550.047 134.668 548.551 134.95 547.155 135.497C545.759 136.045 544.491 136.847 543.423 137.859C542.355 138.87 541.508 140.071 540.931 141.392C540.353 142.713 540.057 144.129 540.058 145.559L540.098 159.6Z" fill="#263238"/>
<path d="M562.878 141.49L559.738 138.585C559.859 138.249 560.066 137.945 560.339 137.701C560.613 137.457 560.945 137.28 561.308 137.185L564.458 140.241C564.311 140.549 564.093 140.821 563.819 141.037C563.546 141.254 563.224 141.408 562.878 141.49Z" fill="#6672DF"/>
<path d="M579.248 135.596C580.878 136.883 582.488 139.958 580.748 148.927C579.268 156.497 576.328 158.02 574.928 158.389C573.528 158.758 571.048 158.02 568.648 157.263L568.068 160.414C568.068 160.414 571.068 167.567 569.978 171.049C569.308 173.093 564.718 170.008 561.888 167.482C559.872 165.456 558.229 163.125 557.028 160.584L558.888 150.016C558.888 150.016 557.208 151.132 555.098 148.719C553.358 146.742 553.158 143.809 554.988 142.531C555.457 142.231 555.995 142.041 556.557 141.976C557.119 141.911 557.689 141.974 558.22 142.158C558.752 142.343 559.229 142.645 559.613 143.039C559.997 143.433 560.276 143.907 560.428 144.424C560.428 144.424 560.948 140.544 567.118 139.522C571.718 138.746 576.858 139.134 579.248 135.596Z" fill="#FFA8A7"/>
<path d="M563.308 140.923C562.568 141.462 562.028 144.111 561.748 145.805C561.681 146.196 561.461 146.549 561.131 146.793C560.8 147.037 560.385 147.154 559.968 147.12L560.428 144.433C560.428 144.433 560.448 140.128 563.308 140.923Z" fill="#263238"/>
<path d="M583.688 142.928H583.198C581.54 142.796 579.87 142.927 578.258 143.316C576.658 143.846 576.058 144.376 575.188 144.423C574.318 144.471 573.708 143.988 572.068 143.619C570.319 143.391 568.544 143.429 566.808 143.733L566.278 143.808C566.093 143.874 565.932 143.989 565.817 144.141C565.701 144.292 565.635 144.473 565.628 144.66C565.664 145.01 565.814 145.341 566.058 145.606C566.134 145.718 566.185 145.844 566.208 145.975C566.274 146.856 566.421 147.73 566.648 148.587C566.784 148.934 566.988 149.255 567.248 149.533C567.348 149.627 567.458 149.713 567.568 149.798L567.758 149.911C567.939 150.009 568.13 150.088 568.328 150.148H568.428H568.588H568.748L569.258 150.195H569.758C570.533 150.208 571.297 150.014 571.962 149.636C572.627 149.258 573.166 148.711 573.518 148.057C574.128 147.035 574.098 145.625 575.098 145.578H575.278C575.998 145.701 575.808 147.006 576.208 147.915C576.354 148.265 576.568 148.585 576.838 148.861L576.988 149.012L577.078 149.088L577.168 149.154L577.248 149.211L577.338 149.258L577.408 149.306C577.668 149.438 577.948 149.534 578.238 149.589H578.318C578.665 149.64 579.017 149.656 579.368 149.637C580.044 149.632 580.705 149.443 581.271 149.092C581.836 148.742 582.283 148.244 582.558 147.659C582.903 146.788 583.177 145.893 583.378 144.982C583.423 144.853 583.494 144.734 583.588 144.632C583.855 144.351 584.038 144.008 584.118 143.638C584.228 143.326 583.958 142.947 583.688 142.928ZM573.028 147.167C572.872 147.707 572.576 148.201 572.168 148.605C571.525 149.21 570.655 149.55 569.748 149.552C569.326 149.598 568.9 149.534 568.514 149.367C568.128 149.2 567.797 148.937 567.558 148.605L567.498 148.511L567.438 148.416C567.438 148.416 567.438 148.35 567.388 148.322C567.393 148.297 567.393 148.271 567.388 148.246V148.18V148.123C567.384 148.088 567.384 148.053 567.388 148.019C567.349 147.927 567.319 147.832 567.298 147.735C567.298 147.678 567.298 147.621 567.248 147.565C567.198 147.508 567.248 147.366 567.198 147.281V147.177C567.088 146.486 566.998 145.124 567.388 144.792C568.284 144.267 569.342 144.047 570.388 144.168H570.558C570.803 144.179 571.047 144.204 571.288 144.244L571.568 144.3C571.805 144.347 572.039 144.407 572.268 144.48L572.478 144.556L572.708 144.65H572.758H572.838C573.019 144.726 573.177 144.843 573.298 144.991C573.488 145.724 573.392 146.496 573.028 147.167ZM582.438 146.42C582.342 146.895 582.142 147.345 581.851 147.743C581.56 148.141 581.184 148.476 580.748 148.728C580.372 148.909 579.959 149.012 579.538 149.031C579.094 149.106 578.637 149.056 578.224 148.888C577.81 148.72 577.457 148.441 577.208 148.085C577.206 148.063 577.206 148.041 577.208 148.019V147.953C577.187 147.917 577.17 147.878 577.158 147.839L577.098 147.716C577.094 147.697 577.094 147.678 577.098 147.659C577.098 147.659 577.098 147.659 577.098 147.603C577.045 147.436 577.008 147.265 576.988 147.092C576.815 146.382 576.888 145.639 577.198 144.972C577.959 144.34 578.903 143.938 579.908 143.818C580.178 143.77 580.428 143.742 580.658 143.723H581.508H581.868H581.958H582.018H582.108H582.208C582.268 143.732 582.326 143.751 582.378 143.78C582.518 143.829 582.647 143.903 582.758 143.998C582.948 144.329 582.648 145.71 582.438 146.42Z" fill="#37474F"/>
<path d="M566.048 143.875L558.048 142.077C558.53 142.221 558.974 142.458 559.353 142.774C559.732 143.091 560.037 143.478 560.248 143.913L565.808 145.18L566.048 143.875Z" fill="#37474F"/>
<path d="M571.388 146.145C571.381 146.277 571.345 146.405 571.283 146.523C571.22 146.64 571.133 146.744 571.025 146.828C570.918 146.912 570.793 146.973 570.66 147.009C570.526 147.045 570.385 147.053 570.248 147.035C570.035 147.02 569.831 146.945 569.663 146.82C569.495 146.695 569.371 146.525 569.306 146.332C569.241 146.14 569.239 145.933 569.299 145.739C569.359 145.545 569.48 145.373 569.645 145.244C569.81 145.115 570.011 145.036 570.224 145.017C570.437 144.998 570.651 145.04 570.839 145.137C571.026 145.234 571.179 145.382 571.277 145.561C571.374 145.741 571.413 145.945 571.388 146.145Z" fill="#263238"/>
<path d="M570.798 152.277L573.528 153.583C573.446 153.754 573.329 153.907 573.184 154.035C573.038 154.162 572.868 154.261 572.681 154.326C572.495 154.39 572.297 154.418 572.099 154.409C571.901 154.4 571.707 154.354 571.528 154.273C571.155 154.096 570.87 153.788 570.734 153.415C570.598 153.043 570.62 152.634 570.798 152.277Z" fill="#F28F8F"/>
<path d="M580.858 142.276L578.268 141.585C578.386 141.284 578.62 141.037 578.922 140.892C579.224 140.747 579.573 140.715 579.899 140.802C580.225 140.889 580.505 141.088 580.683 141.361C580.86 141.635 580.923 141.961 580.858 142.276Z" fill="#263238"/>
<path d="M570.988 141.926L568.418 142.664C568.315 142.341 568.351 141.993 568.519 141.696C568.687 141.399 568.972 141.177 569.313 141.079C569.654 140.981 570.022 141.015 570.336 141.174C570.65 141.333 570.885 141.603 570.988 141.926Z" fill="#263238"/>
<path d="M579.558 146.146C579.551 146.276 579.515 146.404 579.454 146.521C579.392 146.637 579.305 146.741 579.199 146.824C579.093 146.908 578.97 146.97 578.837 147.006C578.704 147.042 578.565 147.052 578.428 147.035C578.214 147.022 578.01 146.949 577.84 146.825C577.671 146.701 577.545 146.531 577.479 146.339C577.412 146.146 577.408 145.939 577.468 145.744C577.527 145.549 577.647 145.376 577.812 145.246C577.976 145.117 578.178 145.037 578.391 145.017C578.605 144.997 578.819 145.038 579.007 145.135C579.195 145.232 579.348 145.38 579.447 145.56C579.545 145.741 579.584 145.944 579.558 146.146Z" fill="#263238"/>
<path d="M575.048 145.654L574.758 151.633L578.048 150.791L575.258 145.654H575.048Z" fill="#F28F8F"/>
<path d="M568.648 157.235C566.108 156.516 561.018 154.254 560.528 152.135C560.685 153.199 561.188 154.191 561.968 154.973C563.338 156.506 568.388 158.758 568.388 158.758L568.648 157.235Z" fill="#F28F8F"/>
<path d="M557.558 220.979V221.66C557.551 221.998 557.64 222.332 557.816 222.627C557.992 222.921 558.248 223.166 558.558 223.335L578.068 233.961C578.372 234.127 578.717 234.216 579.068 234.216C579.419 234.216 579.764 234.127 580.068 233.961L615.858 214.413C616.164 214.24 616.417 213.994 616.593 213.701C616.768 213.407 616.86 213.075 616.858 212.738V212.265L579.028 232.929L557.558 220.979Z" fill="#EBEBEB"/>
<path d="M616.908 212.265L595.688 200.674C595.503 200.572 595.292 200.518 595.078 200.518C594.864 200.518 594.653 200.572 594.468 200.674L557.658 220.79C557.616 220.812 557.582 220.844 557.558 220.883C557.534 220.922 557.521 220.967 557.521 221.012C557.521 221.057 557.534 221.102 557.558 221.141C557.582 221.18 557.616 221.212 557.658 221.234L579.078 232.929L616.908 212.265Z" fill="#FAFAFA"/>
<path d="M585.558 203.371C587.308 204.005 587.238 204.487 588.658 205.263C589.941 206.075 591.467 206.474 593.008 206.399C593.792 207.099 594.624 207.75 595.498 208.348C597.368 209.559 599.238 210.486 601.498 209.795C604.018 209.048 602.238 206.692 601.498 205.528C600.758 204.364 596.698 200.967 595.908 200.277C595.118 199.586 591.668 199.103 588.658 198.205L585.558 203.371Z" fill="#FFA8A7"/>
<path d="M578.878 231.226L567.438 224.981L600.898 206.701L612.408 212.918L578.878 231.226Z" fill="#E0E0E0"/>
<path d="M573.258 213.854L573.468 213.968L579.078 217.034L589.058 211.583L589.258 211.47L583.438 208.291L573.258 213.854Z" fill="#E0E0E0"/>
<path d="M573.468 213.968L579.078 217.033L589.058 211.583L583.438 208.518L573.468 213.968Z" fill="#E6E6E6"/>
<path d="M579.078 232.929V234.216C579.429 234.216 579.774 234.127 580.078 233.961L615.868 214.413C616.174 214.24 616.428 213.994 616.603 213.701C616.778 213.407 616.87 213.075 616.868 212.738V212.265L579.078 232.929Z" fill="#EBEBEB"/>
<g style="mix-blend-mode:multiply" opacity="0.5">
<g style="mix-blend-mode:multiply" opacity="0.5">
<path d="M579.078 232.929V234.216C579.429 234.216 579.774 234.127 580.078 233.961L615.868 214.413C616.174 214.24 616.428 213.994 616.603 213.701C616.778 213.407 616.87 213.075 616.868 212.738V212.265L579.078 232.929Z" fill="#E0E0E0"/>
</g>
</g>
<path d="M579.658 233.213C579.994 233.341 580.356 233.394 580.717 233.368C581.078 233.342 581.427 233.237 581.738 233.062L617.368 213.599C617.678 213.431 617.944 213.201 618.148 212.925C618.352 212.648 618.489 212.332 618.548 212L622.448 189.992C622.458 189.865 622.458 189.739 622.448 189.613C622.449 189.31 622.386 189.01 622.262 188.73C622.138 188.451 621.957 188.198 621.728 187.986L584.728 208.215C584.5 208.339 584.304 208.51 584.154 208.714C584.003 208.919 583.902 209.152 583.858 209.398L579.658 233.213Z" fill="#EBEBEB"/>
<path d="M579.078 232.929L579.318 233.062C579.426 233.122 579.54 233.173 579.658 233.213L583.868 209.398C583.912 209.152 584.013 208.919 584.164 208.715C584.314 208.51 584.51 208.34 584.738 208.215L621.738 187.986C621.591 187.843 621.423 187.722 621.238 187.626L584.138 207.893C583.911 208.019 583.716 208.19 583.566 208.395C583.416 208.599 583.314 208.831 583.268 209.076L579.078 232.929Z" fill="#FAFAFA"/>
<path d="M599.718 212.899C600.274 211.058 601.561 209.492 603.308 208.527C605.038 207.581 606.218 208.016 605.958 209.474C605.401 211.314 604.115 212.88 602.368 213.845C600.648 214.801 599.458 214.375 599.718 212.899Z" fill="#6672DF"/>
<path d="M559.398 212.88C555.178 210.855 540.028 205.31 535.468 202.954C532.288 201.317 530.608 200.258 531.078 197.476C531.508 194.883 538.728 172.979 541.228 168.05C543.418 163.726 546.768 162.287 551.778 161.199C555.248 164.984 552.778 176.338 549.348 180.492C546.858 185.592 542.428 194.921 542.428 194.921C542.428 194.921 550.278 199.964 556.538 203.598C559.602 205.396 562.844 206.907 566.218 208.111C568.218 208.792 571.858 210.524 572.508 211.347C573.945 213.547 575.238 215.828 576.378 218.178C576.878 219.456 578.158 222.077 575.538 222.379C573.148 222.654 571.488 221.433 569.888 219.891C569.147 219.153 568.459 218.369 567.828 217.544C565.958 217.408 564.178 216.731 562.728 215.605C561.478 214.602 559.398 212.88 559.398 212.88Z" fill="#FFA8A7"/>
<path d="M552.248 160.792C552.248 160.792 546.748 161.285 543.588 164.322C540.428 167.359 540.298 169.166 538.738 173.046C537.178 176.925 534.008 186.387 534.008 186.387C535.348 188.092 537.176 189.4 539.275 190.156C541.374 190.912 543.658 191.085 545.858 190.654L550.038 181.116C552.136 178.296 553.528 175.06 554.108 171.655C555.078 166.025 554.658 162.761 552.248 160.792Z" fill="#37474F"/>
</svg>
