<svg width="1297" height="1107" viewBox="0 0 1297 1107" fill="none" xmlns="http://www.w3.org/2000/svg">
<path d="M321.08 880.799C502.212 975.43 795.898 975.43 977.052 880.799C1158.21 786.168 1158.18 632.753 977.052 538.122C795.92 443.491 502.213 443.469 321.059 538.122C139.905 632.774 139.926 786.168 321.08 880.799Z" fill="#FAFAFA"/>
<path d="M800.633 898.181C837.254 898.181 866.942 884.03 866.942 866.573C866.942 849.116 837.254 834.964 800.633 834.964C764.012 834.964 734.325 849.116 734.325 866.573C734.325 884.03 764.012 898.181 800.633 898.181Z" fill="#F0F0F0"/>
<path d="M282.121 319.976V428.725C282.121 432.292 284.629 433.762 287.742 431.968L540.22 286.184C541.854 285.116 543.214 283.679 544.19 281.989C545.167 280.299 545.732 278.404 545.841 276.455V167.62C545.841 164.053 543.312 162.582 540.22 164.377L287.742 310.161C286.093 311.233 284.723 312.682 283.746 314.389C282.768 316.096 282.211 318.011 282.121 319.976Z" fill="#F0F0F0"/>
<path d="M299.698 318.268L375.368 274.595C378.848 272.585 381.637 274.206 381.637 278.206V354.244C381.519 356.412 380.889 358.522 379.799 360.401C378.71 362.279 377.191 363.874 375.368 365.054L299.698 408.748C296.238 410.737 293.428 409.115 293.428 405.115V329.121C293.545 326.946 294.174 324.83 295.263 322.944C296.353 321.058 297.872 319.456 299.698 318.268Z" fill="#FAFAFA"/>
<path d="M360.969 312.539L338.462 359.194L327.004 352.579C325.903 351.977 324.613 351.825 323.403 352.156C322.193 352.487 321.159 353.274 320.518 354.352L293.428 401.072V405.159C293.428 409.158 296.238 410.78 299.698 408.791L375.368 365.097C377.187 363.913 378.703 362.318 379.792 360.44C380.882 358.562 381.514 356.454 381.637 354.287V327.543L366.503 311.674C366.165 311.201 365.703 310.832 365.167 310.607C364.631 310.382 364.043 310.31 363.469 310.4C362.895 310.49 362.357 310.737 361.916 311.115C361.474 311.492 361.146 311.985 360.969 312.539Z" fill="#6672DF"/>
<path d="M304.8 346.093C309.475 343.044 313.366 338.935 316.157 334.101C318.948 329.266 320.561 323.842 320.864 318.268C320.864 313.577 319.35 310.182 316.864 308.366L299.698 318.268C297.878 319.452 296.362 321.047 295.273 322.925C294.184 324.803 293.552 326.911 293.428 329.078V347.174C296.39 348.904 300.368 348.644 304.8 346.093Z" fill="#6672DF"/>
<path d="M409.873 261.775L523.573 196.115C526.167 194.623 528.265 195.683 528.265 198.493C528.15 200.068 527.666 201.594 526.851 202.946C526.035 204.299 524.912 205.44 523.573 206.276L409.873 271.915C407.279 273.406 405.182 272.347 405.182 269.536C405.299 267.965 405.785 266.444 406.6 265.095C407.416 263.747 408.537 262.609 409.873 261.775Z" fill="#FAFAFA"/>
<path d="M409.873 284.238L523.573 218.578C526.167 217.087 528.265 218.146 528.265 220.957C528.15 222.532 527.666 224.057 526.851 225.41C526.035 226.762 524.912 227.903 523.573 228.74L409.873 294.378C407.279 295.87 405.182 294.81 405.182 292.021C405.296 290.446 405.781 288.921 406.596 287.568C407.411 286.216 408.534 285.075 409.873 284.238Z" fill="#FAFAFA"/>
<path d="M409.873 306.701L523.573 241.063C526.167 239.571 528.265 240.631 528.265 243.42C528.15 244.995 527.666 246.521 526.851 247.873C526.035 249.225 524.912 250.366 523.573 251.203L409.873 316.841C407.279 318.355 405.182 317.295 405.182 314.485C405.296 312.91 405.781 311.384 406.596 310.031C407.411 308.679 408.534 307.538 409.873 306.701Z" fill="#FAFAFA"/>
<path d="M409.873 329.165L523.573 263.526C526.167 262.035 528.265 263.094 528.265 265.905C528.147 267.476 527.661 268.997 526.846 270.346C526.031 271.694 524.91 272.832 523.573 273.666L409.873 339.434C407.279 340.926 405.182 339.867 405.182 337.056C405.279 335.462 405.756 333.915 406.572 332.542C407.388 331.17 408.52 330.012 409.873 329.165Z" fill="#FAFAFA"/>
<path d="M229.368 662.134V502.557C229.472 500.607 230.035 498.709 231.012 497.018C231.989 495.328 233.352 493.892 234.989 492.828L425.937 382.566C429.029 380.771 431.558 382.22 431.558 385.809V545.386C431.449 547.335 430.884 549.231 429.907 550.921C428.931 552.61 427.571 554.047 425.937 555.115L234.989 665.377C231.876 667.171 229.368 665.723 229.368 662.134Z" fill="#F0F0F0"/>
<path d="M229.368 654.156V662.134C229.368 665.723 231.876 667.172 234.989 665.377L425.937 555.115C427.571 554.047 428.931 552.611 429.907 550.921C430.884 549.231 431.449 547.335 431.558 545.386V537.387L229.368 654.156Z" fill="#6672DF"/>
<path d="M321.75 509.432L341.208 508.416C343.586 508.286 344.235 509.627 342.657 511.443L320.302 536.868C318.723 538.662 317.448 538.165 317.448 535.787V513.994C317.456 512.831 317.904 511.714 318.703 510.868C319.501 510.021 320.589 509.508 321.75 509.432Z" fill="#6672DF"/>
<path d="M316.734 550.813C314.402 550.843 312.104 550.254 310.075 549.105C305.276 546.316 302.638 540.457 302.638 532.803C302.638 517.194 313.643 498.211 327.177 490.32C333.857 486.45 340.149 485.866 344.992 488.634C349.834 491.401 352.45 497.282 352.45 504.913C352.45 520.545 341.424 539.505 327.912 547.397C324.548 549.492 320.694 550.67 316.734 550.813ZM338.354 488.396C334.659 488.542 331.066 489.652 327.933 491.617C314.81 499.184 304.151 517.669 304.151 532.803C304.151 539.981 306.53 545.321 310.854 547.808C315.178 550.294 320.972 549.71 327.177 546.121C340.3 538.533 350.959 520.177 350.959 504.913C350.959 497.736 348.58 492.417 344.256 489.909C342.447 488.897 340.405 488.375 338.333 488.396H338.354Z" fill="#6672DF"/>
<path d="M239.897 354.266L228.071 347.477C222.428 343.693 214.58 343.845 205.91 348.861C188.614 358.806 174.734 384.036 174.734 405.224V410.045C174.734 431.233 203.229 454.236 203.229 454.236L214.861 460.83C214.861 460.83 207.878 452.853 208.678 451.21C216.396 435.557 237.043 391.322 237.043 374.026V369.205C237.087 365.716 236.643 362.237 235.724 358.871L237.043 359.627L239.897 354.266ZM205.889 402.846C197.241 407.818 190.301 403.775 190.301 393.852C194.927 393.117 206.58 373.226 205.889 366.848C214.537 361.876 221.455 365.919 221.477 375.842C221.184 381.252 219.619 386.516 216.911 391.208C214.203 395.899 210.426 399.887 205.889 402.846Z" fill="#6672DF"/>
<g opacity="0.2">
<path opacity="0.2" d="M239.897 354.266L228.071 347.477C222.428 343.693 214.58 343.845 205.91 348.861C188.614 358.806 174.734 384.036 174.734 405.224V410.045C174.734 431.233 203.229 454.236 203.229 454.236L214.861 460.83C214.861 460.83 207.878 452.853 208.678 451.21C216.396 435.557 237.043 391.322 237.043 374.026V369.205C237.087 365.716 236.643 362.237 235.724 358.871L237.043 359.627L239.897 354.266ZM205.889 402.846C197.241 407.818 190.301 403.775 190.301 393.852C194.927 393.117 206.58 373.226 205.889 366.848C214.537 361.876 221.455 365.919 221.477 375.842C221.184 381.252 219.619 386.516 216.911 391.208C214.203 395.899 210.426 399.887 205.889 402.846Z" fill="black"/>
</g>
<path d="M239.897 354.266C239.768 354.174 239.63 354.094 239.486 354.028C233.93 350.915 226.514 351.347 218.342 356.06C206.018 363.195 195.36 378.134 190.236 393.852C188.254 399.832 187.204 406.081 187.122 412.38V417.266C187.122 433.589 205.607 452.529 214.104 460.377C214.288 460.541 214.483 460.693 214.688 460.831C215.187 461.137 215.746 461.335 216.326 461.412C216.907 461.489 217.498 461.444 218.06 461.279C218.622 461.114 219.143 460.833 219.59 460.454C220.037 460.075 220.4 459.607 220.655 459.079C228.006 443.945 249.388 398.803 249.388 381.247V376.426C249.518 365.53 245.821 357.833 239.897 354.266ZM203.035 404.165C202.855 403.137 202.768 402.095 202.775 401.051C203.061 395.64 204.619 390.372 207.324 385.676C210.029 380.98 213.804 376.989 218.342 374.026C219.248 373.504 220.195 373.056 221.174 372.686C228.438 370.048 233.93 374.221 233.93 383.02C233.638 388.427 232.075 393.689 229.366 398.377C226.657 403.066 222.88 407.049 218.342 410.002C210.71 414.456 204.353 411.775 203.035 404.165Z" fill="#6672DF"/>
<path d="M233.93 383.042C233.639 388.449 232.075 393.71 229.366 398.399C226.658 403.088 222.88 407.07 218.342 410.023C210.71 414.347 204.354 411.775 203.035 404.164C204.026 403.816 204.981 403.374 205.889 402.846C210.424 399.885 214.197 395.898 216.901 391.206C219.606 386.514 221.166 381.25 221.455 375.842C221.465 374.791 221.371 373.741 221.174 372.707C228.438 370.07 233.93 374.242 233.93 383.042Z" fill="#6672DF"/>
<g opacity="0.2">
<path opacity="0.2" d="M233.93 383.042C233.639 388.449 232.075 393.71 229.366 398.399C226.658 403.088 222.88 407.07 218.342 410.023C210.71 414.347 204.354 411.775 203.035 404.164C204.026 403.816 204.981 403.374 205.889 402.846C210.424 399.885 214.197 395.898 216.901 391.206C219.606 386.514 221.166 381.25 221.455 375.842C221.465 374.791 221.371 373.741 221.174 372.707C228.438 370.07 233.93 374.242 233.93 383.042Z" fill="black"/>
</g>
<path d="M461.091 651.475C461.091 651.475 468.896 601.749 451.557 558.985C434.218 516.221 410.846 513.583 398.739 519.658C386.632 525.733 394.415 549.451 405.225 565.385C419.624 586.291 443.406 631.304 442.628 671.733L461.091 651.475Z" fill="#6672DF"/>
<path opacity="0.2" d="M461.091 651.475C461.091 651.475 468.896 601.749 451.557 558.985C434.218 516.221 410.846 513.583 398.739 519.658C386.632 525.733 394.415 549.451 405.225 565.385C419.624 586.291 443.406 631.304 442.628 671.733L461.091 651.475Z" fill="black"/>
<path d="M453.308 654.632C453.114 654.626 452.923 654.582 452.746 654.501C452.57 654.421 452.411 654.305 452.28 654.162C452.149 654.019 452.048 653.851 451.983 653.668C451.918 653.485 451.891 653.291 451.903 653.097C454.757 585.015 420.748 534.187 406.068 524.285C405.908 524.177 405.77 524.039 405.663 523.878C405.556 523.716 405.482 523.536 405.445 523.346C405.408 523.157 405.409 522.961 405.447 522.772C405.485 522.582 405.56 522.402 405.668 522.242C405.776 522.081 405.915 521.944 406.076 521.837C406.237 521.73 406.417 521.656 406.607 521.619C406.797 521.582 406.992 521.582 407.181 521.62C407.371 521.659 407.551 521.734 407.711 521.842C425.007 533.387 457.697 585.361 454.821 653.227C454.816 653.419 454.772 653.608 454.693 653.783C454.613 653.958 454.5 654.115 454.359 654.246C454.218 654.377 454.053 654.479 453.872 654.545C453.692 654.611 453.5 654.641 453.308 654.632Z" fill="white"/>
<path d="M458.021 710.52C455.059 703.082 447.406 694.78 427.753 685.916C408.101 677.052 393.312 665.226 390.588 656.664C389.769 654.299 389.661 651.746 390.28 649.32C390.899 646.895 392.217 644.705 394.069 643.022C394.069 643.022 375.541 640.86 373.206 629.509C370.287 615.197 386.481 614.267 386.481 614.267C386.481 614.267 365.228 584.345 359.585 571.027C353.942 557.709 360.45 556.91 374.157 561.99C387.864 567.071 413.981 592.647 418.024 600.452C418.024 600.452 425.094 591.804 432.704 597.49C440.314 603.176 440.682 620.191 436.185 626.331C439.218 625.766 442.349 626.093 445.2 627.271C448.051 628.449 450.499 630.428 452.249 632.969C459.989 643.108 462.54 668.469 462.54 668.469L458.021 710.52Z" fill="#6672DF"/>
<path d="M459.405 703.601C459.076 703.597 458.758 703.485 458.5 703.281C458.242 703.078 458.059 702.795 457.978 702.477C447.471 658.697 397.593 588.821 366.612 566.595C366.454 566.483 366.32 566.341 366.218 566.177C366.115 566.013 366.045 565.831 366.013 565.64C365.981 565.449 365.987 565.254 366.03 565.066C366.074 564.877 366.154 564.699 366.266 564.541C366.378 564.384 366.52 564.25 366.684 564.147C366.848 564.045 367.03 563.975 367.221 563.943C367.412 563.911 367.607 563.917 367.795 563.96C367.984 564.003 368.162 564.083 368.32 564.195C399.69 586.702 450.195 657.464 460.853 701.785C460.938 702.166 460.87 702.565 460.664 702.897C460.458 703.228 460.13 703.466 459.751 703.558L459.405 703.601Z" fill="white"/>
<path d="M850.748 262.748C850.491 262.745 850.238 262.678 850.013 262.553L843.938 259.029C843.77 258.933 843.623 258.804 843.506 258.651C843.388 258.498 843.301 258.323 843.251 258.136C843.201 257.949 843.188 257.754 843.213 257.563C843.238 257.371 843.301 257.186 843.397 257.019C843.494 256.851 843.622 256.704 843.776 256.586C843.929 256.469 844.104 256.382 844.291 256.332C844.477 256.282 844.672 256.269 844.864 256.294C845.056 256.319 845.24 256.382 845.408 256.478L851.483 260.002C851.651 260.099 851.798 260.227 851.916 260.38C852.034 260.534 852.12 260.709 852.171 260.895C852.221 261.082 852.234 261.277 852.209 261.469C852.183 261.661 852.12 261.845 852.024 262.013C851.894 262.237 851.708 262.422 851.484 262.552C851.261 262.681 851.007 262.748 850.748 262.748Z" fill="white"/>
<path d="M458.021 390.933V712.595C458.021 716.184 460.529 717.633 463.621 715.838L838.814 499.228C840.448 498.16 841.808 496.723 842.784 495.033C843.761 493.343 844.326 491.447 844.435 489.499V167.836C844.435 164.247 841.906 162.799 838.814 164.593L463.621 381.204C461.988 382.272 460.631 383.709 459.658 385.399C458.685 387.089 458.124 388.985 458.021 390.933Z" fill="#455A64"/>
<path d="M501.931 450.345C501.931 461.565 510.298 465.803 520.654 459.836L818.081 288.108V247.549L520.654 419.255C510.298 425.244 501.931 439.146 501.931 450.345Z" fill="#F5F5F5"/>
<path d="M843.376 232.999C853.71 227.032 862.099 231.269 862.099 242.468C862.099 253.668 853.71 267.591 843.376 273.558L818.189 288.108V247.549L843.376 232.999Z" fill="#6672DF"/>
<path d="M834.296 267.18C833.219 267.195 832.158 266.919 831.226 266.38C830.077 265.611 829.157 264.547 828.564 263.298C827.97 262.05 827.724 260.665 827.853 259.289C828.008 255.905 828.973 252.607 830.666 249.673C832.358 246.739 834.73 244.254 837.582 242.425C838.671 241.537 840.004 241.002 841.404 240.89C842.805 240.778 844.206 241.095 845.422 241.799C846.638 242.504 847.61 243.561 848.21 244.832C848.81 246.102 849.009 247.525 848.781 248.911C848.62 252.294 847.653 255.589 845.961 258.522C844.269 261.456 841.9 263.942 839.052 265.775C837.617 266.652 835.977 267.136 834.296 267.18ZM842.317 243.938C841.157 243.996 840.032 244.353 839.052 244.976C836.664 246.563 834.676 248.68 833.243 251.163C831.81 253.646 830.972 256.427 830.793 259.289C830.57 260.15 830.636 261.06 830.98 261.88C831.324 262.7 831.927 263.385 832.698 263.829C833.469 264.273 834.363 264.453 835.246 264.339C836.128 264.226 836.949 263.826 837.582 263.202C839.972 261.618 841.962 259.501 843.395 257.017C844.828 254.534 845.665 251.751 845.841 248.889C845.951 248.032 845.834 247.161 845.5 246.364C845.166 245.566 844.627 244.871 843.938 244.349C843.445 244.067 842.884 243.925 842.317 243.938Z" fill="white"/>
<path d="M847.7 321.77L560.154 487.682C558.514 488.744 557.149 490.179 556.172 491.87C555.195 493.561 554.633 495.461 554.532 497.411V585.902C554.532 589.491 557.04 590.939 560.154 589.145L847.7 423.168C849.337 422.104 850.7 420.668 851.677 418.978C852.654 417.287 853.217 415.389 853.321 413.439V325.013C853.213 321.424 850.705 319.976 847.7 321.77Z" fill="#6672DF"/>
<path opacity="0.2" d="M847.7 321.77L560.154 487.682C558.514 488.744 557.149 490.179 556.172 491.87C555.195 493.561 554.633 495.461 554.532 497.411V585.902C554.532 589.491 557.04 590.939 560.154 589.145L847.7 423.168C849.337 422.104 850.7 420.668 851.677 418.978C852.654 417.287 853.217 415.389 853.321 413.439V325.013C853.213 321.424 850.705 319.976 847.7 321.77Z" fill="white"/>
<path d="M664.686 442.086L716.791 411.991C719.385 410.499 721.482 411.559 721.482 414.369C721.365 415.94 720.879 417.462 720.064 418.81C719.249 420.159 718.127 421.296 716.791 422.131L664.686 452.226C662.092 453.718 659.995 452.658 659.995 449.848C660.112 448.276 660.598 446.755 661.413 445.406C662.229 444.058 663.35 442.92 664.686 442.086Z" fill="white"/>
<path d="M659.995 470.127C659.995 472.937 662.157 473.997 664.686 472.505L822.188 381.571C823.522 380.731 824.64 379.589 825.451 378.237C826.263 376.885 826.745 375.361 826.858 373.788C826.858 370.999 824.696 369.94 822.188 371.431L664.686 462.365C663.35 463.2 662.229 464.337 661.413 465.686C660.598 467.034 660.112 468.555 659.995 470.127Z" fill="white"/>
<path d="M659.995 490.407C659.995 493.217 662.157 494.277 664.686 492.785L822.188 401.851C823.522 401.011 824.64 399.869 825.451 398.517C826.263 397.164 826.745 395.641 826.858 394.068C826.858 391.279 824.696 390.219 822.188 391.711L664.686 482.645C663.35 483.479 662.229 484.617 661.413 485.965C660.598 487.314 660.112 488.835 659.995 490.407Z" fill="white"/>
<path d="M659.995 510.686C659.995 513.496 662.157 514.556 664.686 513.064L822.188 422.13C823.522 421.29 824.64 420.148 825.451 418.796C826.263 417.444 826.745 415.92 826.858 414.347C826.858 411.558 824.696 410.499 822.188 411.991L664.686 502.924C663.35 503.759 662.229 504.896 661.413 506.245C660.598 507.593 660.112 509.115 659.995 510.686Z" fill="white"/>
<path d="M569.018 492.742L636.818 453.588C639.932 451.815 642.44 453.264 642.44 456.831V524.999C642.334 526.948 641.77 528.845 640.793 530.536C639.816 532.226 638.455 533.663 636.818 534.728L569.018 573.86C565.927 575.654 563.397 574.206 563.397 570.639V502.471C563.501 500.521 564.064 498.623 565.041 496.932C566.018 495.241 567.381 493.806 569.018 492.742Z" fill="white"/>
<path d="M623.933 487.618L603.761 529.431L593.492 523.507C592.5 522.934 591.321 522.779 590.214 523.075C589.108 523.371 588.164 524.094 587.59 525.085L563.397 566.963V570.617C563.397 574.206 565.927 575.654 569.018 573.86L636.818 534.728C638.456 533.664 639.819 532.228 640.796 530.537C641.772 528.846 642.336 526.948 642.44 524.999V501.065L628.797 486.839C628.488 486.442 628.078 486.135 627.61 485.95C627.141 485.766 626.632 485.71 626.135 485.79C625.638 485.869 625.171 486.081 624.784 486.402C624.397 486.724 624.103 487.144 623.933 487.618Z" fill="#6672DF"/>
<path d="M573.58 517.691C577.772 514.956 581.26 511.272 583.762 506.937C586.263 502.603 587.708 497.739 587.979 492.742C588.123 491.082 587.873 489.413 587.249 487.869C586.625 486.324 585.646 484.949 584.39 483.856L569.018 492.742C567.381 493.805 566.018 495.241 565.041 496.932C564.064 498.623 563.501 500.521 563.397 502.471V518.686C566.013 520.199 569.602 519.983 573.58 517.691Z" fill="#6672DF"/>
<path d="M847.7 453.588L560.154 619.5C558.516 620.563 557.154 621.999 556.177 623.69C555.2 625.381 554.636 627.279 554.532 629.229V717.784C554.532 721.351 557.04 722.8 560.154 721.027L847.7 555.007C849.337 553.943 850.7 552.507 851.677 550.817C852.654 549.126 853.217 547.228 853.321 545.278V456.831C853.213 453.263 850.705 451.858 847.7 453.588Z" fill="#6672DF"/>
<path opacity="0.2" d="M847.7 453.588L560.154 619.5C558.516 620.563 557.154 621.999 556.177 623.69C555.2 625.381 554.636 627.279 554.532 629.229V717.784C554.532 721.351 557.04 722.8 560.154 721.027L847.7 555.007C849.337 553.943 850.7 552.507 851.677 550.817C852.654 549.126 853.217 547.228 853.321 545.278V456.831C853.213 453.263 850.705 451.858 847.7 453.588Z" fill="white"/>
<path d="M664.686 573.903L716.791 543.829C719.385 542.338 721.482 543.397 721.482 546.186C721.368 547.761 720.884 549.287 720.068 550.639C719.253 551.992 718.13 553.133 716.791 553.969L664.686 584.043C662.092 585.534 659.995 584.475 659.995 581.686C660.109 580.111 660.593 578.585 661.409 577.233C662.224 575.88 663.347 574.739 664.686 573.903Z" fill="white"/>
<path d="M659.995 601.966C659.995 604.755 662.157 605.814 664.686 604.322L822.188 513.389C823.52 512.55 824.636 511.412 825.447 510.063C826.258 508.715 826.741 507.196 826.858 505.627C826.858 502.816 824.696 501.757 822.188 503.249L664.686 594.182C663.347 595.019 662.224 596.16 661.409 597.512C660.593 598.865 660.109 600.391 659.995 601.966Z" fill="white"/>
<path d="M659.995 622.245C659.995 625.034 662.157 626.094 664.686 624.602L822.188 533.668C823.52 532.83 824.636 531.691 825.447 530.343C826.258 528.995 826.741 527.475 826.858 525.906C826.858 523.096 824.696 522.036 822.188 523.528L664.686 614.462C663.347 615.298 662.224 616.439 661.409 617.792C660.593 619.144 660.109 620.67 659.995 622.245Z" fill="white"/>
<path d="M659.995 642.525C659.995 645.314 662.157 646.373 664.686 644.882L822.188 553.948C823.52 553.11 824.636 551.971 825.447 550.623C826.258 549.275 826.741 547.755 826.858 546.186C826.858 543.376 824.696 542.316 822.188 543.808L664.686 634.742C663.347 635.578 662.224 636.719 661.409 638.072C660.593 639.424 660.109 640.95 659.995 642.525Z" fill="white"/>
<path d="M569.018 624.58L636.818 585.426C639.932 583.632 642.44 585.08 642.44 588.669V656.816C642.339 658.766 641.777 660.665 640.8 662.357C639.823 664.048 638.458 665.483 636.818 666.545L569.018 705.698C565.927 707.493 563.397 706.044 563.397 702.455V634.309C563.501 632.359 564.064 630.462 565.041 628.771C566.018 627.08 567.381 625.644 569.018 624.58Z" fill="white"/>
<path d="M623.933 619.456L603.761 661.269L593.492 655.324C592.999 655.041 592.456 654.859 591.893 654.786C591.33 654.714 590.758 654.753 590.21 654.901C589.661 655.05 589.148 655.305 588.698 655.652C588.249 655.999 587.872 656.431 587.59 656.924L563.397 698.802V702.456C563.397 706.044 565.927 707.493 569.018 705.699L636.818 666.545C638.455 665.485 639.818 664.054 640.795 662.366C641.772 660.679 642.336 658.784 642.44 656.837V632.882L628.797 618.678C628.492 618.274 628.083 617.961 627.613 617.772C627.144 617.582 626.631 617.525 626.131 617.605C625.631 617.685 625.163 617.899 624.775 618.226C624.388 618.552 624.097 618.977 623.933 619.456Z" fill="#6672DF"/>
<path d="M573.58 649.508C577.771 646.778 581.26 643.098 583.761 638.767C586.263 634.435 587.708 629.575 587.979 624.58C588.123 622.921 587.873 621.251 587.249 619.707C586.625 618.163 585.646 616.788 584.39 615.694L569.018 624.58C567.381 625.644 566.018 627.08 565.041 628.771C564.064 630.461 563.501 632.359 563.397 634.309V650.524C566.013 652.016 569.602 651.8 573.58 649.508Z" fill="#6672DF"/>
<path d="M844.435 181.608V167.836C844.435 164.247 841.906 162.799 838.814 164.593L463.642 381.204C462.005 382.268 460.642 383.704 459.665 385.394C458.688 387.085 458.125 388.983 458.021 390.933V404.726L844.435 181.608Z" fill="#6672DF"/>
<path d="M798.406 193.196C797.197 193.991 796.191 195.058 795.47 196.312C794.749 197.567 794.333 198.973 794.255 200.418C794.255 203.077 796.115 204.158 798.406 202.817C799.623 202.034 800.636 200.973 801.361 199.721C802.087 198.469 802.504 197.063 802.579 195.618C802.579 192.959 800.72 191.878 798.406 193.196Z" fill="#F5F5F5"/>
<path d="M814.946 183.77C813.732 184.562 812.722 185.628 811.997 186.883C811.272 188.137 810.853 189.545 810.773 190.991C810.773 193.65 812.654 194.71 814.946 193.391C816.163 192.603 817.175 191.538 817.901 190.283C818.626 189.027 819.043 187.618 819.118 186.17C819.118 183.403 817.259 182.343 814.946 183.77Z" fill="#F5F5F5"/>
<path d="M831.485 174.128C830.268 174.911 829.255 175.972 828.53 177.224C827.804 178.476 827.387 179.882 827.312 181.327C827.312 183.986 829.172 185.067 831.485 183.748C832.694 182.954 833.7 181.887 834.421 180.633C835.142 179.378 835.558 177.972 835.636 176.527C835.636 173.868 833.777 172.787 831.485 174.128Z" fill="#F5F5F5"/>
<path d="M850.424 852.303C851.078 853.965 851.528 855.7 851.765 857.471C852.374 859.302 852.515 861.257 852.175 863.157C850.719 865.583 848.404 867.373 845.689 868.173C843.758 868.617 841.755 868.655 839.808 868.282C837.861 867.91 836.013 867.136 834.382 866.011C830.426 863.654 827.464 860.778 821.843 859.2C817.834 858.337 814.058 856.618 810.773 854.163C807.66 851.676 803.509 844.758 809.454 843.158C815.4 841.558 828.35 847.201 840.133 847.72L850.424 852.303Z" fill="#263238"/>
<path d="M849.862 844.52C849.862 844.52 850.554 852.779 850.554 853.795C850.554 856.584 840.263 860.281 838.36 853.795L836.717 845.018L849.862 844.52Z" fill="#F28F8F"/>
<path d="M837.236 663.323C840.774 668.526 844.015 673.925 846.943 679.495C846.943 679.495 847.959 691.515 847.959 699.515C847.959 714.216 845.689 725.567 843.635 754.538C846.979 760.237 848.893 766.661 849.213 773.261C850.078 786.384 850.1 786.233 850.186 846.769C848.216 847.831 846.054 848.49 843.827 848.705C841.599 848.92 839.351 848.688 837.214 848.023L817.756 763.251L815.594 729.978L809.497 688.618L837.236 663.323Z" fill="#37474F"/>
<path d="M791.185 867.459C791.877 868.172 791.639 869.621 791.964 871.999C792.323 873.828 792.418 875.7 792.245 877.556C791.11 880.126 789.06 882.184 786.494 883.328C784.628 884.001 782.643 884.281 780.664 884.151C778.685 884.021 776.754 883.483 774.992 882.571C770.798 880.712 767.49 878.247 761.717 877.361C757.632 877.009 753.671 875.778 750.107 873.75C746.713 871.588 741.719 865.319 747.426 862.94C753.134 860.562 767.447 864.821 779.186 863.87L791.185 867.459Z" fill="#263238"/>
<path d="M793.888 857.081C793.888 857.081 791.726 866.508 791.142 868.605C789.845 873.642 778.667 873.902 778.667 868.086L779.424 854.682L793.888 857.081Z" fill="#F28F8F"/>
<path d="M812.005 665.896C817.605 676.901 823.01 686.608 823.183 698.326C823.594 723.124 813.303 750.43 809.519 768.353C810.646 774.84 810.966 781.441 810.47 788.006C809.714 795.508 792.612 863.676 792.612 863.676C792.612 863.676 783.1 865.665 779.057 861.362L783.856 730.107L785.153 691.991L812.005 665.896Z" fill="#37474F"/>
<path d="M804.309 598.679L807.833 618.202L825.475 616.905L821.778 594.788L804.309 598.679Z" fill="#FFA8A7"/>
<path d="M844.089 615.478C842.338 610.181 835.614 604.409 828.955 605.663C818.954 607.363 809.095 609.82 799.466 613.013C793.304 615.175 787.683 620.559 787.164 640.838L785.24 691.861C787.904 694.23 791.101 695.921 794.558 696.791C803.92 699.364 810.103 700.899 824.329 697.785C842.857 693.742 847.268 682.522 847.268 682.522C847.268 682.522 846.554 655.518 845.992 640.838C845.538 628.364 845.279 619.132 844.089 615.478Z" fill="#455A64"/>
<path d="M796.785 573.751L706.954 549.386C698.825 547.98 695.43 567.828 703.559 569.211L795.812 578.529L796.785 573.751Z" fill="#263238"/>
<path d="M770.949 614.916L752.594 615.478C752.594 615.478 755.361 588.172 757.069 584.583C758.777 580.994 762.863 580.259 766.928 579.113C770.992 577.967 770.971 576.021 770.971 576.021L767.317 575.654C764.117 575.33 762.842 571.33 764.225 568.627C764.895 567.373 765.976 565.384 767.922 565.925L772.765 567.244C772.84 565.107 772.308 562.993 771.23 561.147C769.609 559.352 768.528 559.915 765.285 558.79C762.885 557.947 757.977 556.455 754.021 558.077C750.064 559.698 747.059 567.136 746.043 572.389C745.015 578.464 743.348 584.414 741.07 590.139C737.546 599.868 732.422 619.845 731.882 627.845C731.644 631.542 731.99 633.747 736.098 634.72C740.205 635.693 770.43 635.758 770.43 635.758L770.949 614.916Z" fill="#FFA8A7"/>
<path d="M791.25 575.568C791.25 575.568 786.926 581.881 787.531 582.572C788.508 583.224 789.591 583.699 790.731 583.978L791.25 575.568Z" fill="#FFA8A7"/>
<path d="M804.287 555.634C800.179 557.796 793.088 561.536 791.12 576.584C789.11 592.02 791.769 596.993 793.845 599.047C795.272 600.43 802.925 600.517 806.817 599.349C811.616 597.923 822.448 593.793 827.399 585.859C833.215 576.519 834.512 564.022 827.961 559.05C824.628 556.521 820.706 554.881 816.565 554.284C812.424 553.686 808.199 554.151 804.287 555.634Z" fill="#FFA8A7"/>
<path d="M816.373 741.933L825.734 715.47C832.991 712.898 839.492 708.559 844.651 702.844C844.651 702.844 842.489 710.39 827.701 718.13L817.432 743.166V757.089L816.373 741.933Z" fill="#263238"/>
<path d="M790.277 560.715C791.618 564.412 793.888 573.492 803.357 577.276C803.357 577.276 804.719 571.503 809.562 572.108C814.405 572.714 815.248 578.919 812.265 582.767C809.281 586.615 806.384 585.232 806.384 585.232C806.384 585.232 805.736 593.512 811.27 597.274C813.331 598.489 815.645 599.209 818.031 599.378C820.417 599.547 822.81 599.16 825.021 598.247C828.199 596.798 832.717 589.166 835.355 582.897C840.933 569.665 841.733 559.115 833.193 555.699C832.134 549.688 829.431 547.418 823.983 546.294C812.265 543.894 803.401 551.591 793.563 550.229C788.526 549.515 788.721 556.477 790.277 560.715Z" fill="#263238"/>
<path d="M833.474 557.796L839.009 554.358C838.526 553.684 837.806 553.219 836.993 553.056C836.18 552.894 835.335 553.047 834.631 553.485C833.927 553.922 833.415 554.611 833.2 555.412C832.986 556.212 833.083 557.065 833.474 557.796Z" fill="#263238"/>
<path d="M766.841 614.548C766.841 614.548 792.677 613.057 799.271 613.013C805.865 612.97 812.87 624.234 808.762 631.909C806.038 636.947 797.542 638.676 786.84 639.195C776.138 639.714 765.349 639.714 765.349 639.714C765.349 639.714 755.728 628.753 766.841 614.548Z" fill="#455A64"/>
<path d="M787.164 639.195C787.164 639.195 803.53 638.979 808.892 631.909C808.892 631.909 807.638 636.233 801.282 638.892C796.727 640.643 791.928 641.679 787.056 641.962L787.164 639.195Z" fill="#37474F"/>
<path d="M706.954 549.386C698.825 547.98 695.43 567.827 703.559 569.211L716.531 570.508C711.256 569.968 714.91 551.526 718.931 552.607L706.954 549.386Z" fill="#455A64"/>
<path d="M1034.11 544.089C1034.11 548.113 1032.9 552.045 1030.63 555.371C1028.37 558.697 1025.15 561.262 1021.4 562.733C1017.66 564.203 1013.55 564.51 1009.63 563.614C1005.71 562.718 1002.14 560.661 999.408 557.709L998.089 556.11C995.012 552.006 993.627 546.877 994.221 541.782C994.814 536.687 997.341 532.015 1001.28 528.728C1005.22 525.442 1010.27 523.792 1015.39 524.12C1020.5 524.448 1025.3 526.728 1028.79 530.49L1030.15 532.133C1032.72 535.59 1034.11 539.782 1034.11 544.089Z" fill="#455A64"/>
<path d="M1034.11 544.089C1034.11 548.113 1032.9 552.045 1030.63 555.371C1028.37 558.697 1025.15 561.262 1021.4 562.733C1017.66 564.203 1013.55 564.51 1009.63 563.614C1005.71 562.718 1002.14 560.66 999.408 557.709L998.089 556.109L914.722 455.425L949.855 435.146L1028.79 530.447L1030.15 532.09C1032.73 535.559 1034.12 539.767 1034.11 544.089Z" fill="#455A64"/>
<path d="M965.14 516.307C968.641 519.979 973.406 522.185 978.471 522.479C983.536 522.772 988.524 521.132 992.426 517.889C996.328 514.646 998.853 510.042 999.491 505.009C1000.13 499.975 998.832 494.888 995.862 490.774L985.549 478.342C988.632 482.448 990.019 487.581 989.424 492.681C988.83 497.78 986.299 502.456 982.354 505.743C978.41 509.029 973.354 510.675 968.231 510.339C963.108 510.004 958.309 507.713 954.827 503.94L965.14 516.307Z" fill="#6672DF"/>
<path d="M948.514 276.866C954.808 277.566 960.892 279.545 966.394 282.681L941.034 267.937C924.019 256.24 899.523 256.932 872.304 272.628C820.913 302.312 779.229 374.502 779.229 433.87C779.229 463.035 789.153 483.877 805.519 493.779L805.865 493.995L832.934 509.583C828.134 506.46 823.949 502.481 820.589 497.844C827.258 498.574 834.002 498.186 840.544 496.698C842.922 496.179 845.322 495.552 847.765 494.774C847.445 494.677 847.134 494.554 846.835 494.406C845.534 493.797 844.29 493.073 843.117 492.244C840.989 490.761 839.094 488.968 837.495 486.926C835.31 484.128 833.534 481.035 832.22 477.737C830.459 477.992 828.681 478.122 826.902 478.126C822.694 478.21 818.518 477.377 814.665 475.683C813.764 475.271 812.89 474.801 812.049 474.278C811.292 473.802 810.535 473.24 809.887 472.678C808.323 465.36 807.562 457.893 807.617 450.409C807.617 391.062 849.3 318.852 900.734 289.167C907.301 285.337 914.259 282.22 921.489 279.871C923.438 280.667 925.27 281.721 926.937 283.006C928.703 284.36 930.294 285.929 931.672 287.676C933.865 290.48 935.648 293.581 936.969 296.886C938.738 296.638 940.523 296.515 942.309 296.518C947.198 296.387 952.033 297.558 956.319 299.913C957.404 300.504 958.438 301.183 959.411 301.945C959.022 300.215 958.611 298.507 958.113 296.886C956.161 289.683 952.907 282.898 948.514 276.866Z" fill="#263238"/>
<path d="M966.394 282.682L964.924 281.882C959.813 279.205 954.248 277.504 948.514 276.866C942.361 276.18 936.137 276.464 930.072 277.709C927.15 278.263 924.263 278.985 921.424 279.871C914.194 282.22 907.236 285.337 900.669 289.168C849.235 318.852 807.552 391.063 807.552 450.409C807.497 457.893 808.258 465.36 809.822 472.678C810.103 473.997 810.427 475.251 810.751 476.505C812.678 484.157 816.022 491.38 820.61 497.8C822.659 500.626 825.016 503.215 827.637 505.519C829.308 506.988 831.086 508.333 832.955 509.54C849.927 520.501 874.033 519.55 900.626 504.157C952.06 474.473 993.743 402.283 993.743 342.915C993.721 313.231 983.279 292.367 966.394 282.682ZM956.232 299.978C957.317 300.569 958.351 301.248 959.324 302.01C960.954 303.334 962.44 304.827 963.756 306.464C970.242 314.593 973.68 327.24 973.68 342.98C973.68 394.868 935.628 460.852 890.594 486.861C879.244 493.347 868.325 496.892 859.05 496.892C855.181 496.938 851.343 496.203 847.765 494.73C847.445 494.634 847.134 494.511 846.835 494.363C845.534 493.754 844.29 493.03 843.117 492.201C841.658 491.177 840.31 490.003 839.095 488.698C838.555 488.136 838.036 487.509 837.517 486.882C835.332 484.085 833.555 480.991 832.242 477.694C828.948 468.969 827.377 459.689 827.615 450.366C827.615 449.674 827.615 449.004 827.615 448.204C828.566 396.532 866.207 332.04 910.657 306.399C911.674 305.815 912.711 305.231 913.749 304.691C920.917 300.687 928.745 297.999 936.861 296.756C938.63 296.508 940.415 296.386 942.201 296.389C946.048 296.355 949.863 297.09 953.422 298.551C954.397 298.938 955.337 299.408 956.232 299.956V299.978Z" fill="#455A64"/>
<path opacity="0.6" d="M964.989 336.969C964.989 388.857 926.938 454.842 881.903 480.85C870.553 487.336 859.656 490.882 850.36 490.882C846.498 490.928 842.666 490.192 839.096 488.72C838.555 488.158 838.036 487.531 837.517 486.904C835.332 484.107 833.556 481.013 832.242 477.716C828.949 468.991 827.377 459.711 827.615 450.388C827.615 449.696 827.615 449.026 827.615 448.226C828.567 396.554 866.207 332.062 910.658 306.42C911.674 305.837 912.712 305.253 913.749 304.712C920.917 300.708 928.745 298.021 936.861 296.778C938.63 296.53 940.415 296.407 942.201 296.41C946.048 296.377 949.863 297.112 953.422 298.572C954.006 299.156 954.546 299.783 955.065 300.41C961.551 308.582 964.989 321.23 964.989 336.969Z" fill="white"/>
<path d="M76.1727 1081.6C70.9727 1081.6 65.9727 1080.77 61.1727 1079.1C56.4393 1077.43 52.7727 1075.23 50.1727 1072.5L53.0727 1066.8C55.606 1069.33 58.9727 1071.4 63.1727 1073C67.3727 1074.53 71.706 1075.3 76.1727 1075.3C82.4393 1075.3 87.1393 1074.17 90.2727 1071.9C93.406 1069.57 94.9727 1066.57 94.9727 1062.9C94.9727 1060.1 94.106 1057.87 92.3727 1056.2C90.706 1054.53 88.6393 1053.27 86.1727 1052.4C83.706 1051.47 80.2727 1050.47 75.8727 1049.4C70.606 1048.07 66.406 1046.8 63.2727 1045.6C60.1393 1044.33 57.4393 1042.43 55.1727 1039.9C52.9727 1037.37 51.8727 1033.93 51.8727 1029.6C51.8727 1026.07 52.806 1022.87 54.6727 1020C56.5393 1017.07 59.406 1014.73 63.2727 1013C67.1393 1011.27 71.9393 1010.4 77.6727 1010.4C81.6727 1010.4 85.5727 1010.97 89.3727 1012.1C93.2393 1013.17 96.5727 1014.67 99.3727 1016.6L96.8727 1022.5C93.9393 1020.57 90.806 1019.13 87.4727 1018.2C84.1393 1017.2 80.8727 1016.7 77.6727 1016.7C71.5393 1016.7 66.906 1017.9 63.7727 1020.3C60.706 1022.63 59.1727 1025.67 59.1727 1029.4C59.1727 1032.2 60.006 1034.47 61.6727 1036.2C63.406 1037.87 65.5393 1039.17 68.0727 1040.1C70.6727 1040.97 74.1393 1041.93 78.4727 1043C83.606 1044.27 87.7393 1045.53 90.8727 1046.8C94.0727 1048 96.7727 1049.87 98.9727 1052.4C101.173 1054.87 102.273 1058.23 102.273 1062.5C102.273 1066.03 101.306 1069.27 99.3727 1072.2C97.506 1075.07 94.606 1077.37 90.6727 1079.1C86.7393 1080.77 81.906 1081.6 76.1727 1081.6ZM138.396 1081.5C133.329 1081.5 128.763 1080.37 124.696 1078.1C120.629 1075.77 117.429 1072.57 115.096 1068.5C112.763 1064.43 111.596 1059.83 111.596 1054.7C111.596 1049.57 112.763 1044.97 115.096 1040.9C117.429 1036.83 120.629 1033.67 124.696 1031.4C128.763 1029.13 133.329 1028 138.396 1028C143.463 1028 148.029 1029.13 152.096 1031.4C156.163 1033.67 159.329 1036.83 161.596 1040.9C163.929 1044.97 165.096 1049.57 165.096 1054.7C165.096 1059.83 163.929 1064.43 161.596 1068.5C159.329 1072.57 156.163 1075.77 152.096 1078.1C148.029 1080.37 143.463 1081.5 138.396 1081.5ZM138.396 1075.2C142.129 1075.2 145.463 1074.37 148.396 1072.7C151.396 1070.97 153.729 1068.53 155.396 1065.4C157.063 1062.27 157.896 1058.7 157.896 1054.7C157.896 1050.7 157.063 1047.13 155.396 1044C153.729 1040.87 151.396 1038.47 148.396 1036.8C145.463 1035.07 142.129 1034.2 138.396 1034.2C134.663 1034.2 131.296 1035.07 128.296 1036.8C125.363 1038.47 123.029 1040.87 121.296 1044C119.629 1047.13 118.796 1050.7 118.796 1054.7C118.796 1058.7 119.629 1062.27 121.296 1065.4C123.029 1068.53 125.363 1070.97 128.296 1072.7C131.296 1074.37 134.663 1075.2 138.396 1075.2ZM186.391 1038.7C188.058 1035.17 190.525 1032.5 193.791 1030.7C197.125 1028.9 201.225 1028 206.091 1028V1034.9L204.391 1034.8C198.858 1034.8 194.525 1036.5 191.391 1039.9C188.258 1043.3 186.691 1048.07 186.691 1054.2V1081H179.591V1028.4H186.391V1038.7ZM225.747 1038.7C227.414 1035.17 229.88 1032.5 233.147 1030.7C236.48 1028.9 240.58 1028 245.447 1028V1034.9L243.747 1034.8C238.214 1034.8 233.88 1036.5 230.747 1039.9C227.614 1043.3 226.047 1048.07 226.047 1054.2V1081H218.947V1028.4H225.747V1038.7ZM304.748 1028.4L278.448 1087.3C276.315 1092.23 273.848 1095.73 271.048 1097.8C268.248 1099.87 264.882 1100.9 260.948 1100.9C258.415 1100.9 256.048 1100.5 253.848 1099.7C251.648 1098.9 249.748 1097.7 248.148 1096.1L251.448 1090.8C254.115 1093.47 257.315 1094.8 261.048 1094.8C263.448 1094.8 265.482 1094.13 267.148 1092.8C268.882 1091.47 270.482 1089.2 271.948 1086L274.248 1080.9L250.748 1028.4H258.148L277.948 1073.1L297.748 1028.4H304.748ZM312.13 1070.6C313.663 1070.6 314.93 1071.13 315.93 1072.2C316.93 1073.2 317.43 1074.47 317.43 1076C317.43 1076.8 317.296 1077.67 317.03 1078.6C316.83 1079.53 316.496 1080.6 316.03 1081.8L311.83 1095.6H307.03L310.43 1081.1C309.363 1080.77 308.496 1080.17 307.83 1079.3C307.163 1078.37 306.83 1077.27 306.83 1076C306.83 1074.47 307.33 1073.2 308.33 1072.2C309.33 1071.13 310.596 1070.6 312.13 1070.6ZM386.393 1077.8C385.06 1079 383.393 1079.93 381.393 1080.6C379.46 1081.2 377.426 1081.5 375.293 1081.5C370.36 1081.5 366.56 1080.17 363.893 1077.5C361.226 1074.83 359.893 1071.07 359.893 1066.2V1034.4H350.493V1028.4H359.893V1016.9H366.993V1028.4H382.993V1034.4H366.993V1065.8C366.993 1068.93 367.76 1071.33 369.293 1073C370.893 1074.6 373.16 1075.4 376.093 1075.4C377.56 1075.4 378.96 1075.17 380.293 1074.7C381.693 1074.23 382.893 1073.57 383.893 1072.7L386.393 1077.8ZM426.118 1028C432.718 1028 437.951 1029.93 441.818 1033.8C445.751 1037.6 447.718 1043.17 447.718 1050.5V1081H440.618V1051.2C440.618 1045.73 439.251 1041.57 436.518 1038.7C433.785 1035.83 429.885 1034.4 424.818 1034.4C419.151 1034.4 414.651 1036.1 411.318 1039.5C408.051 1042.83 406.418 1047.47 406.418 1053.4V1081H399.318V1006.8H406.418V1037.6C408.351 1034.53 411.018 1032.17 414.418 1030.5C417.818 1028.83 421.718 1028 426.118 1028ZM485.394 1028C492.26 1028 497.527 1029.73 501.194 1033.2C504.86 1036.6 506.694 1041.67 506.694 1048.4V1081H499.894V1072.8C498.294 1075.53 495.927 1077.67 492.794 1079.2C489.727 1080.73 486.06 1081.5 481.794 1081.5C475.927 1081.5 471.26 1080.1 467.794 1077.3C464.327 1074.5 462.594 1070.8 462.594 1066.2C462.594 1061.73 464.194 1058.13 467.394 1055.4C470.66 1052.67 475.827 1051.3 482.894 1051.3H499.594V1048.1C499.594 1043.57 498.327 1040.13 495.794 1037.8C493.26 1035.4 489.56 1034.2 484.694 1034.2C481.36 1034.2 478.16 1034.77 475.094 1035.9C472.027 1036.97 469.394 1038.47 467.194 1040.4L463.994 1035.1C466.66 1032.83 469.86 1031.1 473.594 1029.9C477.327 1028.63 481.26 1028 485.394 1028ZM482.894 1075.9C486.894 1075.9 490.327 1075 493.194 1073.2C496.06 1071.33 498.194 1068.67 499.594 1065.2V1056.6H483.094C474.094 1056.6 469.594 1059.73 469.594 1066C469.594 1069.07 470.76 1071.5 473.094 1073.3C475.427 1075.03 478.694 1075.9 482.894 1075.9ZM553.678 1077.8C552.345 1079 550.678 1079.93 548.678 1080.6C546.745 1081.2 544.711 1081.5 542.578 1081.5C537.645 1081.5 533.845 1080.17 531.178 1077.5C528.511 1074.83 527.178 1071.07 527.178 1066.2V1034.4H517.778V1028.4H527.178V1016.9H534.278V1028.4H550.278V1034.4H534.278V1065.8C534.278 1068.93 535.045 1071.33 536.578 1073C538.178 1074.6 540.445 1075.4 543.378 1075.4C544.845 1075.4 546.245 1075.17 547.578 1074.7C548.978 1074.23 550.178 1073.57 551.178 1072.7L553.678 1077.8ZM567.403 1006.3C568.936 1006.3 570.203 1006.83 571.203 1007.9C572.203 1008.9 572.703 1010.17 572.703 1011.7C572.703 1012.5 572.57 1013.37 572.303 1014.3C572.103 1015.17 571.803 1016.2 571.403 1017.4L567.103 1031.2H562.303L565.803 1016.8C564.67 1016.47 563.77 1015.87 563.103 1015C562.436 1014.07 562.103 1012.97 562.103 1011.7C562.103 1010.1 562.603 1008.8 563.603 1007.8C564.603 1006.8 565.87 1006.3 567.403 1006.3ZM600.332 1081.5C596.065 1081.5 591.965 1080.9 588.032 1079.7C584.165 1078.43 581.132 1076.87 578.932 1075L582.132 1069.4C584.332 1071.13 587.099 1072.57 590.432 1073.7C593.765 1074.77 597.232 1075.3 600.832 1075.3C605.632 1075.3 609.165 1074.57 611.432 1073.1C613.765 1071.57 614.932 1069.43 614.932 1066.7C614.932 1064.77 614.299 1063.27 613.032 1062.2C611.765 1061.07 610.165 1060.23 608.232 1059.7C606.299 1059.1 603.732 1058.53 600.532 1058C596.265 1057.2 592.832 1056.4 590.232 1055.6C587.632 1054.73 585.399 1053.3 583.532 1051.3C581.732 1049.3 580.832 1046.53 580.832 1043C580.832 1038.6 582.665 1035 586.332 1032.2C589.999 1029.4 595.099 1028 601.632 1028C605.032 1028 608.432 1028.47 611.832 1029.4C615.232 1030.27 618.032 1031.43 620.232 1032.9L617.132 1038.6C612.799 1035.6 607.632 1034.1 601.632 1034.1C597.099 1034.1 593.665 1034.9 591.332 1036.5C589.065 1038.1 587.932 1040.2 587.932 1042.8C587.932 1044.8 588.565 1046.4 589.832 1047.6C591.165 1048.8 592.799 1049.7 594.732 1050.3C596.665 1050.83 599.332 1051.4 602.732 1052C606.932 1052.8 610.299 1053.6 612.832 1054.4C615.365 1055.2 617.532 1056.57 619.332 1058.5C621.132 1060.43 622.032 1063.1 622.032 1066.5C622.032 1071.1 620.099 1074.77 616.232 1077.5C612.432 1080.17 607.132 1081.5 600.332 1081.5ZM679.73 1028C686.596 1028 691.863 1029.73 695.53 1033.2C699.196 1036.6 701.03 1041.67 701.03 1048.4V1081H694.23V1072.8C692.63 1075.53 690.263 1077.67 687.13 1079.2C684.063 1080.73 680.396 1081.5 676.13 1081.5C670.263 1081.5 665.596 1080.1 662.13 1077.3C658.663 1074.5 656.93 1070.8 656.93 1066.2C656.93 1061.73 658.53 1058.13 661.73 1055.4C664.996 1052.67 670.163 1051.3 677.23 1051.3H693.93V1048.1C693.93 1043.57 692.663 1040.13 690.13 1037.8C687.596 1035.4 683.896 1034.2 679.03 1034.2C675.696 1034.2 672.496 1034.77 669.43 1035.9C666.363 1036.97 663.73 1038.47 661.53 1040.4L658.33 1035.1C660.996 1032.83 664.196 1031.1 667.93 1029.9C671.663 1028.63 675.596 1028 679.73 1028ZM677.23 1075.9C681.23 1075.9 684.663 1075 687.53 1073.2C690.396 1071.33 692.53 1068.67 693.93 1065.2V1056.6H677.43C668.43 1056.6 663.93 1059.73 663.93 1066C663.93 1069.07 665.096 1071.5 667.43 1073.3C669.763 1075.03 673.03 1075.9 677.23 1075.9ZM720.314 1006.8H727.414V1081H720.314V1006.8ZM747.17 1006.8H754.27V1081H747.17V1006.8ZM817.597 1012.3C814.53 1012.3 812.197 1013.13 810.597 1014.8C809.064 1016.47 808.297 1018.93 808.297 1022.2V1028.4H824.497V1034.4H808.497V1081H801.397V1034.4H791.997V1028.4H801.397V1021.9C801.397 1017.1 802.764 1013.3 805.497 1010.5C808.297 1007.7 812.23 1006.3 817.297 1006.3C819.297 1006.3 821.23 1006.6 823.097 1007.2C824.964 1007.73 826.53 1008.53 827.797 1009.6L825.397 1014.9C823.33 1013.17 820.73 1012.3 817.597 1012.3ZM854.705 1081.5C849.638 1081.5 845.071 1080.37 841.005 1078.1C836.938 1075.77 833.738 1072.57 831.405 1068.5C829.071 1064.43 827.905 1059.83 827.905 1054.7C827.905 1049.57 829.071 1044.97 831.405 1040.9C833.738 1036.83 836.938 1033.67 841.005 1031.4C845.071 1029.13 849.638 1028 854.705 1028C859.771 1028 864.338 1029.13 868.405 1031.4C872.471 1033.67 875.638 1036.83 877.905 1040.9C880.238 1044.97 881.405 1049.57 881.405 1054.7C881.405 1059.83 880.238 1064.43 877.905 1068.5C875.638 1072.57 872.471 1075.77 868.405 1078.1C864.338 1080.37 859.771 1081.5 854.705 1081.5ZM854.705 1075.2C858.438 1075.2 861.771 1074.37 864.705 1072.7C867.705 1070.97 870.038 1068.53 871.705 1065.4C873.371 1062.27 874.205 1058.7 874.205 1054.7C874.205 1050.7 873.371 1047.13 871.705 1044C870.038 1040.87 867.705 1038.47 864.705 1036.8C861.771 1035.07 858.438 1034.2 854.705 1034.2C850.971 1034.2 847.605 1035.07 844.605 1036.8C841.671 1038.47 839.338 1040.87 837.605 1044C835.938 1047.13 835.105 1050.7 835.105 1054.7C835.105 1058.7 835.938 1062.27 837.605 1065.4C839.338 1068.53 841.671 1070.97 844.605 1072.7C847.605 1074.37 850.971 1075.2 854.705 1075.2ZM902.7 1038.7C904.367 1035.17 906.833 1032.5 910.1 1030.7C913.433 1028.9 917.533 1028 922.4 1028V1034.9L920.7 1034.8C915.167 1034.8 910.833 1036.5 907.7 1039.9C904.567 1043.3 903 1048.07 903 1054.2V1081H895.9V1028.4H902.7V1038.7ZM989.909 1077.8C988.575 1079 986.909 1079.93 984.909 1080.6C982.975 1081.2 980.942 1081.5 978.809 1081.5C973.875 1081.5 970.075 1080.17 967.409 1077.5C964.742 1074.83 963.409 1071.07 963.409 1066.2V1034.4H954.009V1028.4H963.409V1016.9H970.509V1028.4H986.509V1034.4H970.509V1065.8C970.509 1068.93 971.275 1071.33 972.809 1073C974.409 1074.6 976.675 1075.4 979.609 1075.4C981.075 1075.4 982.475 1075.17 983.809 1074.7C985.209 1074.23 986.409 1073.57 987.409 1072.7L989.909 1077.8ZM1022.48 1081.5C1017.41 1081.5 1012.84 1080.37 1008.78 1078.1C1004.71 1075.77 1001.51 1072.57 999.178 1068.5C996.845 1064.43 995.678 1059.83 995.678 1054.7C995.678 1049.57 996.845 1044.97 999.178 1040.9C1001.51 1036.83 1004.71 1033.67 1008.78 1031.4C1012.84 1029.13 1017.41 1028 1022.48 1028C1027.54 1028 1032.11 1029.13 1036.18 1031.4C1040.24 1033.67 1043.41 1036.83 1045.68 1040.9C1048.01 1044.97 1049.18 1049.57 1049.18 1054.7C1049.18 1059.83 1048.01 1064.43 1045.68 1068.5C1043.41 1072.57 1040.24 1075.77 1036.18 1078.1C1032.11 1080.37 1027.54 1081.5 1022.48 1081.5ZM1022.48 1075.2C1026.21 1075.2 1029.54 1074.37 1032.48 1072.7C1035.48 1070.97 1037.81 1068.53 1039.48 1065.4C1041.14 1062.27 1041.98 1058.7 1041.98 1054.7C1041.98 1050.7 1041.14 1047.13 1039.48 1044C1037.81 1040.87 1035.48 1038.47 1032.48 1036.8C1029.54 1035.07 1026.21 1034.2 1022.48 1034.2C1018.74 1034.2 1015.38 1035.07 1012.38 1036.8C1009.44 1038.47 1007.11 1040.87 1005.38 1044C1003.71 1047.13 1002.88 1050.7 1002.88 1054.7C1002.88 1058.7 1003.71 1062.27 1005.38 1065.4C1007.11 1068.53 1009.44 1070.97 1012.38 1072.7C1015.38 1074.37 1018.74 1075.2 1022.48 1075.2ZM1111.67 1006.8V1081H1104.87V1070.6C1102.74 1074.13 1099.91 1076.83 1096.37 1078.7C1092.91 1080.57 1088.97 1081.5 1084.57 1081.5C1079.64 1081.5 1075.17 1080.37 1071.17 1078.1C1067.17 1075.83 1064.04 1072.67 1061.77 1068.6C1059.51 1064.53 1058.37 1059.9 1058.37 1054.7C1058.37 1049.5 1059.51 1044.87 1061.77 1040.8C1064.04 1036.73 1067.17 1033.6 1071.17 1031.4C1075.17 1029.13 1079.64 1028 1084.57 1028C1088.84 1028 1092.67 1028.9 1096.07 1030.7C1099.54 1032.43 1102.37 1035 1104.57 1038.4V1006.8H1111.67ZM1085.17 1075.2C1088.84 1075.2 1092.14 1074.37 1095.07 1072.7C1098.07 1070.97 1100.41 1068.53 1102.07 1065.4C1103.81 1062.27 1104.67 1058.7 1104.67 1054.7C1104.67 1050.7 1103.81 1047.13 1102.07 1044C1100.41 1040.87 1098.07 1038.47 1095.07 1036.8C1092.14 1035.07 1088.84 1034.2 1085.17 1034.2C1081.44 1034.2 1078.07 1035.07 1075.07 1036.8C1072.14 1038.47 1069.81 1040.87 1068.07 1044C1066.41 1047.13 1065.57 1050.7 1065.57 1054.7C1065.57 1058.7 1066.41 1062.27 1068.07 1065.4C1069.81 1068.53 1072.14 1070.97 1075.07 1072.7C1078.07 1074.37 1081.44 1075.2 1085.17 1075.2ZM1149.85 1028C1156.71 1028 1161.98 1029.73 1165.65 1033.2C1169.31 1036.6 1171.15 1041.67 1171.15 1048.4V1081H1164.35V1072.8C1162.75 1075.53 1160.38 1077.67 1157.25 1079.2C1154.18 1080.73 1150.51 1081.5 1146.25 1081.5C1140.38 1081.5 1135.71 1080.1 1132.25 1077.3C1128.78 1074.5 1127.05 1070.8 1127.05 1066.2C1127.05 1061.73 1128.65 1058.13 1131.85 1055.4C1135.11 1052.67 1140.28 1051.3 1147.35 1051.3H1164.05V1048.1C1164.05 1043.57 1162.78 1040.13 1160.25 1037.8C1157.71 1035.4 1154.01 1034.2 1149.15 1034.2C1145.81 1034.2 1142.61 1034.77 1139.55 1035.9C1136.48 1036.97 1133.85 1038.47 1131.65 1040.4L1128.45 1035.1C1131.11 1032.83 1134.31 1031.1 1138.05 1029.9C1141.78 1028.63 1145.71 1028 1149.85 1028ZM1147.35 1075.9C1151.35 1075.9 1154.78 1075 1157.65 1073.2C1160.51 1071.33 1162.65 1068.67 1164.05 1065.2V1056.6H1147.55C1138.55 1056.6 1134.05 1059.73 1134.05 1066C1134.05 1069.07 1135.21 1071.5 1137.55 1073.3C1139.88 1075.03 1143.15 1075.9 1147.35 1075.9ZM1233.65 1028.4L1207.35 1087.3C1205.22 1092.23 1202.75 1095.73 1199.95 1097.8C1197.15 1099.87 1193.79 1100.9 1189.85 1100.9C1187.32 1100.9 1184.95 1100.5 1182.75 1099.7C1180.55 1098.9 1178.65 1097.7 1177.05 1096.1L1180.35 1090.8C1183.02 1093.47 1186.22 1094.8 1189.95 1094.8C1192.35 1094.8 1194.39 1094.13 1196.05 1092.8C1197.79 1091.47 1199.39 1089.2 1200.85 1086L1203.15 1080.9L1179.65 1028.4H1187.05L1206.85 1073.1L1226.65 1028.4H1233.65ZM1240.94 1081.5C1239.47 1081.5 1238.2 1080.97 1237.14 1079.9C1236.14 1078.83 1235.64 1077.53 1235.64 1076C1235.64 1074.47 1236.14 1073.2 1237.14 1072.2C1238.2 1071.13 1239.47 1070.6 1240.94 1070.6C1242.4 1070.6 1243.67 1071.13 1244.74 1072.2C1245.8 1073.2 1246.34 1074.47 1246.34 1076C1246.34 1077.53 1245.8 1078.83 1244.74 1079.9C1243.67 1080.97 1242.4 1081.5 1240.94 1081.5Z" fill="#6672DF"/>
</svg>
