<svg width="200" height="200" viewBox="0 0 200 200" fill="none" xmlns="http://www.w3.org/2000/svg">
<path d="M184.188 37.5607C183.733 35.9389 182.11 35.0069 180.553 35.4817C179 35.9548 178.109 37.6531 178.562 39.2749C179.201 41.5578 179.525 43.9315 179.525 46.3307C179.525 50.785 178.399 55.1613 176.267 58.9863C174.193 62.7062 171.223 65.8399 167.675 68.0479L166.448 68.8094C165.56 69.3622 165.017 70.3595 165.017 71.438V75.3013H158.167V62.8671C161.307 61.6755 163.563 58.5355 163.563 54.8475V48.1676C163.563 43.46 159.896 39.6301 155.39 39.6301H155.086C150.58 39.6301 146.914 43.46 146.914 48.1676V54.8475C146.914 58.5355 149.167 61.6755 152.308 62.8656V75.3013H145.46V71.438C145.46 70.3595 144.915 69.3622 144.028 68.8094L142.801 68.0479C139.252 65.8399 136.281 62.7062 134.209 58.9863C132.078 55.1613 130.95 50.785 130.95 46.3307C130.95 32.3911 141.845 21.0514 155.237 21.0514C161.594 21.0514 167.611 23.6019 172.178 28.2347C173.337 29.4104 175.193 29.3817 176.321 28.1709C177.448 26.9602 177.421 25.023 176.26 23.8457C170.594 18.0993 163.128 14.9338 155.237 14.9338C138.614 14.9338 125.091 29.0185 125.091 46.3307C125.091 51.8636 126.493 57.304 129.143 62.0626C131.676 66.6078 135.288 70.4455 139.6 73.1761V75.7984C138.042 76.5933 136.965 78.2581 136.965 80.1874V94.1732C136.965 96.8656 139.063 99.0577 141.642 99.0577H145.998V103.357C145.998 106.292 148.282 108.678 151.093 108.678H159.383C162.192 108.678 164.48 106.292 164.48 103.357V99.0577H168.835C171.413 99.0577 173.513 96.8656 173.513 94.1732V80.1874C173.513 78.2581 172.434 76.5933 170.876 75.7984V73.1761C175.188 70.4455 178.8 66.6078 181.333 62.0626C183.984 57.304 185.386 51.8636 185.386 46.3307C185.384 43.3516 184.981 40.4012 184.188 37.5607ZM152.773 48.1676C152.773 46.8326 153.811 45.7477 155.086 45.7477H155.39C156.666 45.7477 157.703 46.8326 157.703 48.1676V54.8475C157.703 56.1825 156.666 57.2674 155.39 57.2674H155.086C153.811 57.2674 152.773 56.1825 152.773 54.8475V48.1676ZM158.619 102.561H151.856V99.0577H158.619V102.561ZM167.652 92.9402H142.823V81.4188H167.652V92.9402Z" fill="url(#paint0_linear)"/>
<path d="M155.237 11.19C156.856 11.19 158.167 9.81989 158.167 8.1312V3.05876C158.167 1.36848 156.856 0 155.237 0C153.618 0 152.308 1.36848 152.308 3.05876V8.1312C152.308 9.81989 153.62 11.19 155.237 11.19Z" fill="url(#paint1_linear)"/>
<path d="M137.351 12.8085C137.838 13.9444 138.906 14.6182 140.026 14.6182C140.426 14.6182 140.833 14.5322 141.222 14.3522C142.698 13.6608 143.36 11.8526 142.699 10.3105L140.713 5.67933C140.052 4.1372 138.318 3.44739 136.841 4.1372C135.366 4.82702 134.704 6.63678 135.366 8.17891L137.351 12.8085Z" fill="url(#paint2_linear)"/>
<path d="M121.895 20.0411L125.522 23.4265C126.081 23.9474 126.78 24.2055 127.474 24.2055C128.28 24.2055 129.081 23.8614 129.659 23.1859C130.738 21.9258 130.634 19.9918 129.429 18.8654L125.802 15.4801C124.595 14.3538 122.742 14.4621 121.665 15.7222C120.586 16.9808 120.69 18.9148 121.895 20.0411Z" fill="url(#paint3_linear)"/>
<path d="M114.238 36.5872L118.876 38.1405C119.173 38.2392 119.474 38.287 119.771 38.287C121.01 38.287 122.161 37.4602 122.559 36.1618C123.053 34.5528 122.205 32.8306 120.664 32.3145L116.027 30.7628C114.486 30.2466 112.836 31.1324 112.342 32.7414C111.849 34.3505 112.697 36.0726 114.238 36.5872Z" fill="url(#paint4_linear)"/>
<path d="M113.401 54.9655C113.508 54.9655 113.613 54.9592 113.721 54.9464L118.563 54.3968C120.171 54.2152 121.334 52.7065 121.158 51.0258C120.984 49.3467 119.541 48.1311 117.93 48.3159L113.088 48.8656C111.478 49.0472 110.317 50.5574 110.491 52.2366C110.656 53.8042 111.925 54.9655 113.401 54.9655Z" fill="url(#paint5_linear)"/>
<path d="M117.489 66.6457C116.091 67.4948 115.618 69.3683 116.433 70.8276C116.977 71.8026 117.959 72.3474 118.967 72.3474C119.468 72.3474 119.974 72.2136 120.44 71.9316L124.645 69.3731C126.044 68.5224 126.517 66.6505 125.702 65.1912C124.888 63.7303 123.095 63.2365 121.695 64.0872L117.489 66.6457Z" fill="url(#paint6_linear)"/>
<path d="M169.253 14.351C169.642 14.5326 170.048 14.6186 170.449 14.6186C171.567 14.6186 172.637 13.9447 173.124 12.8088L175.111 8.17769C175.771 6.63556 175.111 4.8258 173.634 4.13598C172.158 3.44617 170.423 4.13598 169.762 5.67811L167.777 10.3093C167.115 11.8514 167.776 13.6612 169.253 14.351Z" fill="url(#paint7_linear)"/>
<path d="M183.001 24.2055C183.695 24.2055 184.394 23.9474 184.952 23.4265L188.579 20.0411C189.785 18.9148 189.889 16.9808 188.81 15.7222C187.731 14.4621 185.879 14.3538 184.673 15.4801L181.046 18.8654C179.841 19.9918 179.737 21.9258 180.816 23.1859C181.394 23.8614 182.197 24.2055 183.001 24.2055Z" fill="url(#paint8_linear)"/>
<path d="M187.916 36.1618C188.316 37.4602 189.466 38.287 190.705 38.287C191.001 38.287 191.303 38.2392 191.601 38.1405L196.238 36.5872C197.778 36.0726 198.626 34.3505 198.133 32.7414C197.639 31.1324 195.988 30.2466 194.448 30.7628L189.811 32.3145C188.27 32.8306 187.421 34.5528 187.916 36.1618Z" fill="url(#paint9_linear)"/>
<path d="M197.387 48.8654L192.545 48.3158C190.934 48.1278 189.49 49.3465 189.315 51.0256C189.141 52.7064 190.302 54.215 191.912 54.3982L196.754 54.9479C196.862 54.959 196.969 54.9654 197.074 54.9654C198.55 54.9654 199.819 53.804 199.982 52.238C200.158 50.5573 198.997 49.0486 197.387 48.8654Z" fill="url(#paint10_linear)"/>
<path d="M192.985 66.6458L188.779 64.0873C187.382 63.2381 185.587 63.7304 184.772 65.1897C183.958 66.6506 184.431 68.5225 185.83 69.3732L190.035 71.9317C190.499 72.2137 191.007 72.3475 191.508 72.3475C192.516 72.3475 193.497 71.8027 194.042 70.8277C194.855 69.3684 194.382 67.4949 192.985 66.6458Z" fill="url(#paint11_linear)"/>
<path d="M32.6433 70.525H62.3568C63.9743 70.525 65.2865 69.1549 65.2865 67.4662C65.2865 65.7759 63.9743 64.4075 62.3568 64.4075H32.6433C31.0243 64.4075 29.7136 65.7759 29.7136 67.4662C29.7136 69.1549 31.0258 70.525 32.6433 70.525Z" fill="url(#paint12_linear)"/>
<path d="M18.9545 147.493H76.044C77.663 147.493 78.9737 146.124 78.9737 144.434C78.9737 142.745 77.663 141.375 76.044 141.375H18.9545C17.3371 141.375 16.0248 142.745 16.0248 144.434C16.0248 146.124 17.3371 147.493 18.9545 147.493Z" fill="url(#paint13_linear)"/>
<path d="M114.653 114.871C114.653 104.868 106.864 96.73 97.2904 96.73C87.7155 96.73 79.9274 104.868 79.9274 114.871C79.9274 124.874 87.7155 133.011 97.2904 133.011C106.864 133.011 114.653 124.874 114.653 114.871ZM97.2889 102.848C103.431 102.848 108.461 107.902 108.777 114.24C108.306 114.3 107.83 114.339 107.351 114.339C101.209 114.339 96.1765 109.282 95.8637 102.945C96.3306 102.883 96.8067 102.848 97.2889 102.848ZM85.7868 114.871C85.7868 111.017 87.5339 107.582 90.2408 105.381C91.6385 113.928 98.7766 120.456 107.351 120.456C107.392 120.456 107.433 120.453 107.474 120.453C105.545 124.278 101.706 126.894 97.2889 126.894C90.9473 126.894 85.7868 121.5 85.7868 114.871Z" fill="url(#paint14_linear)"/>
<path d="M168.191 163.159L153.358 154.718C151.385 153.594 148.202 152.749 145.954 152.749H95.0001V143.034C95.7599 143.072 96.5229 143.098 97.2889 143.098C114.728 143.098 130.962 133.274 139.658 117.463C140.537 115.865 140.537 113.878 139.658 112.277C130.964 96.4674 114.728 86.6459 97.2889 86.6459C96.5229 86.6459 95.7599 86.6714 95.0001 86.708V48.7029C95.0001 45.8927 92.8089 43.605 90.1172 43.605H36.3283C34.7093 43.605 33.3986 44.975 33.3986 46.6637C33.3986 48.354 34.7093 49.7225 36.3283 49.7225H89.1407V87.3675C87.0426 87.7403 84.9811 88.2549 82.9639 88.9049V86.2317C82.9639 83.4198 80.7742 81.1337 78.081 81.1337H16.919C14.2258 81.1337 12.0362 83.4198 12.0362 86.2317V128.842C12.0362 131.653 14.2258 133.94 16.919 133.94H69.4186C75.2856 138.197 82.0148 141.108 89.1407 142.376V152.749H53.908C51.6726 152.749 49.7179 154.007 48.6483 155.877H18.9545C17.3371 155.877 16.0248 157.247 16.0248 158.936C16.0248 160.626 17.3371 161.995 18.9545 161.995H47.7816V170.381H18.9545C17.3371 170.381 16.0248 171.749 16.0248 173.44C16.0248 175.128 17.3371 176.499 18.9545 176.499H47.8273C48.1844 179.667 50.7738 182.137 53.908 182.137H89.1407V193.884H5.8594V49.7225H22.2657C23.8847 49.7225 25.1954 48.354 25.1954 46.6637C25.1954 44.975 23.8847 43.605 22.2657 43.605H4.88283C2.18964 43.605 0 45.8927 0 48.7029V194.902C0 197.714 2.18964 200 4.88283 200H90.1172C92.8089 200 95.0001 197.714 95.0001 194.902V182.137H145.954C148.202 182.137 151.385 181.289 153.358 180.166L168.192 171.724C169.897 170.752 170.875 169.193 170.875 167.442C170.875 165.693 169.897 164.131 168.191 163.159ZM66.318 176.019H53.908C53.7691 176.019 53.641 175.89 53.641 175.75V159.135C53.641 158.995 53.7676 158.866 53.908 158.866H66.318V176.019ZM17.8956 127.823V87.2513H77.1045V91.2292C67.9324 95.5896 60.0924 102.875 54.9227 112.277C54.0423 113.878 54.0423 115.867 54.9227 117.464C57.0238 121.286 59.569 124.755 62.4636 127.823H17.8956ZM60.2557 114.871C67.966 101.22 82.1094 92.7634 97.2904 92.7634C112.47 92.7634 126.613 101.221 134.325 114.871C126.612 128.521 112.468 136.98 97.2904 136.98C82.1109 136.98 67.9675 128.524 60.2557 114.871ZM141.736 164.383H129.688C128.069 164.383 126.758 165.753 126.758 167.442C126.758 169.132 128.069 170.5 129.688 170.5H141.736V176.019H72.1774V170.5H116.016C117.634 170.5 118.946 169.132 118.946 167.442C118.946 165.753 117.634 164.383 116.016 164.383H72.1774V158.866H141.736V164.383ZM153.889 172.897L150.553 174.796C149.846 175.197 148.676 175.586 147.596 175.812V159.072C148.678 159.299 149.846 159.687 150.553 160.088L153.889 161.987V172.897ZM159.748 169.562V165.323L163.473 167.442L159.748 169.562Z" fill="url(#paint15_linear)"/>
<defs>
<linearGradient id="paint0_linear" x1="155.238" y1="14.9338" x2="155.238" y2="108.678" gradientUnits="userSpaceOnUse">
<stop stop-color="#1888F0"/>
<stop offset="1" stop-color="#4C0B9E"/>
</linearGradient>
<linearGradient id="paint1_linear" x1="155.237" y1="0" x2="155.237" y2="11.19" gradientUnits="userSpaceOnUse">
<stop stop-color="#1888F0"/>
<stop offset="1" stop-color="#4C0B9E"/>
</linearGradient>
<linearGradient id="paint2_linear" x1="139.032" y1="3.86963" x2="139.032" y2="14.6182" gradientUnits="userSpaceOnUse">
<stop stop-color="#1888F0"/>
<stop offset="1" stop-color="#4C0B9E"/>
</linearGradient>
<linearGradient id="paint3_linear" x1="125.662" y1="14.7014" x2="125.662" y2="24.2055" gradientUnits="userSpaceOnUse">
<stop stop-color="#1888F0"/>
<stop offset="1" stop-color="#4C0B9E"/>
</linearGradient>
<linearGradient id="paint4_linear" x1="117.451" y1="30.6157" x2="117.451" y2="38.287" gradientUnits="userSpaceOnUse">
<stop stop-color="#1888F0"/>
<stop offset="1" stop-color="#4C0B9E"/>
</linearGradient>
<linearGradient id="paint5_linear" x1="115.825" y1="48.2974" x2="115.825" y2="54.9655" gradientUnits="userSpaceOnUse">
<stop stop-color="#1888F0"/>
<stop offset="1" stop-color="#4C0B9E"/>
</linearGradient>
<linearGradient id="paint6_linear" x1="121.068" y1="63.6707" x2="121.068" y2="72.3474" gradientUnits="userSpaceOnUse">
<stop stop-color="#1888F0"/>
<stop offset="1" stop-color="#4C0B9E"/>
</linearGradient>
<linearGradient id="paint7_linear" x1="171.443" y1="3.86841" x2="171.443" y2="14.6186" gradientUnits="userSpaceOnUse">
<stop stop-color="#1888F0"/>
<stop offset="1" stop-color="#4C0B9E"/>
</linearGradient>
<linearGradient id="paint8_linear" x1="184.813" y1="14.7014" x2="184.813" y2="24.2055" gradientUnits="userSpaceOnUse">
<stop stop-color="#1888F0"/>
<stop offset="1" stop-color="#4C0B9E"/>
</linearGradient>
<linearGradient id="paint9_linear" x1="193.024" y1="30.6157" x2="193.024" y2="38.287" gradientUnits="userSpaceOnUse">
<stop stop-color="#1888F0"/>
<stop offset="1" stop-color="#4C0B9E"/>
</linearGradient>
<linearGradient id="paint10_linear" x1="194.649" y1="48.2966" x2="194.649" y2="54.9654" gradientUnits="userSpaceOnUse">
<stop stop-color="#1888F0"/>
<stop offset="1" stop-color="#4C0B9E"/>
</linearGradient>
<linearGradient id="paint11_linear" x1="189.407" y1="63.6714" x2="189.407" y2="72.3475" gradientUnits="userSpaceOnUse">
<stop stop-color="#1888F0"/>
<stop offset="1" stop-color="#4C0B9E"/>
</linearGradient>
<linearGradient id="paint12_linear" x1="47.5" y1="64.4075" x2="47.5" y2="70.525" gradientUnits="userSpaceOnUse">
<stop stop-color="#1888F0"/>
<stop offset="1" stop-color="#4C0B9E"/>
</linearGradient>
<linearGradient id="paint13_linear" x1="47.4993" y1="141.375" x2="47.4993" y2="147.493" gradientUnits="userSpaceOnUse">
<stop stop-color="#1888F0"/>
<stop offset="1" stop-color="#4C0B9E"/>
</linearGradient>
<linearGradient id="paint14_linear" x1="97.2904" y1="96.73" x2="97.2904" y2="133.011" gradientUnits="userSpaceOnUse">
<stop stop-color="#1888F0"/>
<stop offset="1" stop-color="#4C0B9E"/>
</linearGradient>
<linearGradient id="paint15_linear" x1="85.4373" y1="43.605" x2="85.4373" y2="200" gradientUnits="userSpaceOnUse">
<stop stop-color="#1888F0"/>
<stop offset="1" stop-color="#4C0B9E"/>
</linearGradient>
</defs>
</svg>
