<svg width="100" height="100" viewBox="0 0 100 100" fill="none" xmlns="http://www.w3.org/2000/svg">
<rect width="100" height="100" rx="10" fill="#6672DF"/>
<path d="M73.2716 18.9351C73.0742 18.8446 72.8547 18.8134 72.6398 18.8454C72.425 18.8773 72.2241 18.971 72.0616 19.1151L69.6616 20.9351L69.2116 22.4651C69.1037 22.9572 69.1263 23.4689 69.2772 23.9495C69.428 24.4301 69.7019 24.863 70.0716 25.2051C70.5176 25.6133 70.9321 26.0545 71.3116 26.5251C71.5793 26.8883 71.9796 27.131 72.4254 27.2003C72.8712 27.2696 73.3263 27.1599 73.6916 26.8951L79.2816 22.6651C79.4394 22.524 79.6334 22.4296 79.8418 22.3926C80.0502 22.3555 80.2648 22.3771 80.4616 22.4551L73.2716 18.9351ZM65.6916 41.0151C64.5616 36.3351 61.3916 34.1651 57.4916 34.7551C57.9328 35.6149 58.2686 36.5248 58.4916 37.4651C60.2816 44.8851 56.2216 55.8451 49.4916 61.9451C47.4912 63.9021 44.9656 65.2361 42.2216 65.7851C44.8916 70.6651 50.8616 70.7851 56.7016 65.4951C63.4616 59.3651 67.4616 48.4051 65.6916 41.0151ZM63.6916 8.93514C63.5412 8.85849 63.3789 8.80778 63.2116 8.78514L58.7616 8.01514C58.2715 7.95983 57.7762 8.05686 57.3432 8.29305C56.9102 8.52924 56.5604 8.89311 56.3416 9.33514L52.7216 17.5151C52.5099 17.9376 52.2178 18.3146 51.8616 18.6251C51.6566 18.8209 51.4321 18.9951 51.1916 19.1451L52.7716 23.3651C52.8459 23.5692 52.9634 23.7549 53.116 23.9094C53.2686 24.064 53.4528 24.1838 53.6559 24.2607C53.8591 24.3376 54.0764 24.3697 54.2931 24.355C54.5098 24.3402 54.7208 24.2789 54.9116 24.1751C55.7708 23.7614 56.656 23.404 57.5616 23.1051C58.1233 22.9004 58.6397 22.5879 59.0816 22.1851C59.4431 21.8718 59.7359 21.4871 59.9416 21.0551L63.5516 12.8851C63.7716 12.444 64.1215 12.081 64.5542 11.845C64.987 11.609 65.4816 11.5113 65.9716 11.5651L70.4516 12.2651C70.6077 12.2891 70.7594 12.3362 70.9016 12.4051L63.6916 8.93514ZM56.3416 86.1551C56.1262 85.9941 55.9656 85.7706 55.8816 85.5151L54.0616 80.6651C53.9901 80.4589 53.8742 80.2709 53.7221 80.1143C53.57 79.9578 53.3853 79.8366 53.1811 79.7594C52.977 79.6821 52.7584 79.6506 52.5407 79.6672C52.3231 79.6837 52.1117 79.7479 51.9216 79.8551C51.0647 80.2741 50.1792 80.6317 49.2716 80.9251C48.9788 81.0307 48.7001 81.1718 48.4416 81.3451L48.6816 81.9651C48.7821 82.2762 49.0013 82.5349 49.2916 82.6851V82.6851L56.3416 86.1551ZM43.1216 14.2751C42.9685 14.2043 42.7999 14.1733 42.6316 14.1851C42.3346 14.2103 42.0554 14.3375 41.8416 14.5451L35.5816 20.1651C35.4941 20.2446 35.4138 20.3316 35.3416 20.4251C35.282 20.4902 35.2285 20.5605 35.1816 20.6351C34.9661 20.9718 34.7947 21.3348 34.6716 21.7151C34.6469 21.8007 34.6268 21.8874 34.6116 21.9751C34.5114 22.3224 34.4775 22.6854 34.5116 23.0451L35.3116 29.2951C35.3794 30.3972 35.0805 31.4908 34.4616 32.4051C33.4603 33.7737 32.5291 35.1922 31.6716 36.6551C31.3332 37.1853 30.8511 37.6083 30.2816 37.8751C30.1019 37.9625 29.9144 38.0328 29.7216 38.0851C29.6312 38.119 29.5373 38.1424 29.4416 38.1551C29.3187 38.1697 29.1945 38.1697 29.0716 38.1551L24.8116 38.2251H24.7116C24.5967 38.2353 24.483 38.2554 24.3716 38.2851C24.2655 38.3045 24.1616 38.3346 24.0616 38.3751C24.0616 38.3751 24.0616 38.3751 24.0616 38.3751C23.942 38.414 23.8278 38.4678 23.7216 38.5351C23.511 38.6544 23.3132 38.7952 23.1316 38.9551C22.863 39.2113 22.6517 39.5215 22.5116 39.8651L19.1216 49.0651C18.9728 49.4534 18.9733 49.883 19.1229 50.2708C19.2725 50.6587 19.5607 50.9774 19.9316 51.1651L24.8216 53.5651C24.9994 53.9455 25.062 54.3696 25.0016 54.7851C24.7697 56.2121 24.6195 57.6511 24.5516 59.0951C24.4599 60.1978 24.0303 61.2454 23.3216 62.0951L23.2516 62.1551L17.8216 67.8551C17.7241 67.9562 17.637 68.0667 17.5616 68.1851V68.2451C17.4733 68.3665 17.4057 68.5017 17.3616 68.6451C17.025 69.312 16.9194 70.0718 17.0616 70.8051L18.5916 77.1051C18.6221 77.2748 18.6877 77.4363 18.7841 77.5792C18.8805 77.7221 19.0057 77.8433 19.1516 77.9351L26.3316 81.4651C26.1924 81.3727 26.0729 81.2535 25.9802 81.1144C25.8875 80.9753 25.8234 80.8192 25.7916 80.6551L24.2716 74.3551C24.1913 73.9491 24.1913 73.5312 24.2716 73.1251C24.3718 72.4882 24.649 71.8922 25.0716 71.4051L30.5016 65.7051L30.5616 65.6451C31.2734 64.7963 31.7064 63.7488 31.8016 62.6451C31.8728 61.2009 32.0264 59.7619 32.2616 58.3351C32.3266 57.8586 32.2299 57.3739 31.987 56.9588C31.744 56.5436 31.3689 56.2219 30.9216 56.0451L27.4016 54.8151C27.1908 54.7373 26.9975 54.6185 26.8328 54.4655C26.6682 54.3125 26.5356 54.1284 26.4426 53.9238C26.3496 53.7192 26.2981 53.4982 26.2911 53.2736C26.284 53.0489 26.3216 52.8252 26.4016 52.6151L29.7916 43.4151C29.9258 43.0658 30.1418 42.7537 30.4216 42.5051C30.8828 42.0561 31.4892 41.7865 32.1316 41.7451L36.3916 41.6751C36.8144 41.6647 37.2289 41.5551 37.6016 41.3551C38.1684 41.0882 38.6471 40.6649 38.9816 40.1351C39.8516 38.6751 40.7816 37.2451 41.7716 35.8851C42.3906 34.9715 42.683 33.8757 42.6016 32.7751L41.7916 26.5351C41.7533 26.1661 41.7838 25.7931 41.8816 25.4351C42.0322 24.7533 42.3799 24.1308 42.8816 23.6451L49.1316 18.0251C49.2921 17.8487 49.5042 17.7276 49.7378 17.6791C49.9713 17.6306 50.2141 17.6572 50.4316 17.7551L43.1216 14.2751ZM37.6316 81.5551C37.7352 81.0622 37.7096 80.5508 37.5571 80.0707C37.4047 79.5905 37.1306 79.158 36.7616 78.8151C36.3161 78.4096 35.9048 77.9681 35.5316 77.4951C35.4006 77.3135 35.2351 77.1595 35.0444 77.042C34.8537 76.9245 34.6417 76.8458 34.4206 76.8105C34.1994 76.7752 33.9735 76.7839 33.7557 76.8362C33.5379 76.8885 33.3326 76.9833 33.1516 77.1151L29.9616 79.5351L27.9616 86.2451C27.8514 86.5736 27.8624 86.9306 27.9926 87.2516C28.1229 87.5726 28.3637 87.8364 28.6716 87.9951V87.9951L35.9016 91.5451C35.5915 91.3861 35.3491 91.1206 35.2187 90.7974C35.0883 90.4742 35.0787 90.1149 35.1916 89.7851L37.6316 81.5551Z" fill="#FAFAFA"/>
<path opacity="0.7" d="M73.2716 18.9351C73.0742 18.8446 72.8547 18.8134 72.6398 18.8454C72.425 18.8773 72.2241 18.971 72.0616 19.1151L69.6616 20.9351L69.2116 22.4651C69.1037 22.9572 69.1263 23.4689 69.2772 23.9495C69.428 24.4301 69.7019 24.863 70.0716 25.2051C70.5176 25.6133 70.9321 26.0545 71.3116 26.5251C71.5793 26.8883 71.9796 27.131 72.4254 27.2003C72.8712 27.2696 73.3263 27.1599 73.6916 26.8951L79.2816 22.6651C79.4394 22.524 79.6334 22.4296 79.8418 22.3926C80.0502 22.3555 80.2648 22.3771 80.4616 22.4551L73.2716 18.9351ZM65.6916 41.0151C64.5616 36.3351 61.3916 34.1651 57.4916 34.7551C57.9328 35.6149 58.2686 36.5248 58.4916 37.4651C60.2816 44.8851 56.2216 55.8451 49.4916 61.9451C47.4912 63.9021 44.9656 65.2361 42.2216 65.7851C44.8916 70.6651 50.8616 70.7851 56.7016 65.4951C63.4616 59.3651 67.4616 48.4051 65.6916 41.0151ZM63.6916 8.93514C63.5412 8.85849 63.3789 8.80778 63.2116 8.78514L58.7616 8.01514C58.2715 7.95983 57.7762 8.05686 57.3432 8.29305C56.9102 8.52924 56.5604 8.89311 56.3416 9.33514L52.7216 17.5151C52.5099 17.9376 52.2178 18.3146 51.8616 18.6251C51.6566 18.8209 51.4321 18.9951 51.1916 19.1451L52.7716 23.3651C52.8459 23.5692 52.9634 23.7549 53.116 23.9094C53.2686 24.064 53.4528 24.1838 53.6559 24.2607C53.8591 24.3376 54.0764 24.3697 54.2931 24.355C54.5098 24.3402 54.7208 24.2789 54.9116 24.1751C55.7708 23.7614 56.656 23.404 57.5616 23.1051C58.1233 22.9004 58.6397 22.5879 59.0816 22.1851C59.4431 21.8718 59.7359 21.4871 59.9416 21.0551L63.5516 12.8851C63.7716 12.444 64.1215 12.081 64.5542 11.845C64.987 11.609 65.4816 11.5113 65.9716 11.5651L70.4516 12.2651C70.6077 12.2891 70.7594 12.3362 70.9016 12.4051L63.6916 8.93514ZM56.3416 86.1551C56.1262 85.9941 55.9656 85.7706 55.8816 85.5151L54.0616 80.6651C53.9901 80.4589 53.8742 80.2709 53.7221 80.1143C53.57 79.9578 53.3853 79.8366 53.1811 79.7594C52.977 79.6821 52.7584 79.6506 52.5407 79.6672C52.3231 79.6837 52.1117 79.7479 51.9216 79.8551C51.0647 80.2741 50.1792 80.6317 49.2716 80.9251C48.9788 81.0307 48.7001 81.1718 48.4416 81.3451L48.6816 81.9651C48.7821 82.2762 49.0013 82.5349 49.2916 82.6851V82.6851L56.3416 86.1551ZM43.1216 14.2751C42.9685 14.2043 42.7999 14.1733 42.6316 14.1851C42.3346 14.2103 42.0554 14.3375 41.8416 14.5451L35.5816 20.1651C35.4941 20.2446 35.4138 20.3316 35.3416 20.4251C35.282 20.4902 35.2285 20.5605 35.1816 20.6351C34.9661 20.9718 34.7947 21.3348 34.6716 21.7151C34.6469 21.8007 34.6268 21.8874 34.6116 21.9751C34.5114 22.3224 34.4775 22.6854 34.5116 23.0451L35.3116 29.2951C35.3794 30.3972 35.0805 31.4908 34.4616 32.4051C33.4603 33.7737 32.5291 35.1922 31.6716 36.6551C31.3332 37.1853 30.8511 37.6083 30.2816 37.8751C30.1019 37.9625 29.9144 38.0328 29.7216 38.0851C29.6312 38.119 29.5373 38.1424 29.4416 38.1551C29.3187 38.1697 29.1945 38.1697 29.0716 38.1551L24.8116 38.2251H24.7116C24.5967 38.2353 24.483 38.2554 24.3716 38.2851C24.2655 38.3045 24.1616 38.3346 24.0616 38.3751C24.0616 38.3751 24.0616 38.3751 24.0616 38.3751C23.942 38.414 23.8278 38.4678 23.7216 38.5351C23.511 38.6544 23.3132 38.7952 23.1316 38.9551C22.863 39.2113 22.6517 39.5215 22.5116 39.8651L19.1216 49.0651C18.9728 49.4534 18.9733 49.883 19.1229 50.2708C19.2725 50.6587 19.5607 50.9774 19.9316 51.1651L24.8216 53.5651C24.9994 53.9455 25.062 54.3696 25.0016 54.7851C24.7697 56.2121 24.6195 57.6511 24.5516 59.0951C24.4599 60.1978 24.0303 61.2454 23.3216 62.0951L23.2516 62.1551L17.8216 67.8551C17.7241 67.9562 17.637 68.0667 17.5616 68.1851V68.2451C17.4733 68.3665 17.4057 68.5017 17.3616 68.6451C17.025 69.312 16.9194 70.0718 17.0616 70.8051L18.5916 77.1051C18.6221 77.2748 18.6877 77.4363 18.7841 77.5792C18.8805 77.7221 19.0057 77.8433 19.1516 77.9351L26.3316 81.4651C26.1924 81.3727 26.0729 81.2535 25.9802 81.1144C25.8875 80.9753 25.8234 80.8192 25.7916 80.6551L24.2716 74.3551C24.1913 73.9491 24.1913 73.5312 24.2716 73.1251C24.3718 72.4882 24.649 71.8922 25.0716 71.4051L30.5016 65.7051L30.5616 65.6451C31.2734 64.7963 31.7064 63.7488 31.8016 62.6451C31.8728 61.2009 32.0264 59.7619 32.2616 58.3351C32.3266 57.8586 32.2299 57.3739 31.987 56.9588C31.744 56.5436 31.3689 56.2219 30.9216 56.0451L27.4016 54.8151C27.1908 54.7373 26.9975 54.6185 26.8328 54.4655C26.6682 54.3125 26.5356 54.1284 26.4426 53.9238C26.3496 53.7192 26.2981 53.4982 26.2911 53.2736C26.284 53.0489 26.3216 52.8252 26.4016 52.6151L29.7916 43.4151C29.9258 43.0658 30.1418 42.7537 30.4216 42.5051C30.8828 42.0561 31.4892 41.7865 32.1316 41.7451L36.3916 41.6751C36.8144 41.6647 37.2289 41.5551 37.6016 41.3551C38.1684 41.0882 38.6471 40.6649 38.9816 40.1351C39.8516 38.6751 40.7816 37.2451 41.7716 35.8851C42.3906 34.9715 42.683 33.8757 42.6016 32.7751L41.7916 26.5351C41.7533 26.1661 41.7838 25.7931 41.8816 25.4351C42.0322 24.7533 42.3799 24.1308 42.8816 23.6451L49.1316 18.0251C49.2921 17.8487 49.5042 17.7276 49.7378 17.6791C49.9713 17.6306 50.2141 17.6572 50.4316 17.7551L43.1216 14.2751ZM37.6316 81.5551C37.7352 81.0622 37.7096 80.5508 37.5571 80.0707C37.4047 79.5905 37.1306 79.158 36.7616 78.8151C36.3161 78.4096 35.9048 77.9681 35.5316 77.4951C35.4006 77.3135 35.2351 77.1595 35.0444 77.042C34.8537 76.9245 34.6417 76.8458 34.4206 76.8105C34.1994 76.7752 33.9735 76.7839 33.7557 76.8362C33.5379 76.8885 33.3326 76.9833 33.1516 77.1151L29.9616 79.5351L27.9616 86.2451C27.8514 86.5736 27.8624 86.9306 27.9926 87.2516C28.1229 87.5726 28.3637 87.8364 28.6716 87.9951V87.9951L35.9016 91.5451C35.5915 91.3861 35.3491 91.1206 35.2187 90.7974C35.0883 90.4742 35.0787 90.1149 35.1916 89.7851L37.6316 81.5551Z" fill="white"/>
<path opacity="0.05" d="M73.2716 18.9351C73.0742 18.8446 72.8547 18.8134 72.6398 18.8454C72.425 18.8773 72.2241 18.971 72.0616 19.1151L69.6616 20.9351L69.2116 22.4651C69.1037 22.9572 69.1263 23.4689 69.2772 23.9495C69.428 24.4301 69.7019 24.863 70.0716 25.2051C70.5176 25.6133 70.9321 26.0545 71.3116 26.5251C71.5793 26.8883 71.9796 27.131 72.4254 27.2003C72.8712 27.2696 73.3263 27.1599 73.6916 26.8951L79.2816 22.6651C79.4394 22.524 79.6334 22.4296 79.8418 22.3926C80.0502 22.3555 80.2648 22.3771 80.4616 22.4551L73.2716 18.9351ZM65.6916 41.0151C64.5616 36.3351 61.3916 34.1651 57.4916 34.7551C57.9328 35.6149 58.2686 36.5248 58.4916 37.4651C60.2816 44.8851 56.2216 55.8451 49.4916 61.9451C47.4912 63.9021 44.9656 65.2361 42.2216 65.7851C44.8916 70.6651 50.8616 70.7851 56.7016 65.4951C63.4616 59.3651 67.4616 48.4051 65.6916 41.0151ZM63.6916 8.93514C63.5412 8.85849 63.3789 8.80778 63.2116 8.78514L58.7616 8.01514C58.2715 7.95983 57.7762 8.05686 57.3432 8.29305C56.9102 8.52924 56.5604 8.89311 56.3416 9.33514L52.7216 17.5151C52.5099 17.9376 52.2178 18.3146 51.8616 18.6251C51.6566 18.8209 51.4321 18.9951 51.1916 19.1451L52.7716 23.3651C52.8459 23.5692 52.9634 23.7549 53.116 23.9094C53.2686 24.064 53.4528 24.1838 53.6559 24.2607C53.8591 24.3376 54.0764 24.3697 54.2931 24.355C54.5098 24.3402 54.7208 24.2789 54.9116 24.1751C55.7708 23.7614 56.656 23.404 57.5616 23.1051C58.1233 22.9004 58.6397 22.5879 59.0816 22.1851C59.4431 21.8718 59.7359 21.4871 59.9416 21.0551L63.5516 12.8851C63.7716 12.444 64.1215 12.081 64.5542 11.845C64.987 11.609 65.4816 11.5113 65.9716 11.5651L70.4516 12.2651C70.6077 12.2891 70.7594 12.3362 70.9016 12.4051L63.6916 8.93514ZM56.3416 86.1551C56.1262 85.9941 55.9656 85.7706 55.8816 85.5151L54.0616 80.6651C53.9901 80.4589 53.8742 80.2709 53.7221 80.1143C53.57 79.9578 53.3853 79.8366 53.1811 79.7594C52.977 79.6821 52.7584 79.6506 52.5407 79.6672C52.3231 79.6837 52.1117 79.7479 51.9216 79.8551C51.0647 80.2741 50.1792 80.6317 49.2716 80.9251C48.9788 81.0307 48.7001 81.1718 48.4416 81.3451L48.6816 81.9651C48.7821 82.2762 49.0013 82.5349 49.2916 82.6851V82.6851L56.3416 86.1551ZM43.1216 14.2751C42.9685 14.2043 42.7999 14.1733 42.6316 14.1851C42.3346 14.2103 42.0554 14.3375 41.8416 14.5451L35.5816 20.1651C35.4941 20.2446 35.4138 20.3316 35.3416 20.4251C35.282 20.4902 35.2285 20.5605 35.1816 20.6351C34.9661 20.9718 34.7947 21.3348 34.6716 21.7151C34.6469 21.8007 34.6268 21.8874 34.6116 21.9751C34.5114 22.3224 34.4775 22.6854 34.5116 23.0451L35.3116 29.2951C35.3794 30.3972 35.0805 31.4908 34.4616 32.4051C33.4603 33.7737 32.5291 35.1922 31.6716 36.6551C31.3332 37.1853 30.8511 37.6083 30.2816 37.8751C30.1019 37.9625 29.9144 38.0328 29.7216 38.0851C29.6312 38.119 29.5373 38.1424 29.4416 38.1551C29.3187 38.1697 29.1945 38.1697 29.0716 38.1551L24.8116 38.2251H24.7116C24.5967 38.2353 24.483 38.2554 24.3716 38.2851C24.2655 38.3045 24.1616 38.3346 24.0616 38.3751C24.0616 38.3751 24.0616 38.3751 24.0616 38.3751C23.942 38.414 23.8278 38.4678 23.7216 38.5351C23.511 38.6544 23.3132 38.7952 23.1316 38.9551C22.863 39.2113 22.6517 39.5215 22.5116 39.8651L19.1216 49.0651C18.9728 49.4534 18.9733 49.883 19.1229 50.2708C19.2725 50.6587 19.5607 50.9774 19.9316 51.1651L24.8216 53.5651C24.9994 53.9455 25.062 54.3696 25.0016 54.7851C24.7697 56.2121 24.6195 57.6511 24.5516 59.0951C24.4599 60.1978 24.0303 61.2454 23.3216 62.0951L23.2516 62.1551L17.8216 67.8551C17.7241 67.9562 17.637 68.0667 17.5616 68.1851V68.2451C17.4733 68.3665 17.4057 68.5017 17.3616 68.6451C17.025 69.312 16.9194 70.0718 17.0616 70.8051L18.5916 77.1051C18.6221 77.2748 18.6877 77.4363 18.7841 77.5792C18.8805 77.7221 19.0057 77.8433 19.1516 77.9351L26.3316 81.4651C26.1924 81.3727 26.0729 81.2535 25.9802 81.1144C25.8875 80.9753 25.8234 80.8192 25.7916 80.6551L24.2716 74.3551C24.1913 73.9491 24.1913 73.5312 24.2716 73.1251C24.3718 72.4882 24.649 71.8922 25.0716 71.4051L30.5016 65.7051L30.5616 65.6451C31.2734 64.7963 31.7064 63.7488 31.8016 62.6451C31.8728 61.2009 32.0264 59.7619 32.2616 58.3351C32.3266 57.8586 32.2299 57.3739 31.987 56.9588C31.744 56.5436 31.3689 56.2219 30.9216 56.0451L27.4016 54.8151C27.1908 54.7373 26.9975 54.6185 26.8328 54.4655C26.6682 54.3125 26.5356 54.1284 26.4426 53.9238C26.3496 53.7192 26.2981 53.4982 26.2911 53.2736C26.284 53.0489 26.3216 52.8252 26.4016 52.6151L29.7916 43.4151C29.9258 43.0658 30.1418 42.7537 30.4216 42.5051C30.8828 42.0561 31.4892 41.7865 32.1316 41.7451L36.3916 41.6751C36.8144 41.6647 37.2289 41.5551 37.6016 41.3551C38.1684 41.0882 38.6471 40.6649 38.9816 40.1351C39.8516 38.6751 40.7816 37.2451 41.7716 35.8851C42.3906 34.9715 42.683 33.8757 42.6016 32.7751L41.7916 26.5351C41.7533 26.1661 41.7838 25.7931 41.8816 25.4351C42.0322 24.7533 42.3799 24.1308 42.8816 23.6451L49.1316 18.0251C49.2921 17.8487 49.5042 17.7276 49.7378 17.6791C49.9713 17.6306 50.2141 17.6572 50.4316 17.7551L43.1216 14.2751ZM37.6316 81.5551C37.7352 81.0622 37.7096 80.5508 37.5571 80.0707C37.4047 79.5905 37.1306 79.158 36.7616 78.8151C36.3161 78.4096 35.9048 77.9681 35.5316 77.4951C35.4006 77.3135 35.2351 77.1595 35.0444 77.042C34.8537 76.9245 34.6417 76.8458 34.4206 76.8105C34.1994 76.7752 33.9735 76.7839 33.7557 76.8362C33.5379 76.8885 33.3326 76.9833 33.1516 77.1151L29.9616 79.5351L27.9616 86.2451C27.8514 86.5736 27.8624 86.9306 27.9926 87.2516C28.1229 87.5726 28.3637 87.8364 28.6716 87.9951V87.9951L35.9016 91.5451C35.5915 91.3861 35.3491 91.1206 35.2187 90.7974C35.0883 90.4742 35.0787 90.1149 35.1916 89.7851L37.6316 81.5551Z" fill="black"/>
<path d="M30.461 65.7651L25.031 71.4651C24.6084 71.9521 24.3312 72.5481 24.231 73.1851L17.041 69.6451C17.0951 69.3202 17.1926 69.004 17.331 68.7051C17.3752 68.5616 17.4427 68.4265 17.531 68.3051V68.2451C17.6064 68.1267 17.6935 68.0161 17.791 67.9151L23.221 62.2151L30.461 65.7651Z" fill="#FAFAFA"/>
<path d="M37.5316 41.425C37.1589 41.625 36.7444 41.7346 36.3216 41.745L32.0616 41.815C31.4192 41.8564 30.8128 42.126 30.3516 42.575L23.1416 39.015C23.3233 38.8551 23.521 38.7143 23.7316 38.595C23.8378 38.5277 23.952 38.4739 24.0716 38.435C24.1716 38.3945 24.2755 38.3644 24.3816 38.345C24.493 38.3153 24.6067 38.2952 24.7216 38.285H24.8216L29.0816 38.215C29.2045 38.2296 29.3287 38.2296 29.4516 38.215L29.7316 38.145C29.9116 38.085 30.0916 38.005 30.2716 37.925L37.5316 41.425Z" fill="#FAFAFA"/>
<path d="M80.4616 22.4651C80.2641 22.3872 80.0486 22.3666 79.8399 22.4055C79.6312 22.4444 79.4377 22.5413 79.2816 22.6851L73.6916 26.9151C73.5112 27.0475 73.3064 27.143 73.089 27.196C72.8716 27.2491 72.6459 27.2587 72.4247 27.2243C72.2036 27.1899 71.9915 27.1123 71.8004 26.9957C71.6094 26.8791 71.4433 26.726 71.3116 26.5451C70.9374 26.0699 70.5225 25.6282 70.0716 25.2251C69.7027 24.8824 69.4294 24.4495 69.2786 23.969C69.1278 23.4886 69.1047 22.9772 69.2116 22.4851L69.6616 20.9551L72.0616 19.1451C72.2226 18.9988 72.4224 18.9022 72.6371 18.8667C72.8517 18.8312 73.072 18.8584 73.2716 18.9451V18.9451L80.4616 22.4651Z" fill="#FAFAFA"/>
<path d="M70.8916 12.4451C70.7494 12.3762 70.5977 12.329 70.4416 12.3051L65.9616 11.6051C65.4716 11.5512 64.9769 11.6489 64.5442 11.8849C64.1115 12.121 63.7616 12.484 63.5416 12.9251L59.9316 21.0951C59.7259 21.527 59.4331 21.9117 59.0716 22.2251L51.8616 18.6651C52.2178 18.3546 52.5099 17.9775 52.7216 17.5551L56.3416 9.37509C56.5543 8.92562 56.9015 8.55334 57.335 8.30971C57.7685 8.06608 58.267 7.96313 58.7616 8.01509L63.2216 8.72509C63.3889 8.74772 63.5511 8.79844 63.7016 8.87509V8.87509L70.8916 12.4451Z" fill="#FAFAFA"/>
<path d="M50.3418 17.8251C50.1244 17.7272 49.8815 17.7005 49.648 17.749C49.4145 17.7975 49.2023 17.9187 49.0418 18.0951L42.7918 23.7151C42.2902 24.2008 41.9424 24.8233 41.7918 25.5051L34.6118 22.0151C34.6271 21.9274 34.6471 21.8406 34.6718 21.7551C34.7949 21.3748 34.9663 21.0118 35.1818 20.6751C35.2287 20.6004 35.2822 20.5301 35.3418 20.4651C35.414 20.3715 35.4943 20.2845 35.5818 20.2051L41.8418 14.5851C42.0556 14.3774 42.3348 14.2502 42.6318 14.2251C42.8001 14.2133 42.9687 14.2443 43.1218 14.3151L50.3418 17.8251Z" fill="#FAFAFA"/>
<path opacity="0.9" d="M30.461 65.7651L25.031 71.4651C24.6084 71.9521 24.3312 72.5481 24.231 73.1851L17.041 69.6451C17.0951 69.3202 17.1926 69.004 17.331 68.7051C17.3752 68.5616 17.4427 68.4265 17.531 68.3051V68.2451C17.6064 68.1267 17.6935 68.0161 17.791 67.9151L23.221 62.2151L30.461 65.7651Z" fill="white"/>
<path opacity="0.9" d="M37.5316 41.425C37.1589 41.625 36.7444 41.7346 36.3216 41.745L32.0616 41.815C31.4192 41.8564 30.8128 42.126 30.3516 42.575L23.1416 39.015C23.3233 38.8551 23.521 38.7143 23.7316 38.595C23.8378 38.5277 23.952 38.4739 24.0716 38.435C24.1716 38.3945 24.2755 38.3644 24.3816 38.345C24.493 38.3153 24.6067 38.2952 24.7216 38.285H24.8216L29.0816 38.215C29.2045 38.2296 29.3287 38.2296 29.4516 38.215L29.7316 38.145C29.9116 38.085 30.0916 38.005 30.2716 37.925L37.5316 41.425Z" fill="white"/>
<path opacity="0.9" d="M80.4616 22.4651C80.2641 22.3872 80.0486 22.3666 79.8399 22.4055C79.6312 22.4444 79.4377 22.5413 79.2816 22.6851L73.6916 26.9151C73.5112 27.0475 73.3064 27.143 73.089 27.196C72.8716 27.2491 72.6459 27.2587 72.4247 27.2243C72.2036 27.1899 71.9915 27.1123 71.8004 26.9957C71.6094 26.8791 71.4433 26.726 71.3116 26.5451C70.9374 26.0699 70.5225 25.6282 70.0716 25.2251C69.7027 24.8824 69.4294 24.4495 69.2786 23.969C69.1278 23.4886 69.1047 22.9772 69.2116 22.4851L69.6616 20.9551L72.0616 19.1451C72.2226 18.9988 72.4224 18.9022 72.6371 18.8667C72.8517 18.8312 73.072 18.8584 73.2716 18.9451V18.9451L80.4616 22.4651Z" fill="white"/>
<path opacity="0.9" d="M70.8916 12.4451C70.7494 12.3762 70.5977 12.329 70.4416 12.3051L65.9616 11.6051C65.4716 11.5512 64.9769 11.6489 64.5442 11.8849C64.1115 12.121 63.7616 12.484 63.5416 12.9251L59.9316 21.0951C59.7259 21.527 59.4331 21.9117 59.0716 22.2251L51.8616 18.6651C52.2178 18.3546 52.5099 17.9775 52.7216 17.5551L56.3416 9.37509C56.5543 8.92562 56.9015 8.55334 57.335 8.30971C57.7685 8.06608 58.267 7.96313 58.7616 8.01509L63.2216 8.72509C63.3889 8.74772 63.5511 8.79844 63.7016 8.87509V8.87509L70.8916 12.4451Z" fill="white"/>
<path opacity="0.9" d="M50.3418 17.8251C50.1244 17.7272 49.8815 17.7005 49.648 17.749C49.4145 17.7975 49.2023 17.9187 49.0418 18.0951L42.7918 23.7151C42.2902 24.2008 41.9424 24.8233 41.7918 25.5051L34.6118 22.0151C34.6271 21.9274 34.6471 21.8406 34.6718 21.7551C34.7949 21.3748 34.9663 21.0118 35.1818 20.6751C35.2287 20.6004 35.2822 20.5301 35.3418 20.4651C35.414 20.3715 35.4943 20.2845 35.5818 20.2051L41.8418 14.5851C42.0556 14.3774 42.3348 14.2502 42.6318 14.2251C42.8001 14.2133 42.9687 14.2443 43.1218 14.3151L50.3418 17.8251Z" fill="white"/>
<path d="M82.5916 29.625L81.0716 23.325C81.0503 23.1266 80.9734 22.9382 80.8498 22.7815C80.7262 22.6248 80.5608 22.5062 80.3728 22.4393C80.1847 22.3724 79.9816 22.36 79.7868 22.4035C79.592 22.447 79.4134 22.5445 79.2716 22.685L73.6916 26.915C73.5112 27.0474 73.3064 27.1429 73.089 27.1959C72.8716 27.249 72.6459 27.2586 72.4248 27.2242C72.2037 27.1898 71.9915 27.1122 71.8005 26.9956C71.6095 26.8791 71.4433 26.7259 71.3116 26.545C70.9327 26.0771 70.5217 25.636 70.0816 25.225C69.7109 24.8833 69.4358 24.4509 69.2832 23.9704C69.1306 23.4899 69.106 22.978 69.2116 22.485L71.6616 14.235C71.7296 14.0292 71.7516 13.8109 71.7259 13.5956C71.7003 13.3804 71.6277 13.1734 71.5132 12.9893C71.3987 12.8051 71.2452 12.6484 71.0635 12.5302C70.8818 12.412 70.6763 12.3351 70.4616 12.305L66.0016 11.615C65.5111 11.5567 65.0147 11.6525 64.581 11.889C64.1474 12.1255 63.7981 12.4911 63.5816 12.935L59.9616 21.095C59.4456 22.0314 58.6014 22.7438 57.5916 23.095C56.6829 23.398 55.7944 23.7588 54.9316 24.175C54.7411 24.2805 54.53 24.3432 54.3128 24.3589C54.0956 24.3745 53.8777 24.3427 53.674 24.2656C53.4704 24.1885 53.286 24.0681 53.1336 23.9125C52.9812 23.757 52.8645 23.5702 52.7916 23.365L50.9716 18.515C50.9238 18.3189 50.823 18.1397 50.6801 17.997C50.5373 17.8544 50.3579 17.7538 50.1617 17.7063C49.9655 17.6588 49.76 17.6662 49.5677 17.7277C49.3755 17.7892 49.2038 17.9025 49.0716 18.055L42.7916 23.715C42.4184 24.0912 42.1299 24.5427 41.9454 25.0394C41.7609 25.5361 41.6846 26.0665 41.7216 26.595L42.5316 32.845C42.6045 33.9434 42.3166 35.0354 41.7116 35.955C40.7116 37.315 39.7816 38.745 38.9116 40.215C38.6262 40.6516 38.2441 41.0167 37.795 41.282C37.3459 41.5474 36.8418 41.7058 36.3216 41.745L32.0616 41.815C31.5574 41.848 31.0723 42.0207 30.6607 42.314C30.2492 42.6072 29.9275 43.0092 29.7316 43.475L26.3316 52.675C26.2514 52.8857 26.2137 53.1102 26.2207 53.3356C26.2276 53.5609 26.279 53.7826 26.3719 53.988C26.4649 54.1934 26.5975 54.3784 26.7622 54.5324C26.9269 54.6863 27.1204 54.8062 27.3316 54.885L30.8516 56.115C31.2973 56.2902 31.671 56.6105 31.9124 57.0242C32.1537 57.4379 32.2485 57.9208 32.1816 58.395C31.9551 59.826 31.8049 61.2681 31.7316 62.715C31.6345 63.8182 31.2017 64.8652 30.4916 65.715L25.0016 71.475C24.6608 71.8762 24.4131 72.3479 24.2765 72.8563C24.1399 73.3647 24.1177 73.8971 24.2116 74.415L25.7316 80.725C25.7523 80.9227 25.8286 81.1104 25.9518 81.2664C26.0749 81.4224 26.2398 81.5403 26.4273 81.6063C26.6148 81.6722 26.8172 81.6837 27.0109 81.6392C27.2046 81.5947 27.3817 81.4962 27.5216 81.355L33.1116 77.135C33.292 77.0027 33.4968 76.9072 33.7142 76.8541C33.9316 76.8011 34.1573 76.7915 34.3784 76.8258C34.5996 76.8602 34.8117 76.9379 35.0027 77.0545C35.1938 77.171 35.3599 77.3241 35.4916 77.505C35.8677 77.9755 36.2789 78.4167 36.7216 78.825C37.089 79.1669 37.3621 79.5978 37.5145 80.076C37.6669 80.5542 37.6934 81.0636 37.5916 81.555L35.1416 89.815C35.0735 90.0223 35.0521 90.2421 35.0789 90.4587C35.1058 90.6752 35.1801 90.8831 35.2967 91.0676C35.4133 91.252 35.5692 91.4084 35.7533 91.5255C35.9374 91.6426 36.1451 91.7176 36.3616 91.745L40.8316 92.435C41.3221 92.4933 41.8185 92.3976 42.2522 92.1611C42.6858 91.9245 43.0351 91.559 43.2516 91.115L46.8716 82.955C47.3795 82.001 48.2244 81.2702 49.2416 80.905C50.1485 80.6098 51.034 80.2523 51.8916 79.835C52.0825 79.7277 52.2945 79.6636 52.5128 79.647C52.7312 79.6304 52.9505 79.6618 53.1554 79.739C53.3603 79.8162 53.5458 79.9373 53.6989 80.0938C53.852 80.2503 53.969 80.4385 54.0416 80.645L55.8516 85.485C55.8981 85.6819 55.9979 85.8622 56.1402 86.0061C56.2825 86.1499 56.4617 86.2517 56.6581 86.3003C56.8545 86.3489 57.0605 86.3423 57.2534 86.2814C57.4463 86.2205 57.6187 86.1076 57.7516 85.955L64.0116 80.325C64.3848 79.9489 64.6733 79.4973 64.8578 79.0007C65.0424 78.504 65.1187 77.9736 65.0816 77.445L64.2716 71.195C64.1926 70.0993 64.4812 69.0084 65.0916 68.095C66.0916 66.7284 67.0249 65.3084 67.8916 63.835C68.1754 63.396 68.5568 63.0286 69.0061 62.7614C69.4554 62.4943 69.9604 62.3347 70.4816 62.295L74.7416 62.225C75.2452 62.1898 75.7293 62.0162 76.1405 61.7233C76.5516 61.4303 76.8739 61.0295 77.0716 60.565L80.4716 51.365C80.5516 51.155 80.5892 50.9312 80.5821 50.7066C80.5751 50.482 80.5236 50.261 80.4306 50.0564C80.3376 49.8518 80.205 49.6677 80.0404 49.5147C79.8757 49.3617 79.6824 49.2428 79.4716 49.165L75.9516 47.925C75.5037 47.7529 75.1279 47.4332 74.8861 47.0187C74.6443 46.6042 74.551 46.1197 74.6216 45.645C74.8481 44.2174 74.9983 42.7787 75.0716 41.335C75.1556 40.2287 75.5899 39.1778 76.3116 38.335L81.7916 32.575C82.1356 32.1736 82.3859 31.7005 82.5243 31.1903C82.6627 30.68 82.6857 30.1453 82.5916 29.625ZM56.6616 65.455C49.8816 71.555 42.9416 70.455 41.1516 63.055C39.3616 55.655 43.4016 44.675 50.1516 38.575C56.9016 32.475 63.8716 33.575 65.6616 40.985C67.4516 48.395 63.4616 59.365 56.6616 65.455Z" fill="#FAFAFA"/>
<path opacity="0.75" d="M82.5916 29.625L81.0716 23.325C81.0503 23.1266 80.9734 22.9382 80.8498 22.7815C80.7262 22.6248 80.5608 22.5062 80.3728 22.4393C80.1847 22.3724 79.9816 22.36 79.7868 22.4035C79.592 22.447 79.4134 22.5445 79.2716 22.685L73.6916 26.915C73.5112 27.0474 73.3064 27.1429 73.089 27.1959C72.8716 27.249 72.6459 27.2586 72.4248 27.2242C72.2037 27.1898 71.9915 27.1122 71.8005 26.9956C71.6095 26.8791 71.4433 26.7259 71.3116 26.545C70.9327 26.0771 70.5217 25.636 70.0816 25.225C69.7109 24.8833 69.4358 24.4509 69.2832 23.9704C69.1306 23.4899 69.106 22.978 69.2116 22.485L71.6616 14.235C71.7296 14.0292 71.7516 13.8109 71.7259 13.5956C71.7003 13.3804 71.6277 13.1734 71.5132 12.9893C71.3987 12.8051 71.2452 12.6484 71.0635 12.5302C70.8818 12.412 70.6763 12.3351 70.4616 12.305L66.0016 11.615C65.5111 11.5567 65.0147 11.6525 64.581 11.889C64.1474 12.1255 63.7981 12.4911 63.5816 12.935L59.9616 21.095C59.4456 22.0314 58.6014 22.7438 57.5916 23.095C56.6829 23.398 55.7944 23.7588 54.9316 24.175C54.7411 24.2805 54.53 24.3432 54.3128 24.3589C54.0956 24.3745 53.8777 24.3427 53.674 24.2656C53.4704 24.1885 53.286 24.0681 53.1336 23.9125C52.9812 23.757 52.8645 23.5702 52.7916 23.365L50.9716 18.515C50.9238 18.3189 50.823 18.1397 50.6801 17.997C50.5373 17.8544 50.3579 17.7538 50.1617 17.7063C49.9655 17.6588 49.76 17.6662 49.5677 17.7277C49.3755 17.7892 49.2038 17.9025 49.0716 18.055L42.7916 23.715C42.4184 24.0912 42.1299 24.5427 41.9454 25.0394C41.7609 25.5361 41.6846 26.0665 41.7216 26.595L42.5316 32.845C42.6045 33.9434 42.3166 35.0354 41.7116 35.955C40.7116 37.315 39.7816 38.745 38.9116 40.215C38.6262 40.6516 38.2441 41.0167 37.795 41.282C37.3459 41.5474 36.8418 41.7058 36.3216 41.745L32.0616 41.815C31.5574 41.848 31.0723 42.0207 30.6607 42.314C30.2492 42.6072 29.9275 43.0092 29.7316 43.475L26.3316 52.675C26.2514 52.8857 26.2137 53.1102 26.2207 53.3356C26.2276 53.5609 26.279 53.7826 26.3719 53.988C26.4649 54.1934 26.5975 54.3784 26.7622 54.5324C26.9269 54.6863 27.1204 54.8062 27.3316 54.885L30.8516 56.115C31.2973 56.2902 31.671 56.6105 31.9123 57.0242C32.1537 57.4379 32.2485 57.9208 32.1816 58.395C31.9551 59.826 31.8049 61.2681 31.7316 62.715C31.6345 63.8182 31.2017 64.8652 30.4916 65.715L25.0016 71.475C24.6608 71.8762 24.4131 72.3479 24.2765 72.8563C24.1399 73.3647 24.1177 73.8971 24.2116 74.415L25.7316 80.725C25.7523 80.9227 25.8286 81.1104 25.9518 81.2664C26.0749 81.4224 26.2398 81.5403 26.4273 81.6063C26.6148 81.6722 26.8172 81.6837 27.0109 81.6392C27.2046 81.5947 27.3817 81.4962 27.5216 81.355L33.1116 77.135C33.292 77.0027 33.4968 76.9072 33.7142 76.8541C33.9316 76.8011 34.1573 76.7915 34.3784 76.8258C34.5996 76.8602 34.8117 76.9379 35.0027 77.0545C35.1938 77.171 35.3599 77.3241 35.4916 77.505C35.8677 77.9755 36.2789 78.4167 36.7216 78.825C37.089 79.1669 37.3621 79.5978 37.5145 80.076C37.6669 80.5542 37.6934 81.0636 37.5916 81.555L35.1416 89.815C35.0735 90.0223 35.0521 90.2421 35.0789 90.4587C35.1058 90.6752 35.1801 90.8831 35.2967 91.0676C35.4133 91.252 35.5692 91.4084 35.7533 91.5255C35.9374 91.6426 36.1451 91.7176 36.3616 91.745L40.8316 92.435C41.3221 92.4933 41.8185 92.3976 42.2522 92.1611C42.6858 91.9245 43.0351 91.559 43.2516 91.115L46.8716 82.955C47.3795 82.001 48.2244 81.2702 49.2416 80.905C50.1485 80.6098 51.034 80.2523 51.8916 79.835C52.0825 79.7277 52.2945 79.6636 52.5128 79.647C52.7312 79.6304 52.9505 79.6618 53.1554 79.739C53.3603 79.8162 53.5458 79.9373 53.6989 80.0938C53.852 80.2503 53.969 80.4385 54.0416 80.645L55.8516 85.485C55.8981 85.6819 55.9979 85.8622 56.1402 86.0061C56.2825 86.1499 56.4617 86.2517 56.6581 86.3003C56.8545 86.3489 57.0605 86.3423 57.2534 86.2814C57.4463 86.2205 57.6187 86.1076 57.7516 85.955L64.0116 80.325C64.3848 79.9489 64.6733 79.4973 64.8578 79.0007C65.0423 78.504 65.1187 77.9736 65.0816 77.445L64.2716 71.195C64.1926 70.0993 64.4812 69.0084 65.0916 68.095C66.0916 66.7284 67.0249 65.3084 67.8916 63.835C68.1754 63.396 68.5568 63.0286 69.0061 62.7614C69.4554 62.4943 69.9604 62.3347 70.4816 62.295L74.7416 62.225C75.2452 62.1898 75.7293 62.0162 76.1405 61.7233C76.5516 61.4303 76.8739 61.0295 77.0716 60.565L80.4716 51.365C80.5516 51.155 80.5892 50.9312 80.5821 50.7066C80.5751 50.482 80.5236 50.261 80.4306 50.0564C80.3376 49.8518 80.205 49.6677 80.0404 49.5147C79.8757 49.3617 79.6824 49.2428 79.4716 49.165L75.9516 47.925C75.5037 47.7529 75.1279 47.4332 74.8861 47.0187C74.6443 46.6042 74.551 46.1197 74.6216 45.645C74.8481 44.2174 74.9983 42.7787 75.0716 41.335C75.1556 40.2287 75.5899 39.1778 76.3116 38.335L81.7916 32.575C82.1356 32.1736 82.3859 31.7005 82.5243 31.1903C82.6627 30.68 82.6857 30.1453 82.5916 29.625ZM56.6616 65.455C49.8816 71.555 42.9416 70.455 41.1516 63.055C39.3616 55.655 43.4016 44.675 50.1516 38.575C56.9016 32.475 63.8716 33.575 65.6616 40.985C67.4516 48.395 63.4616 59.365 56.6616 65.455Z" fill="#D0D0D0"/>
</svg>
