<svg width="1219" height="809" viewBox="0 0 1219 809" fill="none" xmlns="http://www.w3.org/2000/svg">
<path d="M0 87.5V808.5H1224.5L0 87.5Z" fill="#6672DF"/>
<path d="M593.5 742C809.167 742 984 641.097 984 516.627C984 392.157 809.167 291.254 593.5 291.254C377.833 291.254 203 392.157 203 516.627C203 641.097 377.833 742 593.5 742Z" fill="#F0F0F0"/>
<path d="M619.991 606.639H605.204C603.856 606.641 602.561 606.121 601.588 605.189C600.616 604.257 600.041 602.985 599.985 601.64C599.632 587.246 598.183 572.899 595.651 558.725C595.471 557.744 595.577 556.733 595.955 555.811C596.332 554.888 596.967 554.093 597.782 553.52C598.598 552.947 599.561 552.619 600.557 552.575C601.553 552.532 602.541 552.775 603.403 553.275L758.316 642.688C759.108 643.148 759.766 643.808 760.223 644.602C760.68 645.396 760.921 646.297 760.921 647.213C760.921 648.129 760.68 649.029 760.223 649.823C759.766 650.617 759.108 651.277 758.316 651.737C757.324 652.301 756.545 653.174 756.097 654.223C755.648 655.271 755.556 656.438 755.834 657.543C756.112 658.649 756.745 659.634 757.636 660.346C758.527 661.058 759.626 661.459 760.767 661.487L857.329 664.42C858.068 664.442 858.803 664.307 859.486 664.024C860.169 663.74 860.784 663.315 861.29 662.776C861.796 662.237 862.181 661.597 862.421 660.898C862.661 660.199 862.749 659.456 862.68 658.72L857.679 603.006C857.597 602.132 857.297 601.292 856.806 600.564C856.315 599.836 855.65 599.242 854.87 598.838C854.091 598.433 853.222 598.23 852.344 598.248C851.466 598.266 850.606 598.504 849.843 598.94L841.157 603.94C840.362 604.399 839.459 604.641 838.54 604.641C837.621 604.641 836.718 604.399 835.922 603.94L691.363 520.477C690.346 519.886 689.558 518.971 689.126 517.878C688.693 516.785 688.641 515.579 688.978 514.453C689.315 513.327 690.021 512.347 690.983 511.671C691.945 510.995 693.106 510.663 694.28 510.727C716.57 511.96 741.278 512.66 768.719 512.827C770.099 512.836 771.419 513.389 772.393 514.366C773.367 515.342 773.916 516.664 773.921 518.043V520.193C773.921 521.091 774.152 521.974 774.592 522.756C775.031 523.539 775.665 524.195 776.432 524.662C777.199 525.129 778.073 525.391 778.97 525.423C779.868 525.454 780.758 525.255 781.556 524.843L852.694 487.895C853.543 487.453 854.255 486.786 854.752 485.968C855.249 485.149 855.511 484.211 855.511 483.253C855.511 482.296 855.249 481.357 854.752 480.539C854.255 479.721 853.543 479.054 852.694 478.612L781.556 441.73C780.76 441.319 779.871 441.12 778.975 441.151C778.079 441.182 777.206 441.442 776.439 441.907C775.673 442.372 775.039 443.026 774.598 443.806C774.157 444.587 773.924 445.467 773.921 446.363V448.413C773.921 449.103 773.784 449.787 773.519 450.424C773.254 451.061 772.865 451.639 772.376 452.125C771.886 452.612 771.305 452.997 770.666 453.258C770.027 453.519 769.343 453.651 768.652 453.646C617.707 451.98 568.409 422.831 528.581 399.232C525.08 397.166 521.645 395.132 518.211 393.149L395.474 322.302C368.357 331.401 342.192 343.123 317.351 357.301C301.142 366.555 285.768 377.2 271.404 389.116L406.061 466.829C409.495 468.812 413.013 470.796 416.597 472.812C457.643 495.878 503.89 521.877 508.525 601.14C508.568 601.852 508.465 602.565 508.222 603.236C507.98 603.907 507.602 604.521 507.114 605.04C506.625 605.56 506.035 605.975 505.381 606.258C504.726 606.542 504.02 606.689 503.306 606.689H489.086C487.956 606.693 486.858 607.062 485.956 607.74C485.053 608.418 484.395 609.37 484.078 610.454C483.761 611.537 483.803 612.694 484.198 613.752C484.592 614.81 485.319 615.711 486.268 616.322L551.704 658.287C552.545 658.826 553.523 659.113 554.522 659.113C555.521 659.113 556.498 658.826 557.339 658.287L622.792 616.322C623.764 615.721 624.512 614.819 624.923 613.753C625.333 612.687 625.384 611.516 625.066 610.419C624.749 609.321 624.081 608.358 623.165 607.676C622.248 606.993 621.134 606.629 619.991 606.639Z" fill="#E0E0E0"/>
<path d="M881.369 115.495L894.607 123.128C894.539 122.575 894.5 122.018 894.49 121.461V117.628C894.49 110.812 899.275 108.045 905.177 111.445C907.719 113.004 909.892 115.097 911.545 117.578C912.512 109.012 919.247 105.812 927.416 110.528C936.252 115.628 943.405 128.027 943.405 138.227V143.827C943.471 146.123 943.009 148.404 942.054 150.493L953.041 156.826C954.764 157.954 956.199 159.471 957.23 161.254C958.261 163.037 958.859 165.036 958.976 167.092C958.976 170.876 956.308 172.409 953.041 170.526L881.353 129.161C879.629 128.035 878.194 126.518 877.166 124.735C876.138 122.951 875.544 120.95 875.434 118.894C875.451 115.145 878.102 113.611 881.369 115.495Z" fill="#E6E6E6"/>
<path d="M892.606 58.2973L885.304 52.6809V36.615C885.304 23.8822 875.151 9.09954 864.114 2.73316C853.078 -3.63322 844.108 1.51654 844.108 14.266V16.5992C841.797 12.8374 838.648 9.66046 834.905 7.31629C826.953 2.73316 820.518 6.44966 820.518 15.6492V16.7159L810.348 10.8328C805.13 7.81627 800.879 10.2662 800.879 16.2992C801.059 19.5837 802.011 22.7795 803.656 25.6284C805.301 28.4773 807.593 30.8992 810.348 32.6985L892.639 80.1797C897.858 83.1962 902.109 80.763 902.109 74.7133C901.93 71.4223 900.975 68.2203 899.324 65.3677C897.673 62.5151 895.371 60.0925 892.606 58.2973Z" fill="#E6E6E6"/>
<path d="M854.695 645.671V656.154L769.886 653.571V643.088L772.57 641.538L584.181 532.776C589.716 552.159 592.516 575.541 592.516 603.523H611.339V614.023L554.555 650.471L497.771 614.073V603.573H516.477C512.393 510.244 453.475 484.862 409.995 459.763C398.108 452.88 333.939 415.848 278.073 383.633V373.117C290.503 363.381 303.619 354.553 317.318 346.701C339.288 334.155 362.316 323.56 386.138 315.036L514.293 389.016C559.307 415.031 604.97 450.68 781.64 450.68V439.747L844.725 472.529V483.012L781.64 515.777V504.861C733.158 504.861 692.63 503.277 659.053 500.094L838.423 603.623L850.177 596.823L854.695 645.671Z" fill="#6672DF"/>
<path opacity="0.15" d="M854.695 645.671V656.154L769.886 653.571V643.088L772.57 641.538L584.181 532.776C589.716 552.159 592.516 575.541 592.516 603.523H611.339V614.023L554.555 650.471L497.771 614.073V603.573H516.477C512.393 510.244 453.475 484.862 409.995 459.763L278.073 383.633V373.117C290.503 363.381 303.619 354.553 317.318 346.701C339.288 334.155 362.316 323.56 386.138 315.036L386.572 315.286L514.293 389.016C559.307 415.031 604.97 450.68 781.64 450.68V439.747L844.725 472.529V483.012L781.64 515.777V504.861C733.158 504.861 692.63 503.277 659.053 500.094L838.423 603.623L850.177 596.823L854.695 645.671Z" fill="black"/>
<path opacity="0.15" d="M516.71 603.54H516.477C512.376 510.21 453.458 484.828 409.979 459.729L278.073 383.649V373.133L409.929 449.247C455.042 475.245 516.71 501.578 516.71 603.54Z" fill="black"/>
<path opacity="0.15" d="M781.69 494.311V504.777C733.208 504.777 692.68 503.194 659.103 500.011L636.513 487.028C655.269 489.461 676.525 491.278 700.699 492.494C724.873 493.711 751.747 494.311 781.69 494.311Z" fill="black"/>
<path d="M769.886 643.088L781.656 636.305L579.829 519.776C588.282 541.442 592.449 568.974 592.449 603.523H611.338L554.555 639.938L497.771 603.523H516.694C516.694 501.577 455.008 475.195 409.995 449.23L278.189 373.166C290.619 363.431 303.735 354.603 317.434 346.751C339.404 334.205 362.433 323.609 386.255 315.086L386.688 315.336L514.41 389.066C559.423 415.081 605.087 450.73 781.756 450.73V439.797L844.841 472.579L781.756 505.344V494.428C751.747 494.428 724.922 493.828 700.815 492.611C676.708 491.394 655.385 489.595 636.646 487.145L838.54 603.673L850.293 596.873L854.761 645.804L769.886 643.088Z" fill="#6672DF"/>
<path opacity="0.15" d="M781.69 636.305L772.604 641.555L584.214 532.793C582.814 527.793 581.363 523.61 579.863 519.793L781.69 636.305Z" fill="black"/>
<path opacity="0.15" d="M554.555 639.955V650.438L497.771 614.023V603.54L554.555 639.955Z" fill="black"/>
<path d="M692.596 81.2298C692.535 80.7327 692.351 80.2587 692.06 79.8512C691.768 79.4436 691.38 79.1155 690.929 78.8966C689.637 78.2447 688.209 77.905 686.761 77.905C685.314 77.905 683.886 78.2447 682.593 78.8966C682.14 79.1117 681.749 79.4388 681.457 79.8471C681.165 80.2554 680.983 80.7313 680.926 81.2298V507.411C680.926 509.244 683.56 510.744 686.811 510.744C690.062 510.744 692.696 509.244 692.696 507.411V81.2298H692.596Z" fill="#37474F"/>
<path d="M686.711 84.5629C689.962 84.5629 692.596 83.0705 692.596 81.2297C692.596 79.3888 689.962 77.8965 686.711 77.8965C683.461 77.8965 680.826 79.3888 680.826 81.2297C680.826 83.0705 683.461 84.5629 686.711 84.5629Z" fill="#455A64"/>
<path d="M753.231 156.726L741.678 136.727L664.922 92.4624L659.12 95.8123V122.461L735.876 166.726L741.794 163.459L753.231 156.726Z" fill="#6672DF"/>
<path d="M659.12 95.8123L735.876 140.077L747.413 160.076L735.876 166.726L659.12 122.461V95.8123Z" fill="#6672DF"/>
<g opacity="0.3">
<path opacity="0.3" d="M659.12 95.8123L735.876 140.077L747.446 160.126L735.876 166.726L659.12 122.461V95.8123Z" fill="black"/>
</g>
<path opacity="0.1" d="M741.678 136.727L735.876 140.077L659.12 95.8123L664.922 92.4624L741.678 136.727Z" fill="black"/>
<path opacity="0.2" d="M735.876 140.077L741.678 136.727L753.231 156.726L747.446 160.126L735.876 140.077Z" fill="black"/>
<path d="M753.231 250.089L741.678 230.09L664.922 185.825L659.12 189.175V215.824L735.876 260.088L741.794 256.822L753.231 250.089Z" fill="#6672DF"/>
<path d="M659.12 189.175L735.876 233.439L747.413 253.422L735.876 260.088L659.12 215.824V189.175Z" fill="#6672DF"/>
<g opacity="0.3">
<path opacity="0.3" d="M659.12 189.175L735.876 233.439L747.446 253.489L735.876 260.088L659.12 215.824V189.175Z" fill="black"/>
</g>
<path opacity="0.1" d="M741.678 230.09L735.876 233.439L659.12 189.175L664.922 185.825L741.678 230.09Z" fill="black"/>
<path opacity="0.2" d="M735.876 233.439L741.678 230.09L753.231 250.089L747.446 253.489L735.876 233.439Z" fill="black"/>
<path d="M708.601 171.176L631.845 126.844L620.292 133.511L631.845 153.493L708.601 197.824V171.176Z" fill="#6672DF"/>
<path d="M631.845 126.844L637.48 123.445L714.353 167.859L708.601 171.176L631.845 126.844Z" fill="#6672DF"/>
<g opacity="0.4">
<path opacity="0.4" d="M631.845 126.844L637.48 123.445L714.353 167.859L708.601 171.176L631.845 126.844Z" fill="white"/>
</g>
<path d="M714.353 194.508L708.601 197.824V171.176L714.353 167.859V194.508Z" fill="#6672DF"/>
<path opacity="0.1" d="M714.353 194.508L708.601 197.824V171.176L714.353 167.859V194.508Z" fill="black"/>
<path opacity="0.1" d="M403.343 424.731C439.639 424.731 469.063 407.748 469.063 386.799C469.063 365.85 439.639 348.868 403.343 348.868C367.047 348.868 337.624 365.85 337.624 386.799C337.624 407.748 367.047 424.731 403.343 424.731Z" fill="black"/>
<path d="M456.992 378.966C457.229 379.684 457.312 380.443 457.238 381.195C457.163 381.947 456.932 382.675 456.559 383.333C454.612 384.998 452.344 386.246 449.895 386.999C447.446 387.753 444.868 387.997 442.321 387.716C436.812 387.179 431.511 385.327 426.867 382.316C423.306 380.126 419.151 379.1 414.98 379.383C410.662 379.383 407.461 378.55 407.094 377.433C406.444 375.45 406.394 374.2 407.344 374.216L456.992 378.966Z" fill="#263238"/>
<path d="M410.495 360.484C412.61 362.079 415.141 363.026 417.783 363.213C420.426 363.399 423.065 362.816 425.383 361.534L426.283 333.285H407.661L410.495 360.484Z" fill="#FFA8A7"/>
<path d="M453.125 373.333C446.397 371.005 439.958 367.913 433.936 364.117C432.669 363.217 431.685 362.45 430.851 361.75C428.967 359.851 427.817 355.734 427 355.267C426.183 354.801 424.816 356.301 424.166 356.651C422.807 357.402 421.32 357.894 419.781 358.101C415.23 358.684 415.047 357.767 414.913 359.251C414.871 359.805 414.871 360.362 414.913 360.917C412.496 360.6 410.579 359.901 410.429 358.984L410.028 356.084C407.628 355.951 407.628 360.25 407.028 365.1C406.527 369.017 405.694 371.883 406.878 374.717C410.629 377.75 416.997 376.733 420.665 377.2C425.85 377.866 428.401 381.583 435.669 383.866C447.34 387.433 454.492 382.55 456.576 380.45C457.959 377.766 457.176 374.85 453.125 373.333Z" fill="#37474F"/>
<path d="M386.638 404.032C386.438 405.798 386.171 410.698 377.185 411.965C368.199 413.231 362.548 410.165 360.164 405.832C357.779 401.499 358.346 397.982 357.98 393.982C357.613 389.983 354.312 387.833 353.361 385.766C351.978 382.733 354.045 378.016 354.045 378.016L386.638 404.032Z" fill="#263238"/>
<path d="M356.162 371.067C357.246 379.267 373.151 378.667 371.867 372.117L374.768 352.234L356.779 352.734L356.162 371.067Z" fill="#FFA8A7"/>
<path d="M386.004 399.949C384.732 398.202 383.357 396.533 381.887 394.949C376.529 388.072 373.311 379.773 372.634 371.084C372.634 370.6 372.534 369.667 372.067 369.417C371.6 369.167 371.083 369.534 370.583 369.75C369.692 370.133 368.748 370.375 367.782 370.467C365.283 370.539 362.781 370.433 360.297 370.15C359.68 370.234 359.48 372.133 359.513 374.217C358.396 373.483 358.029 372.067 357.012 371.234C356.462 370.784 356.212 370.767 356.229 370.034C356.246 369.3 356.229 369.134 356.229 368.65C355.412 368.4 354.712 371.534 354.045 373.917C353.245 376.683 352.278 379.8 353.345 382.616C354.027 384.152 354.871 385.61 355.862 386.966C357.571 389.32 358.681 392.054 359.096 394.932C359.213 396.182 359.096 397.466 359.296 398.716C359.578 400.832 360.463 402.822 361.847 404.448C363.231 406.073 365.054 407.266 367.099 407.882C372.567 409.548 380.803 409.365 385.638 405.549C387.355 404.249 386.788 401.432 386.004 399.949Z" fill="#37474F"/>
<path d="M364.932 186.692C361.364 219.49 360.78 277.804 360.78 277.804C360.78 277.804 355.379 293.07 355.396 304.47C355.396 328.369 356.012 361.134 356.012 361.134C361.724 363.214 367.943 363.459 373.801 361.834C373.801 361.834 382.904 308.503 386.955 289.204C390.506 272.421 396.208 234.123 396.208 234.123L404.06 281.037C402.362 289.725 401.613 298.571 401.826 307.42C402.193 316.452 408.895 351.151 408.895 351.151C411.829 353.917 422.516 351.601 426.283 349.201C426.283 349.201 428.918 290.72 429.718 281.237C430.768 268.738 432.685 179.175 432.685 179.175L364.932 186.692Z" fill="#37474F"/>
<path d="M396.208 234.09L400.592 213.924C406.641 212.432 412.338 209.771 417.364 206.091C417.364 206.091 414.796 212.524 404.027 217.457L399.559 236.339L403.393 277.804L396.208 234.09Z" fill="#263238"/>
<path d="M557.039 97.1625C556.089 94.2959 550.854 96.7625 545.369 99.4123C540.367 101.846 530.598 106.512 529.897 105.512C529.197 104.512 529.764 100.312 528.547 97.5791C527.33 94.8459 524.096 93.9959 524.112 96.4291C524.112 97.8291 523.262 102.479 522.979 104.612C522.695 106.745 522.162 109.612 520.061 110.879C517.961 112.145 477.015 118.461 477.015 118.461C477.015 118.461 445.172 99.579 438.67 95.2792C432.168 90.9794 427 86.8296 417.331 87.3129C404.66 91.8627 408.995 103.529 414.38 110.995C417.364 115.095 418.464 114.995 429.517 119.661C442.855 125.311 463.928 137.377 475.281 139.077C488.035 137.777 521.645 128.378 524.946 127.844C528.881 127.194 531.381 127.961 534.566 127.428C538.383 126.761 541.651 126.378 545.102 124.328C545.622 124.083 546.082 123.729 546.45 123.288C546.819 122.848 547.087 122.333 547.236 121.778C547.336 121.211 547.236 120.628 547.236 120.111C547.543 119.196 547.788 118.26 547.97 117.312C547.97 116.062 546.586 114.878 546.653 113.628C546.653 113.078 547.486 111.612 547.336 111.078C546.994 110.281 546.552 109.53 546.019 108.845C545.769 108.379 545.019 107.579 545.519 107.079C546.019 106.579 547.836 105.779 551.504 103.246C555.172 100.712 557.689 99.0624 557.039 97.1625Z" fill="#FFA8A7"/>
<path d="M416.814 86.4961C422.482 86.4961 426 85.5961 441.721 95.5124C457.443 105.429 477.165 117.961 477.165 117.961L497.838 115.095C497.838 115.095 495.137 122.778 500.539 133.894C500.539 133.894 481.316 139.094 476.815 139.894C472.314 140.694 472.847 140.377 465.862 137.727C458.876 135.077 423.366 118.495 423.366 118.495L416.814 86.4961Z" fill="#E0E0E0"/>
<path d="M539.651 108.562C536.616 110.545 532.765 111.895 532.565 113.978C532.55 114.391 532.625 114.803 532.784 115.184C532.943 115.566 533.183 115.909 533.487 116.189C533.791 116.469 534.152 116.68 534.546 116.808C534.939 116.935 535.355 116.976 535.766 116.928C535.395 117.258 535.117 117.679 534.959 118.15C534.801 118.621 534.769 119.124 534.866 119.611C534.985 120.079 535.232 120.505 535.579 120.841C535.927 121.176 536.361 121.408 536.833 121.511C536.655 121.837 536.545 122.196 536.511 122.566C536.476 122.936 536.518 123.309 536.634 123.662C536.749 124.015 536.936 124.34 537.183 124.618C537.429 124.896 537.73 125.121 538.067 125.278C536.916 125.278 534.732 124.628 535.433 122.478C535.433 122.478 532.648 120.811 533.765 118.395C533.765 118.395 532.615 121.211 528.047 121.894C530.111 120.898 531.775 119.229 532.765 117.161C532.205 116.669 531.789 116.034 531.562 115.323C531.336 114.613 531.308 113.854 531.481 113.128C532.198 110.778 539.651 108.562 539.651 108.562Z" fill="#F28F8F"/>
<path d="M393.273 87.163C384.104 88.5462 373.617 89.2796 367.199 90.1628C360.18 91.1128 357.663 96.8292 357.663 108.862C357.663 126.528 366.715 155.993 366.715 155.993L364.931 186.758C373.151 195.558 411.862 198.741 432.868 185.859C432.868 185.859 433.419 125.945 432.868 115.862C431.868 98.0958 421.582 86.713 415.03 86.213C415.03 86.113 409.028 84.6964 393.273 87.163Z" fill="#F0F0F0"/>
<path d="M384.404 32.1653C384.404 32.1653 379.402 32.8652 377.535 36.6484C375.868 39.9816 376.502 47.8812 378.652 56.5475C379.858 62.1545 381.669 67.614 384.054 72.8301C384.887 74.3094 386.262 75.4085 387.888 75.8967L387.638 65.6138L387.255 58.4641C387.255 58.4641 391.856 52.181 392.373 47.0313C393.023 40.3649 391.623 37.6984 391.623 37.6984L384.404 32.1653Z" fill="#263238"/>
<path d="M383.22 33.4319L376.135 30.1987C376.562 29.2172 377.353 28.4395 378.341 28.0292C379.33 27.6189 380.44 27.608 381.436 27.9988C381.914 28.234 382.341 28.5622 382.69 28.9643C383.04 29.3664 383.305 29.8342 383.471 30.3403C383.638 30.8464 383.701 31.3805 383.658 31.9114C383.615 32.4423 383.466 32.9593 383.22 33.4319Z" fill="#263238"/>
<path d="M392.506 42.1648C392.516 45.9627 393.653 49.6723 395.772 52.8245C397.891 55.9766 400.898 58.4296 404.413 59.873C407.927 61.3165 411.79 61.6857 415.514 60.9338C419.238 60.182 422.656 58.3429 425.334 55.6492C428.012 52.9555 429.831 49.5282 430.56 45.801C431.29 42.0737 430.897 38.2139 429.432 34.7098C427.967 31.2057 425.494 28.2148 422.328 26.1154C419.162 24.016 415.445 22.9025 411.645 22.9156C406.555 22.9333 401.679 24.9707 398.09 28.5802C394.502 32.1896 392.493 37.0757 392.506 42.1648Z" fill="#263238"/>
<path d="M387.538 57.3307C385.871 58.8306 384.404 54.9474 382.937 53.4308C381.47 51.9142 376.752 49.8643 374.401 54.8474C372.05 59.8306 376.585 66.8136 380.119 68.4635C385.304 70.8634 387.638 65.6303 387.638 65.6303L388.188 87.296C393.657 97.1289 404.41 96.9289 406.111 101.429C407.127 97.4289 412.779 92.4458 409.078 88.096V81.0629C411.94 81.5034 414.84 81.6431 417.731 81.4796C422.449 80.7296 424.916 77.1631 426.333 72.0633C428.601 63.847 429.517 50.0477 426.333 34.0984C421.048 30.0152 402.709 30.7652 391.623 37.7149C392.44 51.8643 389.255 55.8307 387.538 57.3307Z" fill="#FFA8A7"/>
<path d="M428.967 22.799C428.907 22.6588 428.81 22.5372 428.687 22.4465C428.564 22.3558 428.419 22.2991 428.267 22.2824C428.032 22.2964 427.808 22.3905 427.634 22.549C426.314 23.6085 424.909 24.5562 423.432 25.3822C423.791 23.488 423.791 21.5434 423.432 19.6492C423.216 18.4825 422.899 15.7993 421.448 15.516C420.598 15.3327 419.781 16.0493 419.214 16.6493C413.446 22.049 405.877 19.5492 398.958 19.7658C393.14 19.9658 386.121 22.3157 383.504 27.9821C382.303 30.5653 382.087 33.2819 384.471 35.0651C386.592 36.4926 389.019 37.4005 391.556 37.715C403.226 39.7316 419.731 44.498 428.234 33.6985C429.487 32.0836 430.12 30.0733 430.018 28.0321C430.032 26.2449 429.639 24.4779 428.867 22.8657C428.869 22.8546 428.874 22.8441 428.88 22.8347C428.886 22.8253 428.894 22.8173 428.903 22.811C428.913 22.8048 428.923 22.8005 428.934 22.7985C428.945 22.7964 428.956 22.7966 428.967 22.799Z" fill="#263238"/>
<path d="M409.045 81.063C409.045 81.063 398.492 78.9631 394.807 77.0298C392.643 75.907 390.862 74.1667 389.689 72.03C390.251 74.1844 391.243 76.2027 392.607 77.9631C395.307 81.3963 409.045 83.8962 409.045 83.8962V81.063Z" fill="#F28F8F"/>
<path d="M406.561 54.131C406.57 54.4139 406.522 54.6957 406.421 54.9601C406.32 55.2245 406.167 55.4661 405.971 55.6708C405.776 55.8756 405.542 56.0394 405.282 56.1527C405.023 56.266 404.743 56.3266 404.46 56.3309C404.021 56.3508 403.586 56.239 403.211 56.0097C402.837 55.7805 402.539 55.4443 402.357 55.0444C402.175 54.6446 402.117 54.1995 402.19 53.7664C402.264 53.3333 402.465 52.932 402.768 52.6143C403.072 52.2965 403.463 52.0769 403.893 51.9836C404.322 51.8902 404.77 51.9276 405.177 52.0907C405.585 52.2539 405.935 52.5354 406.182 52.899C406.428 53.2626 406.56 53.6917 406.561 54.131Z" fill="#263238"/>
<path d="M405.76 46.2647L401.042 48.3646C400.775 47.722 400.766 47.0009 401.018 46.3519C401.269 45.7029 401.762 45.1761 402.393 44.8815C402.704 44.7432 403.04 44.6694 403.38 44.6646C403.72 44.6597 404.058 44.7238 404.373 44.8531C404.687 44.9824 404.973 45.1742 405.211 45.4168C405.45 45.6594 405.637 45.9479 405.76 46.2647Z" fill="#263238"/>
<path d="M407.344 68.2136L414.013 70.7302C413.867 71.1815 413.631 71.5988 413.32 71.9572C413.009 72.3155 412.629 72.6076 412.203 72.816C411.777 73.0244 411.313 73.1449 410.839 73.1702C410.365 73.1955 409.891 73.1252 409.445 72.9634C408.552 72.5924 407.836 71.8924 407.445 71.0083C407.054 70.1241 407.018 69.1236 407.344 68.2136Z" fill="#B16668"/>
<path d="M409.511 72.9635C410.108 73.1855 410.754 73.2374 411.379 73.1135C411.328 72.2646 410.954 71.4673 410.334 70.8848C409.714 70.3023 408.895 69.9787 408.044 69.9803C407.732 69.9786 407.423 70.0293 407.127 70.1303C407.238 70.7715 407.516 71.3719 407.935 71.8698C408.354 72.3676 408.898 72.7451 409.511 72.9635Z" fill="#F28F8F"/>
<path d="M425.833 47.6145L420.948 45.8146C421.039 45.4738 421.2 45.1561 421.423 44.8826C421.645 44.6091 421.924 44.3861 422.239 44.2285C422.555 44.0708 422.9 43.9821 423.252 43.9682C423.605 43.9544 423.956 44.0157 424.283 44.148C424.94 44.4124 425.469 44.9215 425.759 45.5682C426.048 46.2149 426.075 46.9485 425.833 47.6145Z" fill="#263238"/>
<path d="M423.999 53.4309C423.983 53.8455 423.845 54.2463 423.603 54.5832C423.36 54.9201 423.024 55.1784 422.636 55.3259C422.248 55.4734 421.825 55.5036 421.42 55.4128C421.015 55.3219 420.646 55.1141 420.358 54.815C420.07 54.5159 419.877 54.1389 419.801 53.7308C419.726 53.3226 419.773 52.9014 419.935 52.5195C420.098 52.1375 420.369 51.8118 420.715 51.5827C421.061 51.3536 421.467 51.2313 421.882 51.231C422.166 51.2353 422.446 51.2957 422.706 51.4089C422.967 51.522 423.202 51.6855 423.399 51.89C423.596 52.0945 423.75 52.336 423.853 52.6004C423.956 52.8649 424.006 53.1471 423.999 53.4309Z" fill="#263238"/>
<path d="M413.546 52.9145L414.246 64.9639L420.915 62.6807L414.246 52.7811C414.006 52.7746 413.767 52.8201 413.546 52.9145Z" fill="#F28F8F"/>
<path d="M388.105 81.1963C386.755 81.2963 386.171 81.4963 385.071 83.6795C383.837 86.1627 382.77 88.4293 382.77 88.4293C383.056 92.0725 384.663 95.486 387.288 98.0289C389.913 100.717 392.898 103.028 396.158 104.895C397.321 103.317 398.62 101.845 400.042 100.495C400.732 99.7692 401.679 99.3429 402.68 99.3086C403.681 99.2743 404.656 99.6347 405.394 100.312C404.778 98.9531 403.97 97.6901 402.993 96.5623C402.176 95.6956 398.858 94.6957 394.324 91.8458C391.461 89.892 389.285 87.0876 388.105 83.8295V81.1963Z" fill="#E0E0E0"/>
<path d="M406.561 100.179C406.723 98.3639 407.394 96.6314 408.494 95.1791C409.661 92.9125 409.028 91.1292 409.045 89.2127C409.061 87.2961 409.045 83.0129 409.045 83.0129C409.883 83.0183 410.696 83.3032 411.354 83.8224C412.012 84.3416 412.479 85.0655 412.679 85.8795C413.646 88.2627 415.663 91.2126 415.663 96.5957C415.663 101.429 415.213 102.329 415.213 102.329C413.797 101.016 412.256 99.8434 410.612 98.8289C410.268 98.6029 409.878 98.4578 409.47 98.4045C409.063 98.3511 408.648 98.3909 408.258 98.5209C407.868 98.6509 407.513 98.8676 407.219 99.1548C406.925 99.4419 406.7 99.7921 406.561 100.179Z" fill="#E0E0E0"/>
<path d="M367.199 90.0959C357.846 90.0959 351.461 96.3457 345.192 106.762C340.324 114.812 322.152 145.593 318.518 154.276C315.183 162.176 314.983 165.443 320.818 170.942C325.47 175.409 353.395 199.274 358.396 203.891C361.994 207.53 366.822 209.693 371.934 209.957C379.553 210.424 383.187 207.624 384.487 205.941C392.273 195.841 377.419 193.975 372.05 190.825C369.435 189.278 367.059 187.358 364.998 185.125L365.248 181.009C365.248 181.009 359.38 181.159 357.546 179.742C355.712 178.325 340.758 159.876 340.758 159.876L365.432 124.428C370.467 118.578 373.751 98.3289 367.199 90.0959Z" fill="#FFA8A7"/>
<path d="M368.766 90.0961C361.297 88.9628 354.195 90.7794 346.709 102.612C339.224 114.445 320.252 148.177 318.084 153.46C315.917 158.743 312.783 164.293 318.985 170.026C325.186 175.759 331.422 181.125 331.422 181.125C332.989 176.492 339.907 168.459 345.609 165.876L342.008 160.326C342.008 160.326 363.681 128.111 367.649 122.461C371.617 116.812 374.768 103.829 368.766 90.0961Z" fill="#E0E0E0"/>
<path d="M290.443 415.348L304.547 407.148C304.547 407.148 307.998 376.983 305.697 353.634C302.463 320.802 281.257 281.304 255.966 290.587C230.675 299.87 267.553 333.285 275.772 361.134C283.991 388.983 290.443 415.348 290.443 415.348Z" fill="#6672DF"/>
<path opacity="0.15" d="M290.443 415.348L304.547 407.148C304.547 407.148 307.998 376.983 305.697 353.634C302.463 320.802 281.257 281.304 255.966 290.587C230.675 299.87 267.553 333.285 275.772 361.134C283.991 388.983 290.443 415.348 290.443 415.348Z" fill="black"/>
<path d="M297.862 411.931C297.75 411.927 297.64 411.901 297.539 411.854C297.437 411.807 297.346 411.741 297.27 411.659C297.194 411.577 297.135 411.481 297.096 411.376C297.058 411.271 297.04 411.16 297.045 411.048C299.512 338.101 263.185 301.42 262.818 301.053C262.656 300.894 262.565 300.677 262.563 300.451C262.562 300.224 262.65 300.006 262.809 299.845C262.969 299.683 263.185 299.592 263.412 299.59C263.639 299.589 263.857 299.677 264.018 299.836C264.402 300.203 301.246 337.435 298.745 411.115C298.732 411.339 298.633 411.549 298.468 411.701C298.303 411.854 298.086 411.936 297.862 411.931Z" fill="white"/>
<path d="M281.59 420.481L291.593 414.681C291.593 414.681 293.26 393.982 283.157 368.85C274.338 346.901 252.398 328.819 241.395 332.552C230.392 336.285 230.642 344.218 236.01 352.401C241.378 360.584 274.088 380.15 281.59 420.481Z" fill="#6672DF"/>
<path d="M286.875 418.231C286.762 418.231 286.65 418.209 286.546 418.165C286.441 418.121 286.347 418.057 286.268 417.977C286.189 417.896 286.126 417.8 286.085 417.695C286.043 417.59 286.023 417.478 286.025 417.365C286.225 371.25 242.912 340.085 242.462 339.768C242.371 339.703 242.294 339.62 242.235 339.524C242.176 339.429 242.137 339.323 242.119 339.212C242.101 339.101 242.105 338.988 242.131 338.879C242.157 338.77 242.204 338.667 242.27 338.577C242.336 338.486 242.419 338.409 242.514 338.35C242.61 338.291 242.716 338.252 242.826 338.234C242.937 338.216 243.05 338.22 243.159 338.246C243.268 338.272 243.371 338.319 243.462 338.385C243.895 338.702 287.942 370.384 287.725 417.381C287.725 417.607 287.636 417.823 287.476 417.982C287.317 418.142 287.1 418.231 286.875 418.231Z" fill="white"/>
<path d="M895.09 408.182L882.937 401.149C882.937 401.149 875.701 371.15 878.585 344.051C882.637 306.02 907.677 291.72 917.197 295.003C926.716 298.287 929.484 309.336 913.729 331.985C904.426 345.351 893.006 373.183 895.09 408.182Z" fill="#6672DF"/>
<g opacity="0.15">
<path opacity="0.15" d="M895.09 408.182L882.937 401.149C882.937 401.149 875.701 371.15 878.585 344.051C882.637 306.02 907.677 291.72 917.197 295.003C926.716 298.287 929.484 309.336 913.729 331.985C904.426 345.351 893.006 373.183 895.09 408.182Z" fill="black"/>
</g>
<path d="M890.055 393.416H890.172C890.393 393.375 890.588 393.249 890.716 393.065C890.845 392.88 890.895 392.653 890.856 392.432C884.187 357.351 896.441 317.952 911.612 301.536C911.762 301.373 911.841 301.156 911.832 300.934C911.823 300.713 911.725 300.503 911.562 300.353C911.398 300.203 911.182 300.124 910.96 300.133C910.738 300.142 910.528 300.24 910.378 300.403C894.924 317.152 882.436 357.151 889.188 392.732C889.228 392.931 889.337 393.108 889.496 393.234C889.655 393.359 889.853 393.423 890.055 393.416Z" fill="white"/>
<path d="M926.95 426.564C928.867 427.547 933.968 423.231 935.402 422.114C937.832 420.256 939.753 417.814 940.987 415.015C942.352 411.83 942.69 408.3 941.954 404.915C941.568 403.126 941.055 401.366 940.42 399.649L938.67 394.549C937.988 392.906 937.643 391.144 937.653 389.366C937.92 385.816 940.987 383.166 943.688 380.883C946.722 378.366 949.856 375.083 949.623 370.883C949.233 367.591 947.754 364.524 945.422 362.167C943.255 359.684 940.72 357.517 938.753 354.901C937.202 353.078 936.325 350.777 936.269 348.384C936.387 346.914 936.807 345.485 937.503 344.185C939.1 341.456 940.471 338.603 941.604 335.652C942.504 332.618 942.154 328.985 939.72 326.919C938.645 326.19 937.434 325.685 936.16 325.433C934.885 325.181 933.573 325.188 932.301 325.452C929.907 325.88 927.633 326.818 925.633 328.202C919.064 332.302 915.63 340.501 908.578 343.768C905.772 344.796 902.904 345.648 899.992 346.318C898.536 346.667 897.168 347.315 895.977 348.222C894.786 349.129 893.797 350.274 893.073 351.584C890.706 356.984 895.924 363.25 894.357 368.9C892.973 373.9 888.255 376.05 885.787 380.65C884.78 382.67 884.452 384.961 884.854 387.183C885.299 390.95 886.429 394.604 888.188 397.965C890.151 401.427 892.323 404.766 894.69 407.965C894.69 407.965 926.6 426.414 926.95 426.564Z" fill="#6672DF"/>
<path d="M908.344 416.865C908.455 416.856 908.564 416.826 908.663 416.775C908.762 416.724 908.85 416.654 908.921 416.568C908.993 416.483 909.047 416.384 909.079 416.278C909.112 416.171 909.123 416.059 909.111 415.948C906.044 382.616 919.931 344.885 930.784 333.585C930.907 333.419 930.964 333.214 930.947 333.008C930.929 332.803 930.837 332.611 930.688 332.468C930.539 332.325 930.343 332.241 930.137 332.232C929.931 332.223 929.728 332.289 929.567 332.419C918.431 343.951 904.243 382.266 907.377 416.098C907.387 416.213 907.421 416.325 907.476 416.426C907.531 416.528 907.605 416.618 907.696 416.689C907.786 416.761 907.891 416.814 908.002 416.844C908.114 416.874 908.23 416.881 908.344 416.865Z" fill="white"/>
<path d="M911.595 375.733H911.845C919.671 373.11 927.761 371.35 935.969 370.483C936.192 370.462 936.397 370.354 936.541 370.182C936.684 370.011 936.754 369.79 936.736 369.567C936.73 369.455 936.701 369.345 936.651 369.245C936.601 369.145 936.53 369.056 936.444 368.984C936.358 368.912 936.258 368.859 936.151 368.827C936.043 368.795 935.93 368.786 935.819 368.8C927.49 369.654 919.278 371.408 911.328 374.033C911.219 374.054 911.115 374.096 911.021 374.157C910.928 374.218 910.848 374.297 910.785 374.389C910.723 374.481 910.679 374.585 910.656 374.694C910.633 374.803 910.632 374.915 910.653 375.025C910.674 375.134 910.716 375.238 910.777 375.332C910.838 375.425 910.917 375.505 911.009 375.568C911.101 375.63 911.205 375.674 911.314 375.697C911.423 375.72 911.536 375.721 911.645 375.7L911.595 375.733Z" fill="white"/>
</svg>
