<svg width="210" height="210" viewBox="0 0 210 210" fill="none" xmlns="http://www.w3.org/2000/svg">
<circle cx="105" cy="105" r="105" fill="#151515"/>
<path d="M105 5C49.8598 5 5 49.8598 5 105C5 160.14 49.8598 205 105 205C160.14 205 205 160.14 205 105C205 49.8598 160.14 5 105 5ZM105 193.281C56.3215 193.281 16.7188 153.679 16.7188 105C16.7188 56.3215 56.3215 16.7188 105 16.7188C153.679 16.7188 193.281 56.3215 193.281 105C193.281 153.679 153.679 193.281 105 193.281Z" fill="url(#paint0_linear)"/>
<path d="M105 110.469C127.616 110.469 146.016 92.0691 146.016 69.4531C146.016 46.8371 127.616 28.4375 105 28.4375C82.384 28.4375 63.9844 46.8371 63.9844 69.4531C63.9844 92.0691 82.384 110.469 105 110.469ZM105 40.1562C121.154 40.1562 134.297 53.2988 134.297 69.4531C134.297 85.6074 121.154 98.75 105 98.75C88.8457 98.75 75.7031 85.6074 75.7031 69.4531C75.7031 53.2988 88.8457 40.1562 105 40.1562Z" fill="url(#paint1_linear)"/>
<path d="M170.879 136.032C163.092 127.234 151.894 122.188 140.156 122.188H69.8438C58.106 122.188 46.9079 127.234 39.1216 136.032L36.3442 139.171L38.4169 142.814C52.0173 166.715 77.5306 181.562 105 181.562C132.47 181.562 157.983 166.715 171.584 142.813L173.656 139.171L170.879 136.032ZM105 169.844C83.2282 169.844 62.906 158.829 50.9442 140.822C56.1989 136.388 62.8892 133.906 69.8438 133.906H140.156C147.111 133.906 153.801 136.388 159.056 140.822C147.094 158.829 126.772 169.844 105 169.844Z" fill="url(#paint2_linear)"/>
<defs>
<linearGradient id="paint0_linear" x1="105" y1="5" x2="105" y2="205" gradientUnits="userSpaceOnUse">
<stop stop-color="#1887EF"/>
<stop offset="1" stop-color="#4C0B9E"/>
</linearGradient>
<linearGradient id="paint1_linear" x1="105" y1="28.4375" x2="105" y2="110.469" gradientUnits="userSpaceOnUse">
<stop stop-color="#1887EF"/>
<stop offset="1" stop-color="#4C0B9E"/>
</linearGradient>
<linearGradient id="paint2_linear" x1="105" y1="122.188" x2="105" y2="181.562" gradientUnits="userSpaceOnUse">
<stop stop-color="#1887EF"/>
<stop offset="1" stop-color="#4C0B9E"/>
</linearGradient>
</defs>
</svg>
