<svg width="200" height="200" viewBox="0 0 200 200" fill="none" xmlns="http://www.w3.org/2000/svg">
<path d="M196.667 66.6667H170C169.381 66.6667 168.774 66.8391 168.248 67.1645C167.721 67.4899 167.296 67.9555 167.019 68.5092L161.273 80H160V3.33333C160 2.44928 159.649 1.60143 159.024 0.976311C158.399 0.351189 157.551 0 156.667 0H43.3333C42.4493 0 41.6014 0.351189 40.9763 0.976311C40.3512 1.60143 40 2.44928 40 3.33333V16.6667H30C29.1159 16.6667 28.2681 17.0179 27.643 17.643C27.0179 18.2681 26.6667 19.1159 26.6667 20V26.6667H16.6667C15.7826 26.6667 14.9348 27.0179 14.3096 27.643C13.6845 28.2681 13.3333 29.1159 13.3333 30V80H3.33333C2.44928 80 1.60143 80.3512 0.976311 80.9763C0.351189 81.6014 0 82.4493 0 83.3333V183.333C0.00496273 187.752 1.7625 191.988 4.88703 195.113C8.01157 198.237 12.2479 199.995 16.6667 200H196.667C197.551 200 198.399 199.649 199.024 199.024C199.649 198.399 200 197.551 200 196.667V70C200 69.1159 199.649 68.2681 199.024 67.643C198.399 67.0179 197.551 66.6667 196.667 66.6667ZM26.6667 183.333C26.664 185.4 26.0218 187.416 24.8282 189.104C23.6347 190.792 21.9481 192.069 20 192.76V150C20 149.116 19.6488 148.268 19.0237 147.643C18.3986 147.018 17.5507 146.667 16.6667 146.667C15.7826 146.667 14.9348 147.018 14.3096 147.643C13.6845 148.268 13.3333 149.116 13.3333 150V192.76C11.3852 192.069 9.69867 190.792 8.50509 189.104C7.3115 187.416 6.66933 185.4 6.66667 183.333V86.6667H26.6667V183.333ZM26.6667 80H20V33.3333H26.6667V80ZM46.6667 6.66667H153.333V140H46.6667V6.66667ZM33.3333 23.3333H40V80H33.3333V23.3333ZM193.333 193.333H29.9908C32.1636 190.453 33.3371 186.942 33.3333 183.333V86.6667H40V143.333C40 144.217 40.3512 145.065 40.9763 145.69C41.6014 146.315 42.4493 146.667 43.3333 146.667H156.667C157.551 146.667 158.399 146.315 159.024 145.69C159.649 145.065 160 144.217 160 143.333V86.6667H163.333C163.952 86.6666 164.559 86.4943 165.086 86.1688C165.612 85.8434 166.038 85.3778 166.315 84.8242L172.06 73.3333H193.333V193.333Z" fill="url(#paint0_linear)"/>
<path d="M100 76.6668C105.933 76.6668 111.734 74.9073 116.667 71.6109C121.601 68.3144 125.446 63.629 127.716 58.1473C129.987 52.6655 130.581 46.6335 129.424 40.8141C128.266 34.9946 125.409 29.6491 121.213 25.4536C117.018 21.258 111.672 18.4008 105.853 17.2432C100.033 16.0856 94.0013 16.6797 88.5195 18.9504C83.0377 21.221 78.3524 25.0662 75.0559 29.9997C71.7595 34.9331 70 40.7333 70 46.6668C70.0089 54.6205 73.1725 62.2459 78.7967 67.8701C84.4208 73.4943 92.0462 76.6578 100 76.6668ZM100 70.0001C95.2437 70.0041 90.6012 68.5461 86.7012 65.8234C86.8355 64.0813 87.4037 62.4005 88.3539 60.9343C89.3042 59.468 90.6063 58.2629 92.1417 57.4288C94.4212 59.0993 97.1737 59.9999 99.9998 59.9999C102.826 59.9999 105.578 59.0993 107.858 57.4288C109.393 58.2634 110.695 59.4686 111.645 60.9346C112.595 62.4007 113.164 64.0811 113.299 65.823C109.399 68.5458 104.756 70.004 100 70.0001ZM93.3333 46.6668C93.3333 45.3482 93.7243 44.0593 94.4569 42.963C95.1894 41.8666 96.2306 41.0121 97.4488 40.5076C98.667 40.003 100.007 39.871 101.301 40.1282C102.594 40.3854 103.782 41.0204 104.714 41.9527C105.646 42.8851 106.281 44.073 106.539 45.3662C106.796 46.6594 106.664 47.9998 106.159 49.218C105.655 50.4362 104.8 51.4773 103.704 52.2099C102.607 52.9424 101.319 53.3334 100 53.3334C98.2325 53.3313 96.5381 52.6283 95.2883 51.3785C94.0385 50.1287 93.3354 48.4342 93.3333 46.6668ZM100 23.3334C104.308 23.3303 108.533 24.5208 112.205 26.7727C115.878 29.0246 118.855 32.25 120.806 36.0909C122.757 39.9318 123.605 44.2381 123.258 48.5321C122.91 52.826 121.38 56.9397 118.836 60.4168C117.526 57.0371 115.176 54.1613 112.125 52.2043C113.054 50.173 113.458 47.9409 113.299 45.7129C113.141 43.4848 112.426 41.3323 111.219 39.4528C110.012 37.5734 108.352 36.0273 106.391 34.9565C104.431 33.8857 102.233 33.3246 99.9996 33.3246C97.7659 33.3246 95.5681 33.8857 93.6078 34.9565C91.6475 36.0273 89.9877 37.5734 88.7806 39.4528C87.5736 41.3323 86.8581 43.4848 86.6998 45.7129C86.5415 47.9409 86.9454 50.173 87.8746 52.2043C84.8227 54.1602 82.4722 57.0364 81.1633 60.4168C78.6197 56.9397 77.0892 52.826 76.7415 48.5319C76.3938 44.2379 77.2426 39.9314 79.1936 36.0905C81.1446 32.2495 84.1217 29.0241 87.7944 26.7723C91.4671 24.5204 95.6919 23.3301 100 23.3334Z" fill="url(#paint1_linear)"/>
<path d="M86.6666 83.3335C85.7826 83.3335 84.9347 83.6847 84.3096 84.3098C83.6845 84.9349 83.3333 85.7828 83.3333 86.6668C83.3333 87.5509 83.6845 88.3987 84.3096 89.0239C84.9347 89.649 85.7826 90.0002 86.6666 90.0002H113.333C114.217 90.0002 115.065 89.649 115.69 89.0239C116.315 88.3987 116.667 87.5509 116.667 86.6668C116.667 85.7828 116.315 84.9349 115.69 84.3098C115.065 83.6847 114.217 83.3335 113.333 83.3335H86.6666Z" fill="url(#paint2_linear)"/>
<path d="M123.333 100C123.333 99.116 122.982 98.2682 122.357 97.6431C121.732 97.0179 120.884 96.6667 120 96.6667H80C79.116 96.6667 78.2681 97.0179 77.643 97.6431C77.0179 98.2682 76.6667 99.116 76.6667 100C76.6667 100.884 77.0179 101.732 77.643 102.357C78.2681 102.982 79.116 103.333 80 103.333H120C120.884 103.333 121.732 102.982 122.357 102.357C122.982 101.732 123.333 100.884 123.333 100Z" fill="url(#paint3_linear)"/>
<path d="M136.667 113.333H116.667C115.783 113.333 114.935 113.685 114.31 114.31C113.684 114.935 113.333 115.783 113.333 116.667C113.333 117.551 113.684 118.399 114.31 119.024C114.935 119.649 115.783 120 116.667 120H136.667C137.551 120 138.399 119.649 139.024 119.024C139.649 118.399 140 117.551 140 116.667C140 115.783 139.649 114.935 139.024 114.31C138.399 113.685 137.551 113.333 136.667 113.333Z" fill="url(#paint4_linear)"/>
<path d="M103.333 126.667H96.6666C95.7826 126.667 94.9347 127.018 94.3096 127.643C93.6845 128.268 93.3333 129.116 93.3333 130C93.3333 130.884 93.6845 131.732 94.3096 132.357C94.9347 132.982 95.7826 133.333 96.6666 133.333H103.333C104.217 133.333 105.065 132.982 105.69 132.357C106.315 131.732 106.667 130.884 106.667 130C106.667 129.116 106.315 128.268 105.69 127.643C105.065 127.018 104.217 126.667 103.333 126.667Z" fill="url(#paint5_linear)"/>
<path d="M16.6667 126.667C15.7826 126.667 14.9348 127.018 14.3097 127.643C13.6845 128.268 13.3333 129.116 13.3333 130V136.667C13.3333 137.551 13.6845 138.398 14.3097 139.024C14.9348 139.649 15.7826 140 16.6667 140C17.5507 140 18.3986 139.649 19.0237 139.024C19.6488 138.398 20 137.551 20 136.667V130C20 129.116 19.6488 128.268 19.0237 127.643C18.3986 127.018 17.5507 126.667 16.6667 126.667Z" fill="url(#paint6_linear)"/>
<path d="M13.3333 103.333V116.667C13.3333 117.551 13.6845 118.399 14.3097 119.024C14.9348 119.649 15.7826 120 16.6667 120C17.5507 120 18.3986 119.649 19.0237 119.024C19.6488 118.399 20 117.551 20 116.667V103.333C20 102.449 19.6488 101.601 19.0237 100.976C18.3986 100.351 17.5507 100 16.6667 100C15.7826 100 14.9348 100.351 14.3097 100.976C13.6845 101.601 13.3333 102.449 13.3333 103.333Z" fill="url(#paint7_linear)"/>
<path d="M146.667 163.333V183.333C146.667 184.217 147.018 185.065 147.643 185.69C148.268 186.315 149.116 186.667 150 186.667H183.333C184.217 186.667 185.065 186.315 185.69 185.69C186.315 185.065 186.667 184.217 186.667 183.333V163.333C186.667 162.449 186.315 161.601 185.69 160.976C185.065 160.351 184.217 160 183.333 160H150C149.116 160 148.268 160.351 147.643 160.976C147.018 161.601 146.667 162.449 146.667 163.333ZM153.333 166.667H180V180H153.333V166.667Z" fill="url(#paint8_linear)"/>
<path d="M46.6667 173.333H63.3333C64.2174 173.333 65.0652 172.982 65.6904 172.357C66.3155 171.732 66.6667 170.884 66.6667 170C66.6667 169.116 66.3155 168.268 65.6904 167.643C65.0652 167.018 64.2174 166.667 63.3333 166.667H46.6667C45.7826 166.667 44.9348 167.018 44.3097 167.643C43.6845 168.268 43.3333 169.116 43.3333 170C43.3333 170.884 43.6845 171.732 44.3097 172.357C44.9348 172.982 45.7826 173.333 46.6667 173.333Z" fill="url(#paint9_linear)"/>
<path d="M70 180H46.6667C45.7826 180 44.9348 180.351 44.3097 180.977C43.6845 181.602 43.3333 182.45 43.3333 183.334C43.3333 184.218 43.6845 185.065 44.3097 185.691C44.9348 186.316 45.7826 186.667 46.6667 186.667H70C70.8841 186.667 71.7319 186.316 72.357 185.691C72.9822 185.065 73.3333 184.218 73.3333 183.334C73.3333 182.45 72.9822 181.602 72.357 180.977C71.7319 180.351 70.8841 180 70 180Z" fill="url(#paint10_linear)"/>
<defs>
<linearGradient id="paint0_linear" x1="100" y1="0" x2="100" y2="200" gradientUnits="userSpaceOnUse">
<stop stop-color="#1888F0"/>
<stop offset="1" stop-color="#4C0B9E"/>
</linearGradient>
<linearGradient id="paint1_linear" x1="100" y1="16.6667" x2="100" y2="76.6668" gradientUnits="userSpaceOnUse">
<stop stop-color="#1888F0"/>
<stop offset="1" stop-color="#4C0B9E"/>
</linearGradient>
<linearGradient id="paint2_linear" x1="100" y1="83.3335" x2="100" y2="90.0002" gradientUnits="userSpaceOnUse">
<stop stop-color="#1888F0"/>
<stop offset="1" stop-color="#4C0B9E"/>
</linearGradient>
<linearGradient id="paint3_linear" x1="100" y1="96.6667" x2="100" y2="103.333" gradientUnits="userSpaceOnUse">
<stop stop-color="#1888F0"/>
<stop offset="1" stop-color="#4C0B9E"/>
</linearGradient>
<linearGradient id="paint4_linear" x1="126.667" y1="113.333" x2="126.667" y2="120" gradientUnits="userSpaceOnUse">
<stop stop-color="#1888F0"/>
<stop offset="1" stop-color="#4C0B9E"/>
</linearGradient>
<linearGradient id="paint5_linear" x1="100" y1="126.667" x2="100" y2="133.333" gradientUnits="userSpaceOnUse">
<stop stop-color="#1888F0"/>
<stop offset="1" stop-color="#4C0B9E"/>
</linearGradient>
<linearGradient id="paint6_linear" x1="16.6667" y1="126.667" x2="16.6667" y2="140" gradientUnits="userSpaceOnUse">
<stop stop-color="#1888F0"/>
<stop offset="1" stop-color="#4C0B9E"/>
</linearGradient>
<linearGradient id="paint7_linear" x1="16.6667" y1="100" x2="16.6667" y2="120" gradientUnits="userSpaceOnUse">
<stop stop-color="#1888F0"/>
<stop offset="1" stop-color="#4C0B9E"/>
</linearGradient>
<linearGradient id="paint8_linear" x1="166.667" y1="160" x2="166.667" y2="186.667" gradientUnits="userSpaceOnUse">
<stop stop-color="#1888F0"/>
<stop offset="1" stop-color="#4C0B9E"/>
</linearGradient>
<linearGradient id="paint9_linear" x1="55" y1="166.667" x2="55" y2="173.333" gradientUnits="userSpaceOnUse">
<stop stop-color="#1888F0"/>
<stop offset="1" stop-color="#4C0B9E"/>
</linearGradient>
<linearGradient id="paint10_linear" x1="58.3333" y1="180" x2="58.3333" y2="186.667" gradientUnits="userSpaceOnUse">
<stop stop-color="#1888F0"/>
<stop offset="1" stop-color="#4C0B9E"/>
</linearGradient>
</defs>
</svg>
