<svg width="200" height="200" viewBox="0 0 200 200" fill="none" xmlns="http://www.w3.org/2000/svg">
<path d="M50 80.1767H123.333V150.069H130V76.8485C130 75.9658 129.649 75.1192 129.024 74.4951C128.399 73.8709 127.551 73.5203 126.667 73.5203H46.6667C45.7826 73.5203 44.9348 73.8709 44.3096 74.4951C43.6845 75.1192 43.3333 75.9658 43.3333 76.8485V133.428H50V80.1767Z" fill="url(#paint0_linear)"/>
<path d="M110 116.787H103.333V106.802C103.333 105.92 102.982 105.073 102.357 104.449C101.732 103.825 100.884 103.474 100 103.474H90V93.4896C90 92.6069 89.6488 91.7603 89.0237 91.1362C88.3986 90.512 87.5507 90.1614 86.6667 90.1614H73.3333C72.4493 90.1614 71.6014 90.512 70.9763 91.1362C70.3512 91.7603 70 92.6069 70 93.4896V116.787H63.3333V123.443H110V116.787ZM96.6667 110.131V116.787H90V110.131H96.6667ZM76.6667 96.8178H83.3333V116.787H76.6667V96.8178Z" fill="url(#paint1_linear)"/>
<path d="M142.505 153.763C141.026 153.137 139.436 152.816 137.829 152.819C136.222 152.821 134.633 153.148 133.156 153.779L111.605 162.915C111.773 161.293 111.597 159.654 111.09 158.104C110.583 156.554 109.756 155.128 108.662 153.917C107.568 152.706 106.232 151.738 104.74 151.075C103.248 150.412 101.633 150.069 100 150.069H74.1433C71.5283 150.065 68.9496 149.457 66.6092 148.293C55.7909 142.908 43.8705 140.098 31.7825 140.084H23.3333C23.3333 139.201 22.9821 138.355 22.357 137.731C21.7319 137.107 20.8841 136.756 20 136.756H0V143.412H16.6667V183.351H0V190.007H20C20.8841 190.007 21.7319 189.656 22.357 189.032C22.9821 188.408 23.3333 187.561 23.3333 186.679V185.41L48.22 195.727C61.7868 201.258 76.9533 201.425 90.6392 196.195L142.132 176.591C143.641 176.018 145.021 175.15 146.19 174.038C147.359 172.926 148.294 171.591 148.94 170.113C149.608 168.614 149.969 166.997 150.003 165.356C150.037 163.716 149.742 162.085 149.135 160.56C148.545 159.04 147.654 157.654 146.515 156.486C145.375 155.318 144.012 154.392 142.505 153.763ZM142.841 167.425C142.549 168.097 142.126 168.703 141.597 169.21C141.068 169.716 140.442 170.111 139.758 170.373L88.2638 189.977C76.1627 194.603 62.752 194.458 50.7542 189.572L23.3333 178.202V146.74H31.7825C42.8356 146.754 53.7354 149.323 63.6275 154.246C66.8941 155.872 70.4934 156.72 74.1433 156.725H100C101.307 156.727 102.561 157.24 103.494 158.154C104.427 159.068 104.964 160.311 104.989 161.616C105.015 162.921 104.528 164.184 103.632 165.134C102.736 166.084 101.503 166.646 100.197 166.7C100.063 166.703 99.9292 166.71 99.7946 166.71H60V173.366H99.7946C99.8634 173.366 99.9313 173.361 100 173.361V173.366C100.233 173.366 100.463 173.357 100.692 173.344C103.171 173.241 105.61 172.691 107.893 171.721L135.759 159.906C136.417 159.625 137.125 159.48 137.84 159.479C138.556 159.478 139.265 159.621 139.923 159.9C140.608 160.188 141.227 160.61 141.744 161.143C142.261 161.675 142.665 162.306 142.932 162.998C143.213 163.705 143.349 164.46 143.334 165.221C143.318 165.981 143.15 166.73 142.841 167.425Z" fill="url(#paint2_linear)"/>
<path d="M195.652 75.5077L173.333 39.2965V28.0351L182.667 15.6097C183.099 15.0336 183.333 14.3329 183.333 13.6128C183.333 11.2924 182.739 9.01056 181.607 6.98389C180.476 4.95722 178.844 3.25302 176.867 2.03312C174.89 0.813212 172.634 0.118094 170.312 0.0137682C167.991 -0.0905581 165.681 0.399369 163.602 1.43703L153.333 6.5637L143.065 1.43703C140.986 0.399369 138.676 -0.0905581 136.355 0.0137682C134.033 0.118094 131.776 0.813212 129.8 2.03312C127.823 3.25302 126.191 4.95722 125.059 6.98389C123.927 9.01056 123.333 11.2924 123.333 13.6128C123.333 14.3329 123.567 15.0336 124 15.6097L133.333 28.0351V39.2965L117.161 65.536L122.839 69.024L138.529 43.5666H168.138L189.974 78.9961C192.086 82.4223 193.244 86.349 193.328 90.3711C193.413 94.3932 192.422 98.365 190.456 101.877C188.491 105.389 185.622 108.313 182.147 110.349C178.672 112.385 174.716 113.459 170.687 113.459H136.667V120.115H170.687C175.902 120.115 181.023 118.726 185.521 116.091C190.019 113.455 193.732 109.67 196.276 105.124C198.82 100.578 200.103 95.4373 199.993 90.2312C199.884 85.0251 198.385 79.9425 195.652 75.5077ZM133.305 7.6957C134.313 7.06834 135.467 6.71078 136.654 6.65744C137.841 6.60411 139.022 6.85679 140.083 7.39117L151.843 13.2617C152.305 13.4928 152.816 13.6131 153.333 13.6131C153.851 13.6131 154.361 13.4928 154.824 13.2617L166.583 7.39076C167.569 6.89913 168.657 6.64769 169.758 6.65704C170.86 6.6664 171.943 6.93629 172.92 7.44458C173.897 7.95287 174.739 8.68509 175.378 9.5812C176.016 10.4773 176.433 11.5118 176.594 12.5998L168.333 23.5974H138.333L130.073 12.5998C130.217 11.5954 130.582 10.6352 131.141 9.78754C131.699 8.93986 132.438 8.2255 133.305 7.69529V7.6957ZM166.667 36.9102H140V30.2538H166.667V36.9102Z" fill="url(#paint3_linear)"/>
<path d="M143.333 86.8328V87.3183C143.336 89.3404 143.984 91.309 145.182 92.9389C146.381 94.5687 148.068 95.7749 150 96.3827V100.146H156.667V96.3827C158.476 95.8161 160.074 94.7226 161.257 93.2427C162.439 91.7627 163.152 89.9638 163.303 88.0767C163.454 86.1895 163.037 84.3003 162.106 82.6514C161.174 81.0024 159.77 79.6691 158.075 78.8223L151.575 75.5773C151.001 75.291 150.541 74.8197 150.269 74.2397C149.997 73.6597 149.929 73.0051 150.077 72.3818C150.224 71.7586 150.577 71.2032 151.08 70.8057C151.583 70.4083 152.206 70.192 152.847 70.1919H153.82C154.574 70.1926 155.298 70.4924 155.832 71.0253C156.366 71.5583 156.666 72.2809 156.667 73.0346V73.5201H163.333V73.0346C163.331 71.0125 162.683 69.0439 161.484 67.414C160.286 65.7842 158.598 64.578 156.667 63.9702V60.2073H150V63.9702C148.191 64.5368 146.592 65.6303 145.41 67.1102C144.228 68.5902 143.515 70.3891 143.364 72.2762C143.212 74.1634 143.629 76.0526 144.561 77.7015C145.492 79.3505 146.896 80.6838 148.592 81.5306L155.092 84.7756C155.666 85.0619 156.126 85.5332 156.398 86.1132C156.67 86.6932 156.737 87.3478 156.59 87.9711C156.443 88.5943 156.089 89.1497 155.586 89.5472C155.083 89.9446 154.461 90.1609 153.82 90.161H152.847C152.092 90.1603 151.369 89.8605 150.835 89.3276C150.301 88.7946 150.001 88.072 150 87.3183V86.8328H143.333Z" fill="url(#paint4_linear)"/>
<path d="M176.667 76.8484H170V83.5048H176.667V76.8484Z" fill="url(#paint5_linear)"/>
<path d="M66.6667 133.428H60V140.084H66.6667V133.428Z" fill="url(#paint6_linear)"/>
<path d="M113.333 133.428H73.3333V140.084H113.333V133.428Z" fill="url(#paint7_linear)"/>
<path d="M107.936 18.9123L103.846 31.1634L110.171 33.2677L116.496 14.3232C116.634 13.9085 116.689 13.4707 116.658 13.0347C116.627 12.5987 116.511 12.1731 116.315 11.7822C116.119 11.3913 115.848 11.0427 115.517 10.7564C115.186 10.4701 114.802 10.2516 114.387 10.1134L95.4133 3.79858L93.3058 10.1138L103.643 13.5539C87.0844 21.3587 74.2113 35.2827 67.7417 52.3861L73.9867 54.7158C76.9819 46.7967 81.5265 39.5523 87.3553 33.4052C93.1841 27.2581 100.18 22.3313 107.936 18.9123Z" fill="url(#paint8_linear)"/>
<path d="M71.995 61.0396L65.5392 59.3796C64.9455 61.6845 64.4703 64.0181 64.1154 66.3713L70.7079 67.3607C71.0291 65.2332 71.4586 63.1234 71.995 61.0396Z" fill="url(#paint9_linear)"/>
<path d="M136.003 138.82L137.33 145.343C149.322 142.9 160.462 137.356 169.636 129.268L165.225 124.275C156.927 131.593 146.851 136.608 136.003 138.82Z" fill="url(#paint10_linear)"/>
<defs>
<linearGradient id="paint0_linear" x1="86.6667" y1="73.5203" x2="86.6667" y2="150.069" gradientUnits="userSpaceOnUse">
<stop stop-color="#1888F0"/>
<stop offset="1" stop-color="#4C0B9E"/>
</linearGradient>
<linearGradient id="paint1_linear" x1="86.6667" y1="90.1614" x2="86.6667" y2="123.443" gradientUnits="userSpaceOnUse">
<stop stop-color="#1888F0"/>
<stop offset="1" stop-color="#4C0B9E"/>
</linearGradient>
<linearGradient id="paint2_linear" x1="75.0028" y1="136.756" x2="75.0028" y2="200" gradientUnits="userSpaceOnUse">
<stop stop-color="#1888F0"/>
<stop offset="1" stop-color="#4C0B9E"/>
</linearGradient>
<linearGradient id="paint3_linear" x1="158.581" y1="0" x2="158.581" y2="120.115" gradientUnits="userSpaceOnUse">
<stop stop-color="#1888F0"/>
<stop offset="1" stop-color="#4C0B9E"/>
</linearGradient>
<linearGradient id="paint4_linear" x1="153.333" y1="60.2073" x2="153.333" y2="100.146" gradientUnits="userSpaceOnUse">
<stop stop-color="#1888F0"/>
<stop offset="1" stop-color="#4C0B9E"/>
</linearGradient>
<linearGradient id="paint5_linear" x1="173.333" y1="76.8484" x2="173.333" y2="83.5048" gradientUnits="userSpaceOnUse">
<stop stop-color="#1888F0"/>
<stop offset="1" stop-color="#4C0B9E"/>
</linearGradient>
<linearGradient id="paint6_linear" x1="63.3333" y1="133.428" x2="63.3333" y2="140.084" gradientUnits="userSpaceOnUse">
<stop stop-color="#1888F0"/>
<stop offset="1" stop-color="#4C0B9E"/>
</linearGradient>
<linearGradient id="paint7_linear" x1="93.3333" y1="133.428" x2="93.3333" y2="140.084" gradientUnits="userSpaceOnUse">
<stop stop-color="#1888F0"/>
<stop offset="1" stop-color="#4C0B9E"/>
</linearGradient>
<linearGradient id="paint8_linear" x1="92.2042" y1="3.79858" x2="92.2042" y2="54.7158" gradientUnits="userSpaceOnUse">
<stop stop-color="#1888F0"/>
<stop offset="1" stop-color="#4C0B9E"/>
</linearGradient>
<linearGradient id="paint9_linear" x1="68.0552" y1="59.3796" x2="68.0552" y2="67.3607" gradientUnits="userSpaceOnUse">
<stop stop-color="#1888F0"/>
<stop offset="1" stop-color="#4C0B9E"/>
</linearGradient>
<linearGradient id="paint10_linear" x1="152.82" y1="124.275" x2="152.82" y2="145.343" gradientUnits="userSpaceOnUse">
<stop stop-color="#1888F0"/>
<stop offset="1" stop-color="#4C0B9E"/>
</linearGradient>
</defs>
</svg>
