<svg width="100" height="100" viewBox="0 0 100 100" fill="none" xmlns="http://www.w3.org/2000/svg">
<rect width="100" height="100" rx="10" fill="#6672DF"/>
<path d="M25.0186 61.6296V42.6052C24.961 38.9174 27.3618 35.2201 32.2308 32.4159C41.8342 26.8555 57.4494 26.8555 67.0721 32.4159C71.941 35.2201 74.3419 38.9174 74.2843 42.6052V61.5624C74.2843 65.2309 71.9218 71.79 67.0721 74.5846C57.4686 80.145 41.8534 80.145 32.2308 74.5846C27.4291 71.8188 25.0282 65.3077 25.0186 61.668V61.6296Z" fill="#EBEBEB"/>
<path d="M49.6514 19L90.3028 42.4708L49.6514 65.9416L9 42.4708L49.6514 19Z" fill="#F5F5F5"/>
<path d="M29.3113 54.1965L49.3345 42.7684C49.4171 42.7211 49.5082 42.6906 49.6026 42.6785C49.697 42.6664 49.7929 42.673 49.8847 42.698C49.9766 42.723 50.0626 42.7658 50.1379 42.824C50.2132 42.8822 50.2763 42.9547 50.3236 43.0373C50.3709 43.1199 50.4015 43.211 50.4136 43.3054C50.4256 43.3999 50.419 43.4957 50.394 43.5876C50.3691 43.6794 50.3262 43.7655 50.268 43.8408C50.2098 43.9161 50.1373 43.9792 50.0547 44.0265L30.7422 55.0224L29.3113 54.1965Z" fill="#E0E0E0"/>
<path d="M90.3028 42.4709V44.1516L49.6514 67.6128V65.9418L90.3028 42.4709Z" fill="#E6E6E6"/>
<path d="M9 42.4709V44.1516L49.6514 67.6128V65.9418L9 42.4709Z" fill="#F0F0F0"/>
<path d="M28.303 55.2915L29.5418 56.0022C29.7291 55.6963 29.9899 55.4421 30.3005 55.2627L30.7327 55.013L29.321 54.2063C28.904 54.4864 28.5559 54.8575 28.303 55.2915Z" fill="#E0E0E0"/>
<path d="M74.3321 53.3708L49.6512 70.1289L25.0376 53.4093L49.6512 67.6128L74.3321 53.3708Z" fill="#E0E0E0"/>
<path d="M26.7183 75.0552C27.0627 75.2329 27.4447 75.3256 27.8323 75.3256C28.2199 75.3256 28.6018 75.2329 28.9463 75.0552L30.7805 86.8962C30.7805 89.1338 24.9705 89.1338 24.9705 86.8962L26.7183 75.0552Z" fill="#F5F5F5"/>
<path d="M26.6127 81.8162L26.2478 88.3081C26.128 88.2718 26.0122 88.2236 25.9021 88.1641L26.6127 81.8162Z" fill="#EBEBEB"/>
<path d="M29.3593 88.3558L28.5911 77.792L29.7339 88.2021C29.6122 88.2607 29.4871 88.3121 29.3593 88.3558Z" fill="#EBEBEB"/>
<path d="M28.0532 88.5674H27.6882L27.8803 80.1836L28.0532 88.5674Z" fill="#EBEBEB"/>
<path d="M27.8228 76.0444C28.2485 76.0338 28.6607 75.893 29.004 75.641C29.1499 75.5333 29.2491 75.3738 29.2813 75.1952C29.3134 75.0167 29.2761 74.8326 29.1768 74.6807C29.072 74.5312 28.9131 74.4286 28.7337 74.3945C28.5544 74.3604 28.3688 74.3976 28.2165 74.4982C28.1251 74.5868 28.0029 74.6364 27.8756 74.6364C27.7483 74.6364 27.626 74.5868 27.5347 74.4982C27.46 74.4317 27.3723 74.3815 27.2771 74.3508C27.1819 74.32 27.0814 74.3095 26.9819 74.3197C26.8825 74.3299 26.7862 74.3608 26.6993 74.4103C26.6124 74.4597 26.5368 74.5268 26.4772 74.6071C26.4176 74.6874 26.3754 74.7793 26.3533 74.8768C26.3312 74.9743 26.3296 75.0754 26.3487 75.1735C26.3677 75.2717 26.407 75.3648 26.4641 75.447C26.5211 75.5291 26.5946 75.5985 26.68 75.6506C27.0105 75.8979 27.4101 76.0356 27.8228 76.0444Z" fill="#E0E0E0"/>
<path d="M27.8706 74.2007C27.9647 74.202 28.0581 74.1845 28.1455 74.1494C28.2328 74.1143 28.3123 74.0621 28.3793 73.996C28.4463 73.9299 28.4995 73.8511 28.5358 73.7643C28.5721 73.6774 28.5908 73.5842 28.5908 73.4901V56.7032C28.5918 56.3258 28.6916 55.9552 28.8803 55.6283C29.069 55.3015 29.34 55.0297 29.6664 54.8402L50.0545 43.22C50.2164 43.1273 50.3354 42.9746 50.3857 42.7949C50.436 42.6152 50.4136 42.423 50.3234 42.2597C50.2784 42.1785 50.2178 42.1072 50.145 42.0497C50.0722 41.9922 49.9887 41.9497 49.8994 41.9246C49.8101 41.8996 49.7167 41.8926 49.6246 41.9039C49.5325 41.9153 49.4437 41.9448 49.3631 41.9908L28.9269 53.6301C28.3822 53.9446 27.9296 54.3967 27.6144 54.9411C27.2993 55.4854 27.1326 56.103 27.1311 56.7321V73.5189C27.1348 73.6122 27.1569 73.7039 27.1961 73.7887C27.2353 73.8735 27.2908 73.9498 27.3595 74.0131C27.4281 74.0765 27.5086 74.1256 27.5963 74.1578C27.684 74.19 27.7772 74.2046 27.8706 74.2007Z" fill="#FAFAFA"/>
<path d="M29.4458 73.4898C29.4477 73.1779 29.357 72.8725 29.1851 72.6122C29.0132 72.352 28.7678 72.1486 28.4802 72.0279C28.1926 71.9073 27.8756 71.8747 27.5695 71.9344C27.2634 71.9941 26.9818 72.1433 26.7606 72.3632C26.5394 72.583 26.3884 72.8637 26.3269 73.1694C26.2653 73.4752 26.2959 73.7924 26.4149 74.0807C26.5338 74.3691 26.7356 74.6156 26.9948 74.7891C27.254 74.9626 27.5589 75.0552 27.8708 75.0552C28.0772 75.0565 28.2818 75.0169 28.4728 74.9388C28.6639 74.8607 28.8375 74.7456 28.9839 74.6001C29.1303 74.4546 29.2465 74.2816 29.3257 74.0911C29.405 73.9006 29.4458 73.6962 29.4458 73.4898Z" fill="#F5F5F5"/>
<path d="M26.3149 73.576C26.3806 73.7385 26.4804 73.8849 26.6077 74.0053C26.735 74.1258 26.8867 74.2173 27.0526 74.2738C27.2184 74.3303 27.3945 74.3504 27.5688 74.3328C27.7432 74.3151 27.9116 74.2601 28.0628 74.1714C28.2557 74.0553 28.4152 73.8912 28.526 73.6952C28.6368 73.4991 28.695 73.2778 28.695 73.0526C28.695 72.8275 28.6368 72.6061 28.526 72.4101C28.4152 72.2141 28.2557 72.05 28.0628 71.9338C28.3566 71.9744 28.6328 72.0975 28.8593 72.289C29.0858 72.4804 29.2533 72.7323 29.3422 73.0152C29.4311 73.2981 29.4378 73.6005 29.3615 73.8871C29.2853 74.1737 29.1291 74.4327 28.9113 74.634C28.6936 74.8353 28.4231 74.9706 28.1314 75.0242C27.8397 75.0777 27.5388 75.0472 27.2637 74.9364C26.9886 74.8255 26.7507 74.6388 26.5776 74.398C26.4046 74.1571 26.3035 73.8721 26.2861 73.576H26.3149Z" fill="#EBEBEB"/>
</svg>
